<svg width="45" height="45" viewBox="0 0 45 45" fill="none" xmlns="http://www.w3.org/2000/svg">
<g filter="url(#filter0_i_550_1702)">
<rect width="45" height="45" rx="4" fill="white" fill-opacity="0.01"/>
<path d="M27.9157 27.7881C21.8434 23.822 17.5639 14.6875 17.1205 14.5678C15.0486 19.342 13.0573 22.1823 7 27.7881C14.4217 33.4068 17.1205 41.0085 17.1205 41.0085C20.1875 34.9979 22.7561 32.1498 27.9157 27.7881Z" fill="#9338C1"/>
<path d="M27.9157 3C26.8588 5.84289 25.9705 7.26354 23.5301 9.27966C25.7308 11.3632 26.6352 13.0237 27.9157 15.5593C29.2029 13.0827 30.2081 11.4206 32.9759 9.27966C30.6047 7.32276 29.7526 6.21838 27.9157 3Z" fill="#9338C1"/>
<path d="M31.6265 33.0763C30.4678 35.3982 29.6157 36.3409 27.9157 37.7034C29.7445 39.1031 30.5603 40.0416 31.6265 42C32.4885 39.9758 33.2153 39.0492 35 37.7034C33.3212 36.2602 32.5918 35.2261 31.6265 33.0763Z" fill="#9338C1"/>
</g>
<defs>
<filter id="filter0_i_550_1702" x="0" y="0" width="45" height="45" filterUnits="userSpaceOnUse" color-interpolation-filters="sRGB">
<feFlood flood-opacity="0" result="BackgroundImageFix"/>
<feBlend mode="normal" in="SourceGraphic" in2="BackgroundImageFix" result="shape"/>
<feColorMatrix in="SourceAlpha" type="matrix" values="0 0 0 0 0 0 0 0 0 0 0 0 0 0 0 0 0 0 127 0" result="hardAlpha"/>
<feMorphology radius="21" operator="erode" in="SourceAlpha" result="effect1_innerShadow_550_1702"/>
<feOffset/>
<feGaussianBlur stdDeviation="3.6"/>
<feComposite in2="hardAlpha" operator="arithmetic" k2="-1" k3="1"/>
<feColorMatrix type="matrix" values="0 0 0 0 1 0 0 0 0 1 0 0 0 0 1 0 0 0 0.08 0"/>
<feBlend mode="normal" in2="shape" result="effect1_innerShadow_550_1702"/>
</filter>
</defs>
</svg>
