<svg width="31" height="31" viewBox="0 0 31 31" fill="none" xmlns="http://www.w3.org/2000/svg">
<path d="M19.1299 21.3608L19.4303 21.5298L19.6951 21.3091C20.7986 20.3895 21.8517 19.875 23.25 19.875C26.2676 19.875 28.5625 22.1699 28.5625 25.1875C28.5625 28.2051 26.2676 30.5 23.25 30.5C20.2324 30.5 17.9375 28.2051 17.9375 25.1875V24.2188V23.9213L17.676 23.7793L10.8948 20.0981L10.6657 19.9737L10.4326 20.0903C9.68594 20.4636 8.79921 20.8125 7.75 20.8125C4.92614 20.8125 2.4375 18.3239 2.4375 15.5C2.4375 12.4932 4.91524 10.1875 7.75 10.1875C8.79921 10.1875 9.68594 10.5364 10.4326 10.9097L10.6657 11.0263L10.8948 10.9019L17.676 7.22068L17.9375 7.07874V6.78125V5.8125C17.9375 2.79489 20.2324 0.5 23.25 0.5C26.2676 0.5 28.5625 2.79489 28.5625 5.8125C28.5625 8.83011 26.2676 11.125 23.25 11.125C21.8517 11.125 20.7986 10.6105 19.6951 9.69089L19.4303 9.47022L19.1299 9.63921L12.9299 13.1267L12.5701 13.3291L12.7007 13.7206C12.8898 14.288 13.0625 15.0011 13.0625 15.5C13.0625 15.9989 12.8898 16.712 12.7007 17.2794L12.5701 17.6709L12.9299 17.8733L19.1299 21.3608Z" stroke="#BD2FA9"/>
</svg>
