<svg width="484" height="590" viewBox="0 0 484 590" fill="none" xmlns="http://www.w3.org/2000/svg">
<path opacity="0.2" d="M100.444 585.915L204.299 451.63C205.393 450.215 205.415 448.246 204.353 446.807L107.019 314.979C106 313.6 105.974 311.725 106.954 310.318L137.999 265.729C139.558 263.49 142.852 263.434 144.486 265.62L383.577 585.556C387.32 590.564 395.103 589.536 397.417 583.728L483.226 368.345C483.711 367.129 483.569 365.751 482.847 364.659L243.127 2.09336C241.537 -0.310685 238.004 -0.295682 236.435 2.12177L1.12659 364.667C0.420007 365.756 0.285526 367.12 0.765876 368.325L86.6837 583.981C88.9758 589.735 96.655 590.814 100.444 585.915Z" fill="url(#paint0_linear_552_2685)"/>
<defs>
<linearGradient id="paint0_linear_552_2685" x1="630" y1="297" x2="-119.5" y2="297" gradientUnits="userSpaceOnUse">
<stop stop-color="#9A6BF7"/>
<stop offset="1" stop-color="#BD2FA9"/>
</linearGradient>
</defs>
</svg>
