<svg width="45" height="45" viewBox="0 0 45 45" fill="none" xmlns="http://www.w3.org/2000/svg">
<path d="M22.5 39.375H15C14.0054 39.375 13.0516 38.9799 12.3483 38.2766C11.6451 37.5734 11.25 36.6196 11.25 35.625V9.375C11.25 8.38044 11.6451 7.42661 12.3483 6.72335C13.0516 6.02009 14.0054 5.625 15 5.625H30C30.9946 5.625 31.9484 6.02009 32.6516 6.72335C33.3549 7.42661 33.75 8.38044 33.75 9.375V21.5625M20.625 7.5H24.375M22.5 31.875V31.8938M35.6269 39.375C34.6323 39.375 33.6785 38.9799 32.9752 38.2766C32.272 37.5734 31.8769 36.6196 31.8769 35.625C31.8769 34.6304 32.272 33.6766 32.9752 32.9734C33.6785 32.2701 34.6323 31.875 35.6269 31.875M35.6269 39.375C36.6214 39.375 37.5753 38.9799 38.2785 38.2766C38.9818 37.5734 39.3769 36.6196 39.3769 35.625C39.3769 34.6304 38.9818 33.6766 38.2785 32.9734C37.5753 32.2701 36.6214 31.875 35.6269 31.875M35.6269 39.375V42.1875M35.6269 31.875V29.0625M41.31 32.3438L38.8744 33.75M32.3813 37.5L29.9438 38.9062M29.9438 32.3438L32.3813 33.75M38.8744 37.5L41.3119 38.9062" stroke="#F79C00" stroke-width="2" stroke-linecap="round" stroke-linejoin="round"/>
</svg>
