<svg width="258" height="187" viewBox="0 0 258 187" fill="none" xmlns="http://www.w3.org/2000/svg">
<g filter="url(#filter0_b_552_2725)">
<rect width="258" height="187" rx="25" fill="#9772FF" fill-opacity="0.1"/>
<rect x="0.5" y="0.5" width="257" height="186" rx="24.5" stroke="#424242"/>
<path d="M132.21 80.7234C129.928 82.6325 122.858 83.9749 116.221 100.724L106.451 91.9395C101.942 94.2277 98.4482 98.1153 96.6523 102.842L111.344 116.044C113.045 117.567 115.282 118.354 117.563 118.231C119.844 118.108 121.983 117.085 123.511 115.387L129.599 108.611L127.18 124.65L117.277 135.687C119.762 140.05 123.592 143.492 128.194 145.499L138.68 133.836C140.232 132.109 141.329 130.023 141.871 127.765C144.153 118.188 143.378 101.291 144.854 86.7341C138.936 85.6304 136.744 84.2881 132.21 80.7234Z" fill="#4A2086" fill-opacity="0.34"/>
<path d="M213.04 81.3942L196.037 99.337L202.779 69.6561L219.782 51.7134L213.04 81.3942Z" fill="#C0A183"/>
<path d="M159.134 74.816C158.911 74.6668 158.523 74.8011 158.016 75.159L159.193 76.1285C159.388 75.4424 159.388 74.9651 159.134 74.816Z" fill="#E9E9E9"/>
<path d="M148.605 83.9885C148.291 84.7939 148.332 85.4706 148.575 85.6292C148.817 85.7877 149.517 85.6292 149.988 85.0177L148.605 83.9885Z" fill="#E9E9E9"/>
<path d="M155.394 75.4725C155.17 75.3233 154.783 75.4576 154.275 75.8155L155.453 76.785C155.645 76.1138 155.63 75.6366 155.394 75.4725Z" fill="#E9E9E9"/>
<path d="M120.504 132.015L117.207 135.684C119.692 140.047 123.522 143.489 128.125 145.496L131.57 141.663C127.04 139.563 123.201 136.217 120.504 132.015Z" fill="#E9E9E9"/>
<path d="M139.477 77.9178L144.995 86.4939L146.457 83.839L139.477 77.9178Z" fill="#E9E9E9"/>
<path d="M145.129 56.2928L145.89 57.9335L146.307 56.8149L145.129 56.2928Z" fill="#E9E9E9"/>
<path d="M141.177 95.7275L129.588 108.614L128.41 116.519L141.177 95.7275Z" fill="#E9E9E9"/>
<path d="M113.018 145.289C112.049 146.333 111.05 147.377 110.02 148.451C109.2 153.298 109.588 164.425 111.154 169.6C115.315 162.68 116.822 158.296 118.926 151.165C116.659 149.53 114.665 147.547 113.018 145.289Z" fill="#C0A183"/>
<path d="M96.5962 88.0912C95.8802 87.3753 95.0599 86.4953 93.9711 85.317C85.5277 86.5102 76.2364 89.3292 72.2988 91.1935C78.3046 93.4646 84.7378 94.3813 91.1388 93.8782L91.467 94.1765C92.8748 91.9117 94.6023 89.8621 96.5962 88.0912Z" fill="#C0A183"/>
<path d="M109.676 94.7572L106.457 91.8527C101.951 94.1454 98.4588 98.0315 96.6582 102.756L99.9246 105.694C102.184 101.273 105.542 97.5072 109.676 94.7572Z" fill="#E9E9E9"/>
<path d="M151.691 46.5822C151.755 46.2209 151.687 45.8487 151.501 45.5324C151.316 45.216 151.023 44.9761 150.677 44.8552C150.9 44.6492 151.058 44.3824 151.132 44.0877C151.205 43.7931 151.191 43.4835 151.091 43.1967C150.991 42.91 150.809 42.6587 150.569 42.4738C150.328 42.2888 150.038 42.1782 149.735 42.1556C149.858 41.8927 149.907 41.6007 149.874 41.3121C149.842 41.0234 149.73 40.7495 149.551 40.5207C149.372 40.292 149.133 40.1173 148.861 40.0163C148.588 39.9152 148.293 39.8916 148.008 39.9482C148.045 39.6588 147.999 39.3648 147.877 39.0999C147.755 38.8349 147.561 38.6096 147.316 38.4496C147.072 38.2895 146.788 38.2012 146.497 38.1945C146.205 38.1878 145.918 38.2632 145.666 38.412C145.613 38.1147 145.476 37.839 145.27 37.618C145.064 37.397 144.798 37.2402 144.506 37.1662C144.213 37.0921 143.905 37.1042 143.619 37.2009C143.332 37.2975 143.08 37.4746 142.892 37.711C142.75 37.4262 142.528 37.1891 142.253 37.0285C141.978 36.8679 141.663 36.7908 141.345 36.8066C141.027 36.8224 140.72 36.9304 140.463 37.1176C140.205 37.3046 140.008 37.5627 139.894 37.8601C139.714 37.6701 139.489 37.5285 139.24 37.4484C138.99 37.3683 138.725 37.3521 138.468 37.4016C138.21 37.451 137.97 37.5643 137.768 37.7312C137.566 37.898 137.409 38.113 137.312 38.3562C137.338 37.9833 137.257 37.6108 137.078 37.2826C136.899 36.9543 136.63 36.684 136.303 36.5034C135.975 36.3228 135.603 36.2395 135.23 36.2631C134.857 36.2868 134.499 36.4166 134.197 36.6371C134.032 36.2556 133.754 35.9337 133.401 35.7144C133.047 35.4951 132.636 35.3889 132.22 35.41C131.805 35.4311 131.406 35.5784 131.077 35.8324C130.748 36.0863 130.504 36.4347 130.379 36.831C130.037 36.6245 129.641 36.5276 129.243 36.5532C128.844 36.5789 128.464 36.7259 128.152 36.9745C127.84 37.2231 127.611 37.5613 127.497 37.9437C127.383 38.326 127.389 38.7341 127.514 39.113C127.115 39.1582 126.739 39.3254 126.438 39.5919C126.137 39.8583 125.926 40.211 125.833 40.602C125.739 40.993 125.769 41.4031 125.917 41.7767C126.066 42.1502 126.326 42.4689 126.662 42.6894C126.347 42.9442 126.119 43.2903 126.01 43.6801C125.9 44.0699 125.914 44.484 126.05 44.8654C126.186 45.2468 126.437 45.5766 126.768 45.8093C127.099 46.0421 127.495 46.1662 127.9 46.1646C127.818 46.5535 127.858 46.9579 128.013 47.3238C128.167 47.6896 128.43 47.9995 128.766 48.2119C129.102 48.4244 129.494 48.5293 129.891 48.5126C130.288 48.4958 130.67 48.3584 130.987 48.1185C131.112 48.4403 131.323 48.7215 131.597 48.9321C131.871 49.1427 132.197 49.2745 132.54 49.3133C132.477 49.536 132.464 49.77 132.502 49.9982C132.541 50.2264 132.63 50.4433 132.762 50.6329C132.895 50.8227 133.068 50.9805 133.269 51.0951C133.47 51.2097 133.694 51.2781 133.925 51.2954C133.801 51.5591 133.752 51.8525 133.786 52.1423C133.819 52.4321 133.934 52.7067 134.115 52.9349C134.297 53.1631 134.539 53.3359 134.814 53.4336C135.089 53.5314 135.385 53.5502 135.67 53.4879C135.636 53.7779 135.684 54.0717 135.808 54.3358C135.932 54.6001 136.128 54.8241 136.374 54.9825C136.619 55.141 136.904 55.2274 137.196 55.2322C137.488 55.2369 137.775 55.1597 138.025 55.0092C138.078 55.3068 138.217 55.5826 138.423 55.8032C138.63 56.0239 138.896 56.18 139.19 56.2525C139.483 56.3251 139.791 56.3111 140.077 56.2122C140.363 56.1133 140.614 55.9338 140.799 55.6953C140.988 55.965 141.231 56.1911 141.514 56.3584C141.797 56.5256 142.113 56.6302 142.44 56.6648C142.94 55.7622 143.278 54.7793 143.439 53.7603C143.605 52.7227 143.411 51.6596 142.89 50.7475C140.668 50.0166 141.667 47.4065 143.173 48.4207C143.889 48.9129 144.161 48.8815 144.217 48.4058C144.221 48.2683 144.263 48.1347 144.337 48.0188C144.411 47.9029 144.515 47.8094 144.638 47.748C144.771 48.0277 144.983 48.262 145.248 48.4213C145.513 48.5808 145.82 48.6581 146.13 48.6438C146.439 48.6294 146.737 48.524 146.986 48.3407C147.236 48.1575 147.426 47.9046 147.532 47.6137C147.676 47.7663 147.85 47.8884 148.042 47.9727C148.234 48.0571 148.441 48.1019 148.651 48.1048C148.861 48.1075 149.069 48.0682 149.264 47.9889C149.459 47.9097 149.635 47.7923 149.784 47.6436C150.153 48.5129 150.433 49.4174 150.619 50.3432C150.843 50.217 151.033 50.0378 151.171 49.8212C151.31 49.6047 151.393 49.3574 151.413 49.1012C151.434 48.8448 151.391 48.5874 151.289 48.3516C151.187 48.1156 151.029 47.9083 150.828 47.748C151.052 47.6341 151.247 47.4695 151.397 47.2671C151.547 47.0648 151.648 46.8303 151.691 46.5822Z" fill="#C0A183"/>
<path d="M184.266 42.3166C184.166 41.7119 183.889 41.1505 183.469 40.7035C183.049 40.2564 182.507 39.9437 181.91 39.805C181.313 39.6663 180.688 39.7077 180.115 39.924C179.541 40.1404 179.045 40.5219 178.688 41.0205C178.332 41.5189 178.131 42.112 178.111 42.7246C178.091 43.3372 178.254 43.9419 178.578 44.4622C178.902 44.9825 179.373 45.395 179.931 45.6476C180.49 45.9002 181.111 45.9815 181.716 45.8813C182.526 45.7458 183.25 45.2945 183.728 44.6262C184.206 43.9579 184.4 43.1273 184.266 42.3166Z" fill="#E9E9E9"/>
<path d="M91.6748 111.85L84.6797 114.102L87.5701 131.165L91.6748 111.85Z" fill="#C0A183"/>
<path d="M182.491 89.8245L182.486 89.8114L182.491 89.8245Z" fill="#E9E9E9"/>
<path d="M188.814 82.3489L184.802 86.0329C186.209 86.3308 187.577 86.7964 188.874 87.42C189.423 87.654 189.928 87.9821 190.365 88.3894C190.977 89.0905 187.696 88.0911 186.085 87.9122H186.07C186.395 88.0838 186.692 88.3051 186.95 88.5684C187.479 89.1737 183.432 87.8038 183.072 88.0613C184.623 88.7623 187.024 90.0898 187.606 91.1228C188.292 92.3608 184.772 89.899 182.49 89.8244C183.937 90.4956 185.518 91.436 186.085 92.4801C186.86 93.8931 184.056 91.3026 180.715 91.1974H180.7C183.892 93.1363 185.384 94.7299 180.849 92.7635C180.018 92.3916 179.131 92.1597 178.224 92.0774L169.111 100.411L196.018 99.3669L199.97 81.9462L188.814 82.3489Z" fill="#C0A183"/>
<path d="M213.04 81.3942L196.037 99.337L202.779 69.6561L219.782 51.7134L213.04 81.3942Z" stroke="#C0C0C0" stroke-width="0.564931" stroke-linejoin="round"/>
<path d="M188.816 82.3489L184.804 86.0329C186.211 86.3308 187.579 86.7964 188.876 87.42C189.425 87.654 189.93 87.9821 190.367 88.3894C190.979 89.0905 187.698 88.0911 186.087 87.9122H186.072C186.397 88.0838 186.694 88.3051 186.952 88.5684C187.481 89.1737 183.434 87.8038 183.074 88.0613C184.625 88.7623 187.026 90.0898 187.608 91.1228C188.294 92.3608 184.774 89.899 182.492 89.8244C183.939 90.4956 185.52 91.436 186.087 92.4801C186.862 93.8931 184.058 91.3026 180.717 91.1974H180.702C183.894 93.1363 185.386 94.7299 180.851 92.7635C180.02 92.3916 179.133 92.1597 178.226 92.0774L169.113 100.411L196.02 99.3669L199.972 81.9462L188.816 82.3489Z" stroke="#C0C0C0" stroke-width="0.564931" stroke-linejoin="round"/>
<path d="M151.691 46.5813C151.755 46.2199 151.687 45.8478 151.501 45.5314C151.316 45.2151 151.023 44.9751 150.677 44.8543C150.9 44.6482 151.058 44.3815 151.132 44.0868C151.205 43.7922 151.191 43.4825 151.091 43.1957C150.991 42.909 150.809 42.6578 150.569 42.4728C150.328 42.2879 150.038 42.1773 149.735 42.1547C149.858 41.8918 149.907 41.5997 149.874 41.3111C149.842 41.0224 149.73 40.7485 149.551 40.5197C149.372 40.291 149.133 40.1163 148.861 40.0153C148.588 39.9142 148.293 39.8906 148.008 39.9472C148.045 39.6578 147.999 39.3638 147.877 39.0989C147.755 38.8339 147.561 38.6086 147.316 38.4486C147.072 38.2885 146.788 38.2002 146.497 38.1935C146.205 38.1869 145.918 38.2622 145.666 38.411C145.613 38.1137 145.476 37.838 145.27 37.617C145.064 37.3961 144.798 37.2392 144.506 37.1652C144.213 37.0912 143.905 37.1033 143.619 37.1999C143.332 37.2965 143.08 37.4736 142.892 37.71C142.75 37.4253 142.528 37.1881 142.253 37.0275C141.978 36.8669 141.663 36.7898 141.345 36.8056C141.027 36.8214 140.72 36.9295 140.463 37.1166C140.205 37.3037 140.008 37.5617 139.894 37.8591C139.714 37.6692 139.489 37.5275 139.24 37.4474C138.99 37.3673 138.725 37.3512 138.468 37.4006C138.21 37.4501 137.97 37.5633 137.768 37.7302C137.566 37.897 137.409 38.112 137.312 38.3553C137.338 37.9823 137.257 37.6098 137.078 37.2816C136.899 36.9533 136.63 36.683 136.303 36.5024C135.975 36.3219 135.603 36.2385 135.23 36.2621C134.857 36.2858 134.499 36.4156 134.197 36.6361C134.032 36.2547 133.754 35.9327 133.401 35.7134C133.047 35.4942 132.636 35.388 132.22 35.409C131.805 35.4301 131.406 35.5774 131.077 35.8314C130.748 36.0853 130.504 36.4337 130.379 36.83C130.037 36.6235 129.641 36.5266 129.243 36.5523C128.844 36.5779 128.464 36.725 128.152 36.9735C127.84 37.2221 127.611 37.5604 127.497 37.9427C127.383 38.325 127.389 38.7331 127.514 39.112C127.115 39.1572 126.739 39.3244 126.438 39.5909C126.137 39.8573 125.926 40.21 125.833 40.6011C125.739 40.992 125.769 41.4022 125.917 41.7757C126.066 42.1492 126.326 42.4679 126.662 42.6885C126.347 42.9433 126.119 43.2894 126.01 43.6791C125.9 44.0689 125.914 44.483 126.05 44.8644C126.186 45.2458 126.437 45.5756 126.768 45.8084C127.099 46.0411 127.495 46.1652 127.9 46.1636C127.818 46.5525 127.858 46.957 128.013 47.3228C128.167 47.6887 128.43 47.9985 128.766 48.2109C129.102 48.4234 129.494 48.5283 129.891 48.5116C130.288 48.4949 130.67 48.3574 130.987 48.1175C131.112 48.4393 131.323 48.7205 131.597 48.9312C131.871 49.1417 132.197 49.2735 132.54 49.3123C132.477 49.535 132.464 49.769 132.502 49.9972C132.541 50.2255 132.63 50.4423 132.762 50.6319C132.895 50.8217 133.068 50.9795 133.269 51.0942C133.47 51.2087 133.694 51.2771 133.925 51.2944C133.801 51.5582 133.752 51.8515 133.786 52.1413C133.819 52.4311 133.934 52.7057 134.115 52.9339C134.297 53.1622 134.539 53.3349 134.814 53.4327C135.089 53.5304 135.385 53.5492 135.67 53.4869C135.636 53.7769 135.684 54.0707 135.808 54.3349C135.932 54.5991 136.128 54.8231 136.374 54.9816C136.619 55.14 136.904 55.2265 137.196 55.2313C137.488 55.236 137.775 55.1587 138.025 55.0082C138.078 55.3058 138.217 55.5816 138.423 55.8023C138.63 56.0229 138.896 56.179 139.19 56.2515C139.483 56.3241 139.791 56.3101 140.077 56.2113C140.363 56.1123 140.614 55.9328 140.799 55.6943C140.988 55.9641 141.231 56.1901 141.514 56.3574C141.797 56.5246 142.113 56.6292 142.44 56.6638C142.94 55.7612 143.278 54.7783 143.439 53.7593C143.605 52.7218 143.411 51.6586 142.89 50.7465C140.668 50.0156 141.667 47.4055 143.173 48.4197C143.889 48.9119 144.161 48.8805 144.217 48.4048C144.221 48.2674 144.263 48.1337 144.337 48.0178C144.411 47.902 144.515 47.8084 144.638 47.747C144.771 48.0268 144.983 48.261 145.248 48.4204C145.513 48.5798 145.82 48.6571 146.13 48.6428C146.439 48.6285 146.737 48.523 146.986 48.3397C147.236 48.1565 147.426 47.9036 147.532 47.6128C147.676 47.7654 147.85 47.8874 148.042 47.9717C148.234 48.0561 148.441 48.101 148.651 48.1038C148.861 48.1065 149.069 48.0672 149.264 47.9879C149.459 47.9087 149.635 47.7913 149.784 47.6426C150.153 48.5119 150.433 49.4165 150.619 50.3422C150.843 50.2161 151.033 50.0368 151.171 49.8203C151.31 49.6037 151.393 49.3564 151.413 49.1002C151.434 48.8439 151.391 48.5865 151.289 48.3506C151.187 48.1146 151.029 47.9074 150.828 47.747C151.052 47.6331 151.247 47.4685 151.397 47.2661C151.547 47.0638 151.648 46.8293 151.691 46.5813Z" stroke="#C0C0C0" stroke-width="0.564931" stroke-linejoin="round"/>
<path d="M150.336 55.8135L194.857 48.3262" stroke="#C0C0C0" stroke-width="0.564931" stroke-linecap="round" stroke-linejoin="round"/>
<path d="M77.2812 68.075L142.161 57.187" stroke="#C0C0C0" stroke-width="0.564931" stroke-linecap="round" stroke-linejoin="round"/>
<path d="M145.801 62.8254L159.15 74.8171" stroke="#C0C0C0" stroke-width="0.564931" stroke-linecap="round" stroke-linejoin="round"/>
<path d="M159.209 76.1285C159.388 75.4574 159.389 74.9785 159.149 74.816C158.926 74.6653 158.521 74.7987 158.016 75.1591C157.258 75.7572 156.573 76.4422 155.975 77.2001" stroke="#C0C0C0" stroke-width="0.564931" stroke-linecap="round" stroke-linejoin="round"/>
<path d="M103.428 93.8021C98.3863 89.79 97.9687 89.6707 93.9715 85.3006C85.5296 86.4938 76.2383 89.3127 72.3008 91.1771C78.311 93.448 84.7481 94.3647 91.1533 93.8618L97.9993 100.022" stroke="#C0C0C0" stroke-width="0.564931" stroke-linecap="round" stroke-linejoin="round"/>
<path d="M141.342 62.8541L155.407 75.4722" stroke="#C0C0C0" stroke-width="0.564931" stroke-linecap="round" stroke-linejoin="round"/>
<path d="M148.575 85.6289L139.477 77.9178L144.986 86.4916" stroke="#C0C0C0" stroke-width="0.564931" stroke-linecap="round" stroke-linejoin="round"/>
<path d="M181.045 87.3123C181.594 87.4316 186.626 89.19 187.682 91.0708C188.389 92.3229 184.818 89.8329 182.507 89.7583" stroke="#C0C0C0" stroke-width="0.564931" stroke-linecap="round" stroke-linejoin="round"/>
<path d="M180.553 88.9551C181.955 89.4622 185.278 90.8658 186.146 92.4452C186.931 93.8787 184.105 91.252 180.717 91.1476" stroke="#C0C0C0" stroke-width="0.564931" stroke-linecap="round" stroke-linejoin="round"/>
<path d="M180.166 90.8346C183.715 92.9078 185.672 94.8271 180.852 92.7438C178.362 91.6675 160.206 91.118 160.206 91.118C158.613 90.9532 157.091 90.3713 155.794 89.4311L148.605 83.9722" stroke="#C0C0C0" stroke-width="0.564931" stroke-linecap="round" stroke-linejoin="round"/>
<path d="M154.271 75.8151L161.58 82.3031C161.58 82.3031 179.895 85.7335 181.297 86.1339C182.699 86.5342 186.057 87.3852 187.04 88.5054C187.563 89.1012 184.685 88.0728 182.938 87.9833" stroke="#C0C0C0" stroke-width="0.564931" stroke-linecap="round" stroke-linejoin="round"/>
<path d="M155.466 76.785C155.645 76.1138 155.646 75.6349 155.407 75.4724C155.184 75.3217 154.779 75.456 154.273 75.8155C152.209 77.2842 149.142 81.8372 148.501 84.332C148.344 84.9443 148.372 85.4961 148.576 85.6296C148.811 85.7866 149.485 85.5997 149.989 85.033" stroke="#C0C0C0" stroke-width="0.564931" stroke-linecap="round" stroke-linejoin="round"/>
<path d="M125.785 90.4919C129.386 90.6436 132.928 89.5419 135.808 87.3747" stroke="#C0C0C0" stroke-width="0.564931" stroke-linecap="round" stroke-linejoin="round"/>
<path d="M144.861 86.7176L146.457 83.839" stroke="#C0C0C0" stroke-width="0.564931" stroke-linecap="round" stroke-linejoin="round"/>
<path d="M145.563 61.406C144.579 62.8378 142.774 62.2114 140.283 59.8101" stroke="#C0C0C0" stroke-width="0.564931" stroke-linecap="round" stroke-linejoin="round"/>
<path d="M129.586 108.631L141.177 95.7275L128.41 116.519" stroke="#C0C0C0" stroke-width="0.564931" stroke-linecap="round" stroke-linejoin="round"/>
<path d="M111.348 116.026C112.189 116.782 113.172 117.365 114.239 117.741C115.306 118.117 116.437 118.28 117.567 118.219C118.697 118.158 119.804 117.875 120.825 117.387C121.845 116.898 122.759 116.212 123.515 115.37L129.583 108.63L127.184 124.644L117.281 135.681C119.765 140.044 123.595 143.486 128.198 145.494L138.684 133.815C140.236 132.089 141.333 130.002 141.875 127.745C144.158 118.168 143.382 101.256 144.858 86.7135C138.922 85.6098 136.73 84.2674 132.21 80.7028C129.29 82.8372 122.772 84.4213 116.222 100.708L106.455 91.9235C101.95 94.2162 98.4568 98.1022 96.6562 102.826L111.348 116.026Z" stroke="#C0C0C0" stroke-width="0.564931" stroke-linecap="round" stroke-linejoin="round"/>
<path d="M146.287 56.7899C145.892 56.6426 145.506 56.4712 145.133 56.2765L145.89 57.925" stroke="#C0C0C0" stroke-width="0.564931" stroke-linecap="round" stroke-linejoin="round"/>
<path d="M132.209 80.6925C132.844 78.698 133.273 76.6441 133.492 74.5624C133.872 71.3598 134.801 68.2466 136.239 65.3598C137.644 62.4075 140.871 59.6851 142.519 56.5451C143.013 55.6824 143.327 54.7285 143.442 53.7411C143.608 52.7035 143.414 51.6403 142.892 50.7282C140.67 49.9974 141.674 47.381 143.175 48.4015C143.894 48.8905 144.175 48.8639 144.219 48.3866C144.26 48.1356 144.31 47.8968 144.37 47.6707M146.904 67.8507C145.805 64.6793 144.893 59.8303 146.283 56.79C151.931 58.8616 151.452 51.5399 149.798 47.6707L146.904 67.8507Z" stroke="#C0C0C0" stroke-width="0.564931" stroke-linecap="round" stroke-linejoin="round"/>
<path d="M120.58 132.015C123.278 136.217 127.117 139.565 131.649 141.665" stroke="#C0C0C0" stroke-width="0.564931" stroke-linecap="round" stroke-linejoin="round"/>
<path d="M99.9062 105.705C102.412 101.152 105.544 97.4121 109.661 94.8169" stroke="#C0C0C0" stroke-width="0.564931" stroke-linecap="round" stroke-linejoin="round"/>
<path d="M119.057 138.383C115.906 142.23 113.087 145.249 110.019 148.451C109.198 153.298 109.586 164.425 111.152 169.6C115.313 162.68 116.82 158.28 118.924 151.153L125.307 144.053" stroke="#C0C0C0" stroke-width="0.564931" stroke-linecap="round" stroke-linejoin="round"/>
<path d="M91.4805 94.1621C92.8884 91.9014 94.6166 89.8566 96.6112 88.0917" stroke="#C0C0C0" stroke-width="0.564931" stroke-linecap="round" stroke-linejoin="round"/>
<path d="M186.146 87.8521C187.772 88.0161 191.08 89.0296 190.471 88.3294C190.029 87.9175 189.52 87.5845 188.965 87.345C186.861 86.3166 184.848 85.9877 182.611 85.3762L165.263 81.1702L158.023 75.1523" stroke="#C0C0C0" stroke-width="0.564931" stroke-linecap="round" stroke-linejoin="round"/>
<path d="M130.662 89.9097L117.283 109.568L104.352 99.3211" stroke="#C0C0C0" stroke-width="0.564931" stroke-linecap="round" stroke-linejoin="round"/>
<path d="M167.233 45.1496C167.333 45.7543 167.251 46.3752 166.999 46.9337C166.747 47.4922 166.334 47.9632 165.813 48.2873C165.294 48.6113 164.688 48.7738 164.076 48.7542C163.463 48.7346 162.87 48.5338 162.372 48.1771C161.873 47.8204 161.492 47.3239 161.275 46.7504C161.059 46.177 161.018 45.5522 161.157 44.9551C161.295 44.3581 161.608 43.8156 162.055 43.3963C162.502 42.9769 163.063 42.6995 163.668 42.5992C164.479 42.4651 165.31 42.6584 165.978 43.1367C166.646 43.6149 167.098 44.3389 167.233 45.1496Z" stroke="#C0C0C0" stroke-width="0.564931" stroke-linecap="round" stroke-linejoin="round"/>
<path d="M175.676 43.7474C175.776 44.3521 175.695 44.973 175.442 45.5315C175.19 46.0899 174.777 46.561 174.257 46.8851C173.737 47.2091 173.132 47.3716 172.519 47.352C171.906 47.3324 171.314 47.1315 170.815 46.7749C170.317 46.4182 169.935 45.9217 169.719 45.3482C169.503 44.7747 169.461 44.15 169.6 43.5529C169.738 42.9559 170.051 42.4134 170.498 41.994C170.946 41.5747 171.507 41.2973 172.111 41.197C172.922 41.0629 173.753 41.2561 174.422 41.7344C175.09 42.2127 175.541 42.9367 175.676 43.7474Z" stroke="#C0C0C0" stroke-width="0.564931" stroke-linecap="round" stroke-linejoin="round"/>
<path d="M184.268 42.3157C184.368 42.9203 184.287 43.5412 184.034 44.0997C183.782 44.6582 183.369 45.1293 182.848 45.4533C182.329 45.7773 181.724 45.9398 181.111 45.9202C180.498 45.9006 179.906 45.6997 179.407 45.3431C178.909 44.9864 178.527 44.4899 178.31 43.9164C178.095 43.343 178.053 42.7182 178.192 42.1211C178.33 41.5241 178.643 40.9816 179.09 40.5623C179.537 40.1429 180.099 39.8655 180.703 39.7652C181.514 39.6309 182.345 39.8241 183.013 40.3024C183.682 40.7807 184.134 41.5048 184.268 42.3157Z" stroke="#C0C0C0" stroke-width="0.564931" stroke-linecap="round" stroke-linejoin="round"/>
<path d="M95.4925 31.3984L89.7949 39.4227" stroke="#C0C0C0" stroke-width="0.564931" stroke-linecap="round" stroke-linejoin="round"/>
<path d="M96.6558 38.2584L88.6465 32.5609" stroke="#C0C0C0" stroke-width="0.564931" stroke-linecap="round" stroke-linejoin="round"/>
<path d="M72.8667 117.891L72.6877 117.951L78.1913 122.828L70.9277 130.807L74.8205 134.283L82.0842 126.288L87.5721 131.166L91.6745 111.851L72.8667 117.891Z" fill="#C0A183" stroke="#C0C0C0" stroke-width="0.564931" stroke-linecap="round" stroke-linejoin="round"/>
<path d="M168.919 128.899L157.375 125.319L167.085 118.577" stroke="#C0C0C0" stroke-width="0.564931" stroke-linecap="round" stroke-linejoin="round"/>
<path d="M178.405 127.376L188.04 120.247L176.57 117.04" stroke="#C0C0C0" stroke-width="0.564931" stroke-linecap="round" stroke-linejoin="round"/>
<path d="M174.795 112.789L170.574 133.342" stroke="#C0C0C0" stroke-width="0.564931" stroke-linecap="round" stroke-linejoin="round"/>
<path d="M81.416 93.5274L89.1534 141.233C89.4298 142.861 90.0242 144.417 90.9026 145.814C91.781 147.211 92.9261 148.421 94.2724 149.376C95.6188 150.33 97.14 151.01 98.7492 151.376C100.358 151.742 102.024 151.788 103.651 151.51L109.854 150.466" stroke="#C0C0C0" stroke-width="0.564931" stroke-linecap="round" stroke-linejoin="round"/>
<path d="M202.091 93.006L206.699 121.41C206.977 123.037 206.931 124.702 206.566 126.312C206.199 127.921 205.519 129.442 204.565 130.788C203.611 132.135 202.4 133.28 201.003 134.159C199.606 135.037 198.05 135.631 196.423 135.907L121.307 148.54" stroke="#C0C0C0" stroke-width="0.564931" stroke-linecap="round" stroke-linejoin="round"/>
<path d="M126.07 43.5696L87.0066 50.1325C85.3796 50.4091 83.823 51.0035 82.4258 51.8818C81.0287 52.7601 79.8184 53.9052 78.864 55.2516C77.9097 56.598 77.2299 58.1192 76.8638 59.7284C76.4977 61.3376 76.4522 63.0032 76.7301 64.6299L80.5565 88.2221" stroke="#C0C0C0" stroke-width="0.564931" stroke-linecap="round" stroke-linejoin="round"/>
<path d="M148.023 39.881L179.777 34.546C181.404 34.2681 183.07 34.3136 184.679 34.6797C186.288 35.0458 187.81 35.7256 189.156 36.6799C190.502 37.6343 191.647 38.8446 192.526 40.2418C193.404 41.6389 193.999 43.1955 194.275 44.8225L200.163 81.1228" stroke="#C0C0C0" stroke-width="0.564931" stroke-linecap="round" stroke-linejoin="round"/>
<path d="M113.018 145.29C114.66 147.547 116.654 149.526 118.924 151.152" stroke="#C0C0C0" stroke-width="0.564931" stroke-linecap="round" stroke-linejoin="round"/>
</g>
<defs>
<filter id="filter0_b_552_2725" x="-20" y="-20" width="298" height="227" filterUnits="userSpaceOnUse" color-interpolation-filters="sRGB">
<feFlood flood-opacity="0" result="BackgroundImageFix"/>
<feGaussianBlur in="BackgroundImageFix" stdDeviation="10"/>
<feComposite in2="SourceAlpha" operator="in" result="effect1_backgroundBlur_552_2725"/>
<feBlend mode="normal" in="SourceGraphic" in2="effect1_backgroundBlur_552_2725" result="shape"/>
</filter>
</defs>
</svg>
