<svg width="283" height="305" viewBox="0 0 283 305" fill="none" xmlns="http://www.w3.org/2000/svg">
<g filter="url(#filter0_b_552_2686)">
<rect width="283" height="305" rx="25" fill="#9772FF" fill-opacity="0.1"/>
<rect x="0.5" y="0.5" width="282" height="304" rx="24.5" stroke="#424242"/>
<path d="M92.1109 142.953C86.2467 147.542 86.4325 136.343 89.1788 137.323C89.8023 137.55 92.0801 139.82 92.5304 138.365C92.7265 137.735 91.0643 130.647 90.4362 129.19C94.9436 125.739 98.3012 121.015 100.07 115.635C100.07 115.009 98.3957 115.844 98.3957 115.844C98.7378 114.982 98.8808 114.056 98.8141 113.132C98.7774 113.084 98.7299 113.044 98.6754 113.017C98.6209 112.99 98.5609 112.976 98.5 112.976C98.4391 112.976 98.379 112.99 98.3245 113.017C98.27 113.044 98.2226 113.084 98.1859 113.132C97.1383 115.218 94.6257 115.629 92.5304 115.844C90.0224 115.844 81.2193 114.595 78.0774 116.052C76.6114 116.678 74.9356 118.763 75.5694 122.522C75.5694 122.94 76.1976 125.442 76.616 125.65C78.237 125.644 79.8294 126.075 81.2238 126.898C81.4336 127.106 81.2239 127.315 81.0152 127.315C80.1773 127.315 79.548 127.106 78.9199 127.106C75.9878 126.898 71.7983 126.898 71.3799 130.652C70.9604 133.571 72.0081 136.492 73.0558 138.994C74.3098 142.121 81.2238 152.341 82.0617 152.757C82.3551 152.763 82.6476 152.722 82.9282 152.637C83.1459 154.832 83.546 157.018 83.9473 159.013C84.1559 160.262 85.4134 160.473 85.2013 159.013C84.6051 156.836 84.197 154.659 83.6201 152.483C86.6035 151.788 92.9248 150.01 94.2085 149.213C94.6257 149.001 92.7356 142.328 92.1109 142.953ZM94.4159 118.972C94.524 118.98 94.6255 119.027 94.7022 119.103C94.7789 119.18 94.8257 119.281 94.8343 119.388C94.8343 120.674 90.8056 121.431 90.6448 121.474C90.4362 121.474 90.2264 121.057 90.4362 121.057C90.6688 120.824 93.8414 118.781 94.4159 118.972ZM83.7296 144.83C83.7302 144.858 83.7252 144.885 83.7149 144.911C83.7046 144.937 83.6891 144.96 83.6695 144.979C83.6499 144.999 83.6265 145.014 83.6008 145.025C83.5751 145.035 83.5475 145.04 83.5198 145.039C82.8917 145.248 82.2658 144.622 82.0538 144.205C81.6051 143.672 81.1865 143.115 80.7998 142.537C80.894 144.202 81.3203 145.833 82.0538 147.333C82.1119 147.472 82.123 147.626 82.0854 147.772C82.0479 147.918 81.9637 148.048 81.8456 148.142C81.7275 148.236 81.5819 148.29 81.4307 148.294C81.2795 148.299 81.1308 148.254 81.0072 148.167C79.5837 146.679 78.3841 144.993 77.4459 143.162C76.4404 141.263 75.3517 139.408 75.5615 137.115C75.5615 136.906 75.9798 136.697 75.9798 137.115C76.4696 139.062 77.3202 140.9 78.4879 142.537C78.905 143.347 79.4006 144.115 79.9676 144.83C79.5792 143.474 79.5074 142.047 79.7578 140.659C79.7628 140.537 79.8091 140.419 79.8892 140.326C79.9693 140.233 80.0786 140.169 80.1995 140.145C80.3204 140.121 80.4459 140.138 80.5558 140.194C80.6658 140.249 80.7537 140.34 80.8055 140.452C81.754 142.35 84.0066 143.741 83.7296 144.83ZM79.3349 118.554C79.1183 118.656 78.9381 118.523 79.1251 118.346C79.9024 117.705 80.8121 117.241 81.7895 116.989C82.7669 116.737 83.7881 116.702 84.7807 116.887C86.444 117.144 88.1237 117.283 89.8069 117.303C89.9209 117.303 92.9032 116.932 91.6925 118.137C90.272 119.198 87.0903 118.681 85.4088 118.346C83.4139 117.767 81.2851 117.84 79.3349 118.554Z" fill="#C0C0C0"/>
<path d="M103.213 138.365C103.745 137.94 104.172 137.4 104.462 136.786C104.753 136.171 104.898 135.499 104.887 134.82C104.887 132.017 102.607 130.266 100.699 127.938C99.664 126.677 98.3952 125.644 97.1378 124.393C96.928 124.184 96.5096 124.393 96.7194 124.81C97.5573 125.853 98.3952 127.105 99.2274 128.147C101.692 131.211 103.103 132.687 103.416 134.403C103.428 135.502 103.139 136.584 102.578 137.531C102.526 137.217 102.38 136.926 102.159 136.697C101.95 136.489 101.67 136.504 101.74 136.905C102.288 140.048 102.994 143.579 101.95 146.915C101.644 148.074 101.071 149.145 100.274 150.043C99.436 151.086 98.1797 151.504 97.1321 152.338C96.9223 152.546 96.9223 152.963 97.3418 152.963C98.8079 153.171 100.064 152.129 101.112 151.295C102.148 150.227 102.937 148.945 103.421 147.54C104.298 144.533 104.225 141.33 103.213 138.365Z" fill="#C0C0C0"/>
<path d="M137.981 160.053C141.489 159.055 143.651 157.647 150.548 154.214C153.182 153.34 154.435 152.821 155.575 150.46C165.237 130.44 166.455 117.339 167.517 114.171C167.759 112.936 167.898 111.683 167.933 110.425C167.933 109.799 167.096 109.799 166.886 110.217C166.348 112.417 165.929 114.645 165.632 116.89C163.654 126.612 160.707 136.113 156.834 145.252C155.808 147.556 155.159 150.881 152.855 152.133C150.554 153.394 148.175 154.509 145.733 155.47C143.197 156.674 140.706 158.181 137.981 159.433C137.352 159.636 137.562 160.053 137.981 160.053Z" fill="#C0C0C0"/>
<path d="M166.47 107.083C165.216 106.04 163.944 105.223 162.491 104.164C161.652 103.713 160.934 103.07 160.395 102.287C160.137 101.806 160.002 101.268 160.002 100.723C160.002 100.177 160.137 99.6399 160.395 99.1587C160.796 98.0099 161.286 96.8942 161.861 95.8218C162.281 94.7798 162.909 93.7368 163.329 92.6937C163.537 92.2772 162.909 91.8595 162.491 92.2772C161.741 93.2425 161.108 94.2924 160.605 95.4052C159.767 97.2814 158.467 99.5809 158.72 101.661C158.872 102.364 159.175 103.026 159.608 103.602C160.041 104.178 160.593 104.654 161.228 104.998C162.71 106.02 164.369 107.083 165.835 107.917C166.47 107.917 166.889 107.5 166.47 107.083Z" fill="#C0C0C0"/>
<path d="M164.586 96.6575C165.275 92.8814 165.445 88.6058 165.84 86.2303C166.049 84.9818 166.049 83.7333 166.259 82.4768C166.469 81.6426 166.677 82.6857 166.887 82.8945C167.097 83.7287 167.509 84.5641 167.725 85.6049C168.334 88.5286 168.563 91.6533 168.979 94.5714C168.993 94.7003 169.054 94.8197 169.15 94.9065C169.247 94.9933 169.373 95.0413 169.503 95.0413C169.633 95.0413 169.759 94.9933 169.856 94.9065C169.952 94.8197 170.013 94.7003 170.027 94.5714C170.174 90.2353 169.463 85.9127 167.933 81.8503C167.863 81.5093 167.681 81.2013 167.415 80.9751C167.15 80.749 166.816 80.6176 166.467 80.6018C165.001 80.6018 165.213 83.0988 165.001 83.9376C164.576 88.0254 164.366 92.1325 164.371 96.2421C163.957 96.8664 164.376 96.8664 164.586 96.6575Z" fill="#C0C0C0"/>
<path d="M175.685 90.1918C176.506 90.9065 177.09 91.8517 177.361 92.9033C177.571 93.9355 177.571 94.9991 177.361 96.0314C177.257 96.1853 177.201 96.367 177.201 96.5529C177.201 96.7388 177.257 96.9204 177.361 97.0744C177.571 97.2821 177.78 97.0744 177.989 96.8656C178.81 96.0484 178.696 93.8431 178.409 92.6945C178.237 92.0253 177.924 91.4003 177.49 90.8609C177.057 90.3216 176.513 89.8803 175.895 89.5664C175.596 89.4608 175.476 89.9841 175.685 90.1918Z" fill="#C0C0C0"/>
<path d="M180.503 106.041C181.199 104.585 181.692 103.042 181.969 101.454C182.35 98.7375 182.389 95.1974 180.503 92.9036C180.294 92.4859 179.665 92.9036 179.875 93.3201C180.92 95.8294 181.14 98.6034 180.503 101.245C180.084 103.742 178.565 105.81 177.571 108.127C177.128 109.16 178.626 120.638 179.037 126.478C179.464 132.525 179.456 138.574 179.456 144.621C179.456 150.461 179.044 156.3 178.618 162.347C178.451 165.243 177.959 168.111 177.152 170.897C176.444 172.975 175.219 174.84 173.592 176.319C171.534 178.418 169.21 180.241 166.679 181.741C165.217 182.582 163.956 183.41 162.49 184.238C161.017 185.019 159.616 185.926 158.301 186.95C157.881 187.157 158.301 187.784 158.719 187.575C161.54 186.619 164.218 185.286 166.679 183.613C168.978 182.201 171.152 180.597 173.177 178.816C174.908 177.319 176.393 175.559 177.576 173.603C178.782 171.121 179.494 168.43 179.67 165.679C181.96 149.144 181 125.652 178.416 109.164C179.456 108.753 180.294 106.667 180.503 106.041Z" fill="#C0C0C0"/>
<path d="M43.5169 220.114C43.2205 224.54 40.8014 235.596 39.7469 239.924C38.8052 243.789 38.6992 243.562 38.6992 244.513C38.6992 244.93 39.1176 245.138 39.5371 244.721C40.302 243.595 40.8031 242.312 41.0032 240.967C41.6131 238.202 44.3548 224.473 44.3548 220.114C44.145 219.487 43.5169 219.487 43.5169 220.114Z" fill="#C0C0C0"/>
<path d="M170.448 88.7323C170.867 89.3577 171.495 89.7754 171.702 90.4008C172.3 91.7085 172.587 93.1359 172.54 94.5719C172.54 96.0213 174.178 94.6854 173.588 92.0749C173.377 91.0259 172.95 90.0318 172.334 89.1557C171.869 88.627 171.298 88.2016 170.658 87.9072C170.448 88.1069 170.238 88.5201 170.448 88.7323Z" fill="#C0C0C0"/>
<path d="M115.571 207.184C115.152 207.393 114.939 206.762 115.361 206.559C118.484 205.056 157.463 190.918 157.883 190.71C156.209 186.33 143.64 153.798 143.222 152.13C143.184 152.031 143.126 151.941 143.052 151.866C142.978 151.79 142.889 151.731 142.79 151.692C142.692 151.653 142.586 151.634 142.48 151.638C142.374 151.641 142.27 151.666 142.174 151.712C137.566 154.84 109.708 164.642 109.08 164.851C102.166 157.552 81.2217 156.507 72.4221 160.471C72.2871 160.511 72.1687 160.593 72.0845 160.706C72.0004 160.818 71.9549 160.955 71.9549 161.095C71.9549 161.235 72.0004 161.372 72.0845 161.484C72.1687 161.597 72.2871 161.679 72.4221 161.719C74.5014 162.36 75.9105 165.191 76.1932 165.473C68.6521 167.97 61.673 172.096 56.9272 178.402C50.8145 186.519 50.2012 191.765 40.5898 222.612C40.5758 222.725 40.5872 222.84 40.6233 222.949C40.6593 223.057 40.7192 223.156 40.7985 223.239C45.4075 224.073 50.224 224.281 54.833 225.115C54.4682 214.962 54.6506 203.467 57.341 193.625C58.4296 189.112 60.1204 184.763 62.3684 180.697C62.5782 180.488 62.9965 180.697 62.7879 180.904C61.5705 183.358 60.656 185.95 60.0645 188.622C55.0428 203.62 56.8006 224.936 57.1324 240.756C57.1803 243.05 57.341 245.345 57.5508 247.639C59.8555 248.354 62.2584 248.706 64.6723 248.681C66.7677 248.681 80.377 247.789 85.1992 247.432C95.2449 246.686 124.997 245.347 130.024 245.764C130.187 245.753 130.341 245.684 130.456 245.569C130.572 245.454 130.642 245.301 130.652 245.138C130.757 239.713 132.956 205.099 132.956 202.803C127.074 203.895 121.267 205.358 115.571 207.184ZM100.488 186.538C101.273 190.881 102.834 195.049 105.098 198.843C105.18 198.914 105.242 199.005 105.277 199.107C105.312 199.209 105.319 199.319 105.298 199.425C105.277 199.531 105.227 199.629 105.155 199.71C105.083 199.791 104.991 199.851 104.888 199.885C104.47 199.885 104.05 199.051 103.842 198.843C103.004 197.594 102.166 196.131 101.328 194.672C100.067 191.672 99.2232 188.515 98.8199 185.288C98.0493 179.169 100.188 173.089 102.59 170.273C102.781 170.046 105.523 167.561 105.313 168.395C105.104 169.021 104.246 169.628 103.847 170.064C102.836 171.307 102.056 172.719 101.543 174.235C100.114 178.173 99.7499 182.416 100.488 186.538ZM93.9897 164.642C95.3384 164.758 96.6012 165.35 97.5511 166.31C97.5905 166.362 97.6166 166.423 97.6271 166.487C97.6377 166.551 97.6325 166.617 97.6118 166.678C97.5911 166.74 97.5557 166.795 97.5086 166.84C97.4614 166.885 97.404 166.918 97.3413 166.936C94.1596 166.936 94.5084 165.267 81.2126 165.267C80.7942 165.267 81.004 164.851 81.2126 164.851C84.1333 164.627 90.9938 164.144 93.9966 164.642H93.9897Z" fill="#C0A183"/>
<path d="M184.901 74.5515C180.238 74.5515 154.631 74.1134 150.551 74.5515C148.25 74.7989 145.733 75.1769 144.053 77.0485C143.125 78.0197 142.537 79.2634 142.377 80.5942C142.158 83.3006 142.158 86.0201 142.377 88.7265C142.571 91.0226 142.559 93.3414 144.471 95.196C148.191 98.7939 154.523 96.9689 159.134 97.0733C159.217 97.0733 159.297 97.0403 159.356 96.9815C159.415 96.9228 159.449 96.8431 159.449 96.76C159.449 96.6769 159.415 96.5973 159.356 96.5385C159.297 96.4798 159.217 96.4468 159.134 96.4468C157.248 96.4468 155.154 96.239 153.269 96.239C149.573 96.239 146.1 96.1448 144.471 92.9021C143.425 90.8172 143.633 88.1056 143.633 85.8118C143.633 83.7268 143.425 80.8065 144.471 78.9303C145.518 77.0541 147.827 76.263 149.918 76.0099C152.77 75.6992 155.637 75.5601 158.506 75.5934C190.263 75.5934 192.241 75.5015 193.066 75.5934C194.117 75.7766 195.121 76.1659 196.02 76.7388C196.919 77.3116 197.695 78.0565 198.302 78.9303C199.524 81.0044 199.968 83.4425 199.556 85.8118C199.505 86.1205 199.266 90.9352 198.09 92.9021C196.272 95.9405 189.444 96.037 187.83 96.239H184.059C183.85 96.239 183.012 96.239 183.221 96.6556H183.431C186.566 96.9422 189.721 96.9422 192.856 96.6556C194.952 96.4468 197.046 96.0302 198.302 94.3618C199.556 92.9021 199.74 91.0215 199.978 89.1487C200.21 87.6989 200.35 86.2361 200.397 84.7687C200.502 83.45 200.502 82.1251 200.397 80.8065C200.125 79.6586 199.611 78.5815 198.889 77.6467C198.166 76.7119 197.252 75.9408 196.208 75.3846C195.207 74.8852 191.893 74.5515 184.901 74.5515Z" fill="#C0C0C0"/>
<path d="M220.509 140.45C225.105 140.884 229.727 140.954 234.334 140.658C236.045 140.668 237.746 140.386 239.361 139.824C240.208 139.478 240.977 138.968 241.624 138.324C242.271 137.679 242.784 136.913 243.131 136.071C243.47 134.992 243.612 133.862 243.55 132.734C243.55 130.224 243.609 129.783 243.341 128.98C243.341 128.771 242.922 128.771 242.922 128.98C242.637 129.926 242.565 130.923 242.712 131.899C242.688 132.954 242.548 134.003 242.293 135.027C242.091 135.85 241.703 136.616 241.159 137.267C240.614 137.917 239.928 138.436 239.152 138.782C237.587 139.261 235.969 139.541 234.334 139.616C232.658 139.616 230.773 139.824 229.098 139.824C226.374 139.824 223.442 139.824 220.719 140.033C220.302 140.242 220.302 140.45 220.509 140.45Z" fill="#C0C0C0"/>
<path d="M171.706 184.243C179.499 184.412 201.411 184.94 206.266 184.452C208.569 184.225 210.9 184.073 212.764 182.783C215.102 181.163 215.487 178.612 215.487 176.11C215.995 168.02 216.095 162.292 207.946 161.721C203.763 161.427 199.568 161.721 195.169 161.721C184.082 161.721 184.795 161.929 182.812 161.929C182.728 161.929 182.648 161.962 182.589 162.021C182.53 162.079 182.497 162.159 182.497 162.242C182.497 162.325 182.53 162.405 182.589 162.464C182.648 162.522 182.728 162.555 182.812 162.555C183.65 162.555 185.116 162.746 186.163 162.763C192.449 162.867 198.729 162.359 205.014 162.763C208.365 162.979 212.804 162.959 214.02 166.934C215.102 170.469 214.854 175.275 214.229 178.821C213.385 183.616 206.06 183.37 202.29 183.409C192.03 183.513 181.973 183.2 171.709 183.618C171.496 183.826 171.496 184.238 171.706 184.243Z" fill="#C0C0C0"/>
<path d="M248.159 167.352C243.509 166.891 217.949 167.27 217.368 167.561C216.95 167.77 217.578 180.074 217.998 180.074C223.242 179.7 248.436 179.486 250.464 179.032C252.991 178.464 254.442 175.695 254.442 173.192C254.652 169.855 251.302 167.77 248.159 167.352Z" fill="#C0A183"/>
<path d="M161.234 123.977C155.389 123.385 149.511 123.176 143.639 123.35C140.707 123.35 137.775 123.35 134.843 123.559C133.373 123.525 131.903 123.594 130.443 123.768C129.044 123.724 127.643 123.794 126.254 123.976C125.089 124.241 124.013 124.804 123.131 125.609C122.25 126.413 121.594 127.432 121.228 128.565C120.39 130.65 121.443 132.937 123.112 134.403C125.001 135.918 127.396 136.664 129.815 136.489C140.477 136.489 147.443 136.561 158.302 135.863C158.72 135.863 158.72 135.028 158.302 135.237C150.002 135.727 141.682 135.796 133.376 135.446C131.072 135.446 128.36 135.623 126.045 134.821C124.169 134.169 122.066 132.324 122.066 130.024C122.163 128.943 122.602 127.921 123.32 127.105C123.984 126.053 125.038 125.304 126.253 125.019C128.802 124.597 131.44 125.026 134.422 124.602C139.581 124.602 130.532 124.393 161.44 124.393C161.443 124.28 161.443 124.185 161.234 123.977Z" fill="#C0C0C0"/>
<path d="M251.929 80.5991C249.845 79.3257 247.32 79.5527 244.812 79.5527C204.096 79.5527 202.083 79.7104 202.083 80.5957C202.082 84.2194 201.872 87.8399 201.453 91.4395C201.373 91.4909 201.311 91.566 201.276 91.6542C201.241 91.7425 201.235 91.8394 201.258 91.9315C201.281 92.0236 201.332 92.1061 201.405 92.1675C201.478 92.2289 201.568 92.266 201.663 92.2737C213.415 92.9423 228.206 92.318 246.488 92.0649C248.372 92.0388 250.468 92.0649 252.142 90.8164C256.272 88.5305 256.502 83.3867 251.929 80.5991Z" fill="#C0A183"/>
<path d="M253.184 125.852C251.3 123.975 244.387 123.558 244.387 124.392C244.387 127.729 244.387 135.445 244.806 135.861C245.365 136.218 246.033 136.366 246.691 136.279C248.031 136.337 249.372 136.196 250.67 135.861C251.722 135.573 252.68 135.018 253.451 134.251C254.223 133.483 254.78 132.529 255.07 131.482C255.194 130.463 255.089 129.43 254.763 128.456C254.437 127.482 253.897 126.593 253.184 125.852Z" fill="#C0A183"/>
<path d="M242.711 122.309C239.291 117.202 232.179 118.347 227.421 118.347C224.697 118.347 221.765 118.347 219.042 118.138C201.634 118.138 193.392 117.246 189.927 118.972C189.204 119.216 188.535 119.599 187.96 120.1C187.385 120.601 186.914 121.21 186.576 121.892C186.262 122.474 186.043 123.103 185.926 123.754C183.058 123.748 181.633 123.685 181.34 123.981V124.607C181.627 124.867 181.999 125.015 182.388 125.023C184.433 125.023 185.305 125.084 185.76 125.091C185.689 126.163 185.738 127.232 185.738 128.156C185.572 130.744 185.775 133.342 186.34 135.874C182.796 135.874 182.509 135.812 181.968 136.083L181.996 136.917C182.11 137.03 181.47 136.917 186.729 136.917C187.028 137.622 187.465 138.262 188.014 138.799C188.563 139.336 189.213 139.759 189.927 140.045C192.189 140.795 193.636 140.67 203.333 140.67C211.591 140.67 217.013 140.443 218.204 140.462C218.287 140.462 218.368 140.429 218.427 140.371C218.486 140.312 218.519 140.232 218.519 140.149C218.519 140.066 218.486 139.986 218.427 139.928C218.368 139.869 218.287 139.836 218.204 139.836C216.95 139.836 215.482 139.628 214.224 139.628H201.239C197.677 139.628 192.86 140.462 189.718 138.794C188.836 138.248 188.118 137.475 187.639 136.558C187.161 135.641 186.938 134.612 186.995 133.58C186.786 130.452 186.367 126.282 187.204 123.153C187.494 122.338 188.001 121.617 188.671 121.068C191.495 118.256 197.602 118.983 232.447 118.983C235.171 118.983 237.893 118.983 239.988 120.442C240.989 121.122 241.776 122.071 242.258 123.178C242.74 124.285 242.897 125.506 242.711 126.698C242.92 126.907 242.92 126.907 243.13 126.698C243.43 125.989 243.549 125.217 243.476 124.451C243.402 123.685 243.14 122.949 242.711 122.309Z" fill="#C0C0C0"/>
<path d="M197.47 125.436C195.76 130.529 197.888 135.486 197.888 133.568C198.144 132.802 198.394 123.592 197.47 125.436Z" fill="#C0C0C0"/>
<path d="M205.427 124.81C205.03 126.198 205.219 127.117 205.219 131.693C205.219 132.975 205.315 133.569 206.265 133.569C206.852 133.18 206.685 132.862 206.685 129.399C206.685 122.667 205.177 124.81 205.427 124.81Z" fill="#C0C0C0"/>
<path d="M215.064 133.568C215.433 133.017 214.967 122.084 213.598 124.809C213.712 124.809 213.234 135.395 215.064 133.568Z" fill="#C0C0C0"/>
<path d="M221.766 125.018C221.535 127.304 221.465 129.603 221.556 131.899C221.556 132.526 221.556 133.568 221.975 133.985C222.184 134.194 222.546 134.185 222.604 133.985C222.787 133.235 222.857 132.462 222.812 131.692C222.9 129.389 222.76 127.084 222.394 124.809C222.394 124.601 221.766 124.601 221.766 125.018Z" fill="#C0C0C0"/>
<path d="M230.772 125.228C230.772 125.341 230.108 132.719 231.402 133.778C232.925 135.02 232.187 128.132 232.048 127.28C231.454 123.634 230.789 124.774 230.772 125.228Z" fill="#C0C0C0"/>
<path d="M153.482 81.85C152.715 84.1427 153.336 84.1007 152.854 86.0211C152.854 87.2696 152.644 88.9403 153.272 89.9834C153.482 90.3999 153.902 90.1911 153.902 89.9834C154.165 89.1957 154.11 88.8484 154.11 83.935C154.11 83.3096 153.902 82.6865 153.902 81.85C154.11 81.6411 153.692 81.4323 153.482 81.85Z" fill="#C0C0C0"/>
<path d="M161.442 81.225C161.006 83.4915 160.866 85.8043 161.024 88.1065C161.024 88.7319 161.024 89.775 161.652 89.9838H162.07C162.698 89.5662 162.49 88.7353 162.49 88.1065C162.643 85.8043 162.502 83.4919 162.07 81.225C161.86 81.0162 161.442 80.8074 161.442 81.225Z" fill="#C0C0C0"/>
<path d="M177.78 81.4325C177.551 83.7191 177.481 86.0189 177.572 88.3151C177.572 88.9405 177.572 89.9836 177.99 90.4001C178.2 90.609 178.604 90.6271 178.665 90.424C178.832 89.6634 178.887 88.8826 178.828 88.1063C178.916 85.8043 178.776 83.4994 178.41 81.2248C178.41 81.0159 177.78 81.0159 177.78 81.4325Z" fill="#C0C0C0"/>
<path d="M186.786 81.6426C186.786 81.7561 186.054 92.1731 188.04 90.1926C188.742 89.1461 187.773 82.8253 187.412 81.4338C187.316 81.0524 186.786 81.2261 186.786 81.6426Z" fill="#C0C0C0"/>
<path d="M187.835 168.812C187.671 169.956 187.766 176.968 188.673 177.571C188.71 177.619 188.757 177.659 188.812 177.686C188.866 177.713 188.927 177.727 188.987 177.727C189.048 177.727 189.108 177.713 189.163 177.686C189.217 177.659 189.265 177.619 189.302 177.571C189.966 176.578 188.877 169.525 188.673 168.812C188.673 168.395 188.041 168.395 187.835 168.812Z" fill="#C0C0C0"/>
<path d="M196.003 169.229C195.773 171.516 195.704 173.815 195.794 176.111C195.794 176.737 195.794 177.779 196.213 178.197C196.423 178.405 196.841 178.405 196.841 178.197C197.261 177.572 197.051 176.737 197.051 175.903C197.139 173.601 196.999 171.295 196.632 169.021C196.632 168.604 196.003 168.813 196.003 169.229Z" fill="#C0C0C0"/>
<path d="M206.475 175.484C206.414 173.305 206.134 171.138 205.637 169.015C205.505 168.588 205.116 168.769 205.009 169.223C204.843 169.976 204.772 170.747 204.799 171.517C204.799 173.736 204.658 174.996 204.799 175.83C204.805 176.193 204.882 176.551 205.027 176.884C205.172 177.217 205.381 177.519 205.643 177.771C205.679 177.82 205.727 177.859 205.781 177.886C205.836 177.914 205.896 177.928 205.957 177.928C206.018 177.928 206.078 177.914 206.132 177.886C206.187 177.859 206.234 177.82 206.271 177.771C206.685 177.153 206.475 176.318 206.475 175.484Z" fill="#C0C0C0"/>
<path d="M180.294 171.732C180.294 172.775 180.084 173.817 180.084 174.86V177.154C180.084 177.572 180.504 177.78 180.922 177.78C182.426 177.78 181.271 174.078 180.922 171.941C180.816 171.29 180.294 171.524 180.294 171.732Z" fill="#C0C0C0"/>
<path d="M141.755 80.181C140.862 79.9871 139.945 79.9169 139.032 79.9721C134.63 80.0765 130.026 79.5556 125.627 80.181C124.176 80.4509 122.853 81.1826 121.857 82.266C120.999 83.371 120.533 84.7282 120.533 86.125C120.533 87.5217 120.999 88.8789 121.857 89.984C124.447 93.3129 130.122 92.069 136.1 92.069C137.774 91.9645 139.453 91.9645 141.127 92.069C141.257 92.0555 141.377 91.9947 141.464 91.8984C141.551 91.8021 141.599 91.6771 141.599 91.5474C141.599 91.4178 141.551 91.2927 141.464 91.1964C141.377 91.1001 141.257 91.0394 141.127 91.0259C139.872 90.9289 138.611 90.9289 137.356 91.0259C135.892 91.2529 134.214 91.2347 132.748 91.4436C128.326 91.4436 126.013 91.6649 124.161 90.6093C123.042 89.9003 122.243 88.7876 121.931 87.5047C121.618 86.2217 121.817 84.8682 122.485 83.7278C123.739 81.6417 126.255 81.2252 128.56 81.2252C132.12 81.0163 135.682 81.4329 139.242 81.2252C140.155 81.2596 141.068 81.1895 141.965 81.0163C141.963 80.5986 141.963 80.3898 141.755 80.181Z" fill="#C0C0C0"/>
<path d="M170.12 81.385C170.072 81.6776 170.042 81.9728 170.03 82.2691C170.03 84.1805 169.964 84.4971 170.24 84.7718C170.625 85.1554 171.078 84.2043 171.078 83.9376C171.152 83.0909 171.106 82.2381 170.941 81.4043C170.866 81.1534 170.176 81.074 170.12 81.385Z" fill="#C0C0C0"/>
<path d="M98.3949 141.286C98.606 141.593 98.8862 141.848 99.2133 142.028C99.5405 142.209 99.9055 142.312 100.279 142.328C101.327 142.328 101.533 142.953 100.907 143.371C100.433 143.608 99.8853 143.653 99.378 143.498C98.8708 143.342 98.4434 142.998 98.1851 142.536C97.4624 141.412 97.557 140.451 98.3949 141.286Z" fill="#C0C0C0"/>
<path d="M95.8834 128.359C95.5523 128.316 95.2158 128.372 94.9171 128.521C94.6185 128.669 94.3713 128.903 94.2076 129.193C93.5794 130.027 93.055 129.838 93.1599 128.984C93.1894 128.459 93.4263 127.968 93.8189 127.616C94.2115 127.264 94.7279 127.082 95.2552 127.108C96.727 127.105 96.9299 128.147 95.8834 128.359Z" fill="#C0C0C0"/>
<path d="M96.7188 132.527C97.6443 132.527 98.3946 132.06 98.3946 131.484C98.3946 130.908 97.6443 130.441 96.7188 130.441C95.7933 130.441 95.043 130.908 95.043 131.484C95.043 132.06 95.7933 132.527 96.7188 132.527Z" fill="#C0C0C0"/>
</g>
<defs>
<filter id="filter0_b_552_2686" x="-20" y="-20" width="323" height="345" filterUnits="userSpaceOnUse" color-interpolation-filters="sRGB">
<feFlood flood-opacity="0" result="BackgroundImageFix"/>
<feGaussianBlur in="BackgroundImageFix" stdDeviation="10"/>
<feComposite in2="SourceAlpha" operator="in" result="effect1_backgroundBlur_552_2686"/>
<feBlend mode="normal" in="SourceGraphic" in2="effect1_backgroundBlur_552_2686" result="shape"/>
</filter>
</defs>
</svg>
