<svg width="209" height="151" viewBox="0 0 209 151" fill="none" xmlns="http://www.w3.org/2000/svg">
<g filter="url(#filter0_b_552_2825)">
<rect width="209" height="151" rx="25" fill="#9772FF" fill-opacity="0.1"/>
<rect x="0.5" y="0.5" width="208" height="150" rx="24.5" stroke="#424242"/>
<path d="M99.8111 78.5875C99.8111 128.51 100.026 126.304 99.3105 128.298C98.8446 129.739 97.9831 131.02 96.8245 131.995C95.534 133.156 93.9923 134.002 92.32 134.468C91.9382 134.556 71.5943 138.171 50.9429 141.061C43.1738 142.148 38.0322 141.762 38.6364 131.512C38.6407 131.44 36.688 37.1954 36.6844 37.1232C36.4707 30.1325 36.6519 23.1354 37.2271 16.1651C37.6132 11.8658 41.1524 10.1498 45.386 9.52133C48.9016 9.00081 87.7776 15.8762 92.3336 17.7853C93.9561 18.5531 95.3182 19.7792 96.2518 21.3124C99.9526 26.6706 98.8866 34.0594 98.9452 38.7162C99.0403 46.2237 99.0553 37.6344 99.9305 78.5782C99.8912 78.5864 99.8511 78.5896 99.8111 78.5875ZM39.8697 127.059C39.9033 134.837 38.4276 140.903 47.2871 140.181C58.2753 139.287 81.0173 134.837 88.9588 134.118C94.5937 133.607 99.2348 130.61 99.1833 125.043C98.78 80.2384 99.3263 89.9817 98.5341 51.1422C98.4368 46.3588 98.3045 41.5748 98.2166 36.7914C98.1051 30.7139 98.9144 26.3474 95.5968 21.464C93.3231 18.1185 89.8811 17.249 84.4729 16.4275C62.2957 13.0584 50.4811 10.2821 46.3719 10.6446C43.4404 10.9034 38.5334 12.7238 38.2924 15.4558C36.8624 31.5319 39.8654 125.935 39.8697 127.059Z" fill="#C0C0C0"/>
<path d="M109.033 78.3714C110.4 29.5126 109.984 46.7777 109.954 32.768C109.942 27.3712 111.161 21.2751 115.691 18.3522C119.715 15.756 160.169 9.05717 163.596 9.52192C166.995 9.98524 171.132 11.6433 171.584 15.0274C171.84 16.9579 172.095 18.8948 172.163 20.8382C172.82 39.4404 172.068 36.9 171.984 42.5742C171.912 47.2217 172.123 64.4311 171.769 79.7385C171.441 93.8955 170.522 117.749 170.282 127.207C170.211 130.107 170.841 132.758 169.873 136.921C169.135 140.093 166.673 141.615 163.547 141.502C158.805 141.232 154.083 140.676 149.408 139.836C130.811 136.897 146.401 139.499 125.866 136.015C116.706 134.46 116.523 134.683 114.292 133.464C112.978 132.825 111.839 131.877 110.974 130.7C110.108 129.524 109.542 128.154 109.324 126.71C109.206 125.923 109.241 129.403 109.241 78.38C109.166 78.3764 109.102 78.3764 109.033 78.3714ZM170.756 75.9819C170.728 75.9826 170.7 75.9812 170.673 75.9776C170.737 71.5024 170.862 67.0315 170.852 62.5563C170.773 25.4049 171.794 43.9663 170.834 16.4188C170.825 15.6655 170.622 14.9273 170.244 14.2758C169.865 13.6244 169.325 13.0818 168.675 12.7008C165.925 10.9201 162.618 10.2108 159.38 10.7074C153.834 11.3509 146.491 12.7845 138.583 14.1394C123.933 16.6548 122.296 16.5268 119.043 17.6708C115.325 18.9778 114.236 19.4583 112.215 23.656C110.392 27.4455 110.851 30.8446 110.696 40.5672C109.78 97.7672 110.106 56.9236 109.858 125.071C109.804 126.307 110.051 127.537 110.579 128.656C111.107 129.775 111.899 130.749 112.887 131.494C114.647 132.905 116.77 133.79 119.011 134.044C129.54 135.162 122.315 134.594 151.973 138.984C155.856 139.651 159.777 140.072 163.713 140.246C166.556 140.306 168.691 138.355 168.893 136.438C169.477 130.9 169.112 127.95 169.146 122.829C169.165 120.423 168.819 132.722 170.756 75.9819Z" fill="#C0C0C0"/>
<path d="M44.6561 128.184C44.3429 124.08 43.9097 114.583 43.3162 105.577C42.4082 91.7943 42.6913 85.3686 42.1722 41.9717C42.0728 33.7527 42.7363 27.4128 42.8808 24.9275C51.7375 26.858 67.0664 27.7496 93.8603 30.862C94.8827 30.9807 94.8556 31.0093 94.9149 32.0546C95.858 48.6655 95.6299 65.2964 95.8172 81.9216C95.9459 93.3051 96.1254 119.634 96.1254 121.241C87.2451 122.412 88.856 122.077 78.6079 123.221C48.6308 126.566 47.5941 128.347 44.6561 128.184ZM92.1321 88.5217L92.0213 87.0159C93.0344 87.3427 94.0426 87.663 95.1015 88.0034C95.1015 87.9319 94.8305 46.291 94.2542 32.3306C94.2364 31.8844 94.1027 31.7407 93.6701 31.7C75.4376 29.984 54.2293 28.1479 43.8303 25.9585C43.7588 26.2531 43.4077 35.8842 43.4113 39.7251C43.417 46.0279 43.8853 55.9821 43.8853 94.4941C44.215 94.5885 43.8853 94.6128 45.3633 93.7248C46.7639 92.8832 48.1696 92.0517 49.5696 91.2137C50.5227 91.4346 51.4729 91.6484 52.4296 91.8694C49.6435 92.9572 46.9827 94.3417 44.4931 95.9992C44.3478 96.0731 44.2298 96.1915 44.1562 96.337C44.0827 96.4825 44.0574 96.6477 44.0841 96.8086C44.2536 99.64 44.3837 102.472 44.5403 105.299C45.868 129.263 45.6407 124.169 45.6407 126.947C75.3218 121.71 74.1542 122.837 95.3189 120.451C95.3189 107.399 95.404 117.71 95.1301 89.9625C95.1265 89.5942 95.0801 89.3626 94.6511 89.2582C93.8038 89.0501 92.9694 88.7748 92.1321 88.5217Z" fill="#C0C0C0"/>
<path d="M65.4099 132.56C64.0514 131.803 64.3374 128.563 67.5234 128.297C69.9037 128.098 72.2889 127.933 74.6734 127.753C77.1259 127.569 77.517 130.179 75.7788 131.322C74.0407 132.464 66.7698 133.317 65.4099 132.56ZM69.1165 132.022C71.195 131.742 73.6631 131.546 75.5622 130.76C75.7571 130.696 75.9326 130.584 76.0724 130.433C76.2123 130.283 76.3118 130.1 76.3617 129.901C76.4117 129.702 76.4105 129.494 76.3582 129.295C76.3059 129.097 76.2042 128.915 76.0627 128.766C75.382 128.073 75.0974 128.3 67.4827 128.887C65.2512 129.058 64.3967 131.875 66.6175 132.017C67.3533 132.064 68.0897 132.022 69.1165 132.022Z" fill="#C0C0C0"/>
<path d="M67.793 20.9259C67.793 20.7829 67.803 18.6508 69.9322 18.6508C72.9817 18.6508 73.8547 24.2363 70.6737 24.2363C70.0381 24.2356 67.793 24.0554 67.793 20.9259ZM70.1861 19.3443C69.719 19.39 69.2853 19.6068 68.9685 19.9531C68.6517 20.2993 68.4742 20.7505 68.4701 21.2198C68.4701 21.2712 68.5144 23.6236 70.5822 23.6236C73.1026 23.6236 72.286 19.3443 70.1861 19.3443Z" fill="#C0C0C0"/>
<path d="M164.361 128.174C164.023 128.198 163.685 128.195 163.348 128.165C157.127 127.088 150.935 125.849 144.686 124.965C135.909 123.722 130.955 123.535 114.142 121.397C112.913 121.24 112.919 121.199 112.922 119.951C112.988 95.2609 113.551 31.8189 114.276 31.0053C114.49 30.7657 115.068 30.8537 115.487 30.8072C138.639 28.226 140.122 28.3433 158.632 26.1983C160.694 25.9595 162.739 25.5548 164.788 25.2173C165.23 25.1458 165.662 25.0243 166.16 24.9135C166.196 25.4297 166.219 25.843 166.261 26.2534C167.329 36.806 166.659 47.3723 166.574 57.9343C166.359 84.4608 166.913 87.5496 165.418 110.43C164.904 118.33 164.591 126.446 164.361 128.174ZM114.168 95.4268C113.959 95.6716 113.839 95.9797 113.827 96.3012C113.822 97.358 113.667 118.046 113.721 119.119C116.156 116.716 118.44 114.303 121.419 112.705C120.438 110.889 119.334 109.404 120.263 105.302C122.497 95.4453 127.62 86.7123 127.386 86.5958C127.385 86.7416 121.083 87.7334 114.167 95.4253L114.168 95.4268ZM138.602 58.5328C138.449 58.4396 138.271 58.3964 138.093 58.4092C137.914 58.422 137.745 58.4902 137.607 58.6043C136.642 59.2427 135.656 59.3085 135.024 58.6414C134.811 58.4391 134.552 58.2909 134.269 58.2092C133.986 58.1275 133.688 58.1146 133.399 58.1717C133.757 59.2442 133.464 59.6696 132.322 59.7833C132.232 59.8107 132.15 59.8576 132.081 59.9205C132.012 59.9834 131.957 60.0608 131.921 60.1472C131.64 60.8622 131.272 61.638 130.452 61.5772C129.865 61.5606 129.295 61.7777 128.868 62.1807C128.693 62.3044 128.459 62.3466 128.279 62.4667C128.155 62.5496 127.993 62.7155 127.998 62.8349C128.299 69.1426 127.822 73.7744 131.783 76.3069C132.896 76.9439 134.05 77.5082 135.236 77.9965C135.641 78.186 135.988 78.4012 135.982 78.9081C135.964 80.3767 135.948 81.8503 135.89 83.3189C135.845 84.4465 132.79 85.1844 131.944 85.4504C132.945 86.0445 133.617 87.0713 136.971 87.1664C138.965 87.2144 140.949 86.8573 142.801 86.1167C143.763 85.7392 144.679 85.2466 145.614 84.804C145.549 84.5681 142.633 83.793 142.561 83.773C142.371 83.7325 142.204 83.6214 142.093 83.4621C141.981 83.3028 141.935 83.1072 141.963 82.915C142.015 78.1302 141.973 79.7289 142.05 78.339C139.789 79.099 139.404 79.1405 138.887 78.625C139.173 78.4691 139.43 78.3082 139.706 78.1881C140.35 77.9085 141.005 77.6762 141.631 77.3687C145.435 75.5011 146.549 73.123 147.494 68.9567C148.258 69.325 148.963 69.6796 149.741 69.182C149.705 69.1356 149.676 69.0846 149.653 69.0304C149.221 68.2618 149.725 68.1881 150.21 68.3998C150.452 68.4319 150.551 68.8473 151.025 68.4641C153.12 66.771 150.998 63.7987 148.963 65.0435C148.835 65.1282 148.691 65.1854 148.54 65.2115C148.388 65.2376 148.234 65.232 148.085 65.1952C147.936 65.1584 147.796 65.0911 147.675 64.9975C147.553 64.904 147.453 64.7862 147.379 64.6517C147.242 64.336 147.143 64.0053 147.084 63.6665C145.717 63.8137 145.413 63.5006 145.154 61.5765C144.346 61.5765 143.519 61.6187 142.819 60.8901C142.018 60.0557 142.176 59.1741 142.272 58.1602C141.17 58.9296 140.155 59.3471 138.601 58.532L138.602 58.5328ZM165.212 25.9166C164.315 26.1311 163.486 26.4042 162.638 26.5201C147.272 28.62 155.545 27.6762 115.501 31.6766C115.001 31.7267 114.792 31.8468 114.778 32.4224C114.673 36.801 114.465 41.1797 114.405 45.5627C114.405 45.6342 113.785 93.4362 113.876 94.0711C114.246 94.277 117.143 89.2463 125.188 86.1754C131.015 83.951 131.996 84.8412 134.714 83.1645C134.791 83.1002 134.854 83.0201 134.898 82.9296C134.941 82.839 134.965 82.7402 134.967 82.6397C134.967 81.5894 134.871 80.5397 134.921 79.4937C134.949 78.9217 134.723 78.7437 134.259 78.5585C132.71 78.0732 131.274 77.2861 130.032 76.2426C129.954 76.1919 129.868 76.1572 129.777 76.1407C129.686 76.1241 129.593 76.1259 129.502 76.1461C128.797 76.236 128.081 76.1371 127.426 75.8596C126.772 75.5821 126.203 75.136 125.777 74.5666C125.156 73.6457 124.909 72.5223 125.088 71.4256C125.266 70.329 125.857 69.3419 126.738 68.6657C126.905 68.5005 127.004 68.2788 127.015 68.0444C127.052 66.2991 127.059 64.5495 127.056 62.8049C127.055 62.716 127.035 62.6284 126.998 62.5475C126.961 62.4667 126.908 62.3944 126.842 62.3351C125.402 61.3241 126.261 60.4697 126.198 59.7297C126.108 59.153 126.05 58.5718 126.023 57.9886C126.007 56.4504 126.324 54.9268 126.953 53.5227C126.553 53.5242 126.165 53.3876 125.855 53.136C125.544 52.8844 125.33 52.5333 125.249 52.1421C125.082 51.2026 125.829 50.765 126.455 50.3095C125.258 48.0165 126.018 46.4235 127.468 45.8851C127.283 45.2263 127.271 44.5307 127.434 43.866C127.597 43.2013 127.929 42.59 128.398 42.0913C128.782 41.5239 129.333 41.0896 129.975 40.848C130.616 40.6064 131.317 40.5694 131.98 40.7421C132.48 38.8402 133.918 38.1495 135.594 37.9286C136.411 37.8572 137.234 37.9605 138.008 38.2317C138.782 38.5029 139.489 38.9358 140.083 39.5016C141.178 38.2146 142.14 38.0616 143.55 38.9117C144.556 39.4589 145.359 40.3166 145.838 41.357C147.118 40.5605 148.198 40.7235 149.332 41.8675C150.018 42.5734 150.45 43.4866 150.562 44.4644C150.705 45.4954 150.12 46.2419 149.429 47.0198C149.876 46.8729 150.357 46.8679 150.806 47.0055C151.255 47.1432 151.651 47.4167 151.938 47.7885C152.25 48.1318 152.425 48.578 152.428 49.0419C152.432 49.5057 152.264 49.9545 151.957 50.3024C152.306 50.4571 152.616 50.6867 152.866 50.9748C153.116 51.263 153.299 51.6026 153.403 51.9696C153.506 52.3366 153.528 52.722 153.466 53.0983C153.404 53.4746 153.26 53.8326 153.044 54.1469C153.38 54.4095 153.63 54.7657 153.763 55.1705C153.897 55.5753 153.907 56.0106 153.794 56.4214C153.691 56.8177 153.445 57.162 153.103 57.3881C152.762 57.6142 152.349 57.7061 151.943 57.6462C151.943 60.2066 150.648 60.4053 150.728 60.7922C150.937 61.8956 150.822 63.0362 150.396 64.0754C153.062 64.7339 153.481 67.1142 151.349 69.3607C151.751 69.9385 152.001 70.6071 152.079 71.3062C152.157 72.0053 152.06 72.7128 151.795 73.3647C151.581 74.0778 151.112 74.6874 150.479 75.0785C149.845 75.4695 149.09 75.6148 148.356 75.4868C147.674 75.278 147.011 75.0083 146.376 74.681C145.495 75.8889 144.386 76.9133 143.112 77.6969C142.755 77.9114 142.904 78.4448 142.942 81.9376C142.952 82.8077 142.933 82.8356 143.8 83.0379C152.244 85.0092 155.202 85.0657 165.196 90.948C165.196 85.9752 165.377 59.774 165.513 48.5349C165.661 36.6344 165.792 37.8657 165.212 25.9166ZM155.481 87.5131C154.468 87.0763 156.393 87.709 148.184 85.3124C146.211 84.7361 147.54 85.5183 144.045 87.0205C141.358 88.2725 138.367 88.7217 135.43 88.3139C131.194 87.6404 131.201 85.5462 130.559 85.6484C129.53 85.8121 128.608 86.0674 128.137 87.2043C126.621 90.8708 123.275 97.1885 121.37 105.699C121.098 106.686 121.029 107.717 121.166 108.732C121.302 109.746 121.643 110.722 122.167 111.601C124.284 115.063 124.407 116.64 125.039 121.224C125.209 122.455 124.951 120.593 156.03 125.57C157.572 121.209 158.52 116.735 159.754 112.375C158.319 111.733 157.016 110.83 155.91 109.714C152.386 106.034 151.984 100.457 152.493 95.4139C152.688 92.5432 153.728 89.7942 155.481 87.5131ZM159.538 111.045C158.846 109.808 158.567 109.471 158.258 108.844C158.179 108.683 158.299 108.425 158.329 108.209C158.527 108.255 158.776 108.24 158.918 108.356C159.193 108.574 159.428 108.837 159.614 109.134C163.332 115.345 162.654 114.325 163.729 116.588C163.877 115.69 163.571 118.885 165.124 92.9736C165.143 92.8207 165.114 92.6659 165.041 92.53C164.969 92.3941 164.857 92.2837 164.72 92.2135C162.284 90.6679 159.733 89.3104 157.091 88.1531C156.945 88.0623 156.77 88.0317 156.603 88.0677C156.435 88.1037 156.288 88.2036 156.193 88.3461C153.652 91.1503 153.358 96.505 153.554 100.299C153.6 103.074 154.456 105.775 156.017 108.07C156.832 109.421 158.068 110.467 159.536 111.047L159.538 111.045ZM163.318 126.948C163.611 119.834 163.664 119.983 163.479 119.484C162.742 117.27 161.812 115.125 160.698 113.075C159.658 117.458 158.767 121.708 157.134 125.778C159.186 126.171 161.221 126.552 163.315 126.95L163.318 126.948ZM124.045 121.606C123.594 118.802 123.473 116.012 121.895 113.598C119.059 115.618 116.449 117.937 114.109 120.514C117.486 120.886 120.742 121.245 124.043 121.609L124.045 121.606ZM146.968 52.4388C146.804 52.6756 146.607 52.8879 146.384 53.0694C146.217 53.163 146.086 53.3077 146.009 53.482C145.931 53.6563 145.912 53.8509 145.955 54.0368C146.022 54.8719 145.766 55.7009 145.24 56.3527C144.999 56.6086 144.735 56.8426 144.453 57.052C146.829 58.7744 148.648 60.7907 149.53 63.6593C149.631 63.4262 149.718 63.1875 149.792 62.9443C149.963 62.2931 149.996 61.6136 149.89 60.9489C149.783 60.2842 149.54 59.6489 149.175 59.0833C149.059 58.8762 148.957 58.6612 148.871 58.4398C149.788 58.4906 149.967 59.2735 150.423 59.7704C151.206 58.4584 151.296 57.5539 150.637 56.4921C149.842 55.2252 148.965 53.4076 146.966 52.441L146.968 52.4388ZM138.965 57.9386C139.328 57.9708 139.669 58.0301 140.005 58.0301C140.333 58.0557 140.662 58.005 140.966 57.882C141.271 57.7591 141.543 57.5672 141.761 57.3214C141.98 57.0756 142.138 56.7827 142.224 56.4655C142.31 56.1483 142.321 55.8155 142.257 55.4933C142.031 53.7773 141.266 52.1743 139.623 51.5894C137.979 51.0045 137.057 51.3634 137.141 53.3483C137.15 53.699 137.243 54.0425 137.413 54.3493C138.826 56.6881 139.713 56.6201 138.965 57.9386ZM144.158 47.7491L144.269 47.5975C141.44 45.2645 135.927 44.616 135.378 47.812C135.323 48.2487 135.314 48.6898 135.35 49.1284C135.37 49.6353 136.359 50.1179 136.74 49.7919C138.583 48.2189 140.784 48.7051 141.16 48.452C142.052 47.8869 143.108 47.6393 144.158 47.7491ZM137.289 50.2309C137.634 50.7235 137.638 50.7564 138.21 50.6456C140.512 50.198 143.487 53.033 143.057 56.6723C143.432 56.5236 143.771 56.2984 144.053 56.0112C144.336 55.7241 144.555 55.3812 144.698 55.0044C144.84 54.6277 144.903 54.2254 144.881 53.8232C144.86 53.4209 144.755 53.0276 144.572 52.6683C143.289 49.7397 140.443 48.7072 137.289 50.2309ZM130.295 53.6793C130.205 54.108 130.213 54.5514 130.32 54.9762C130.426 55.401 130.627 55.7963 130.908 56.1322C131.189 56.4681 131.543 56.7359 131.942 56.9155C132.341 57.0951 132.776 57.1819 133.214 57.1692C134.766 57.2407 135.837 57.2686 136.847 56.0967C136.944 55.9839 137.014 55.8505 137.051 55.7067C137.089 55.5629 137.094 55.4123 137.065 55.2664C137.036 55.1206 136.975 54.9831 136.885 54.8645C136.795 54.7459 136.68 54.6492 136.547 54.5817C136.005 54.3286 135.418 54.1872 134.82 54.1659C134.222 54.1447 133.625 54.244 133.067 54.458C132.834 54.5917 132.559 54.6313 132.298 54.5687C132.037 54.5061 131.809 54.346 131.662 54.1212C131.376 53.7952 131.116 53.8366 130.295 53.6793ZM148.027 70.3789C147.818 71.6209 147.447 72.83 146.921 73.9746C148.717 74.9134 150.19 74.4251 150.826 72.6876C150.966 72.2865 151.018 71.8597 150.976 71.4368C150.935 71.0138 150.802 70.605 150.586 70.2387C150.521 70.1689 150.441 70.115 150.351 70.0814C150.262 70.0478 150.166 70.0353 150.071 70.045C149.415 70.1222 148.767 70.2545 148.03 70.3789H148.027ZM134.71 49.6003C134.493 49.0158 134.413 48.3887 134.479 47.7684C134.544 47.148 134.753 46.5513 135.088 46.0253C133.774 46.4716 132.596 47.2467 131.667 48.2768C131.226 48.7095 130.891 49.2388 130.69 49.8229C130.489 50.4069 130.426 51.0298 130.507 51.6423C130.51 51.9017 130.571 52.1572 130.685 52.3898C130.8 52.6225 130.966 52.8264 131.17 52.9865C131.304 51.106 131.994 49.8026 134.71 49.6003ZM136.432 53.5135C136.357 53.0606 136.387 52.5967 136.519 52.1571C136.65 51.7175 136.881 51.3137 137.192 50.9766C136.316 50.5687 135.339 50.428 134.384 50.5719C133.845 50.6345 133.327 50.8136 132.864 51.0968C132.018 51.7467 131.925 52.7677 132.45 53.9467C133.642 52.7169 135.019 53.0859 136.432 53.5135ZM129.926 56.3313C129.903 56.2812 129.833 56.1518 129.773 56.0181C129.555 55.632 129.434 55.1988 129.419 54.7556C129.405 54.3123 129.498 53.8722 129.69 53.4727C129.789 53.319 129.833 53.1364 129.815 52.9546C129.796 52.7728 129.717 52.6026 129.59 52.4717C129.43 52.6246 129.251 52.7548 129.056 52.8585C128.5 53.0604 128.019 53.4285 127.68 53.9128C127.341 54.3971 127.159 54.9741 127.159 55.5655C127.059 56.5551 126.965 57.5403 126.855 58.6135C127.961 57.7913 128.923 57.0727 129.922 56.3313H129.926ZM127.145 69.3793C125.985 70.7743 125.751 72.1785 126.463 73.6479C126.963 74.6739 127.918 74.9963 129.101 75.1258C127.703 73.4176 127.525 71.3963 127.141 69.3793H127.145ZM145.699 52.501C146.032 52.1353 146.224 51.6631 146.241 51.1688C146.258 50.6745 146.099 50.1902 145.792 49.8026C145.398 49.2965 144.847 48.9352 144.226 48.7753C143.605 48.6154 142.949 48.6659 142.36 48.9189C143.125 49.2648 143.815 49.7597 144.388 50.3747C144.96 50.9897 145.405 51.7125 145.696 52.501H145.699ZM135.403 58.0859C135.971 58.196 136.559 58.1255 137.085 57.8842C137.611 57.643 138.048 57.2432 138.335 56.741C138.132 56.5265 137.93 56.3041 137.709 56.0689C137.274 57.1099 136.994 57.3537 135.401 58.0859H135.403Z" fill="#C0C0C0"/>
<path d="M142.269 132.939C138.328 132.357 133.431 132.734 132.343 130.217C132.211 129.961 132.148 129.676 132.159 129.388C132.171 129.101 132.256 128.821 132.407 128.576C132.558 128.331 132.77 128.13 133.021 127.99C133.273 127.851 133.557 127.779 133.844 127.782C134.936 127.771 133.871 127.802 141.381 128.282C144.665 128.493 145.028 131.72 143.651 132.537C143.211 132.733 142.746 132.868 142.269 132.939ZM134.516 128.303C132.349 128.167 132.211 130.061 133.347 130.701C133.702 130.889 134.08 131.033 134.47 131.13C137.07 131.799 139.751 132.101 142.435 132.028C143.802 132.015 143.786 131.09 143.54 130.205C143.423 129.785 142.825 128.977 141.316 128.856C135.193 128.363 134.865 128.367 134.516 128.303Z" fill="#C0C0C0"/>
<path d="M139.093 18.6284C140.259 18.6284 141.375 19.5658 141.252 20.6304C141.181 24.3927 138.628 24.2576 138.535 24.2576C138.048 24.2576 136.373 24.239 136.373 21.9103C136.372 19.9369 137.867 18.6284 139.093 18.6284ZM138.467 23.6284C140.153 23.6284 140.549 22.0554 140.549 21.2117C140.568 20.7417 140.401 20.2831 140.085 19.9346C139.769 19.5861 139.329 19.3756 138.86 19.3484C136.706 19.3484 135.988 23.6284 138.464 23.6284H138.467Z" fill="#C0C0C0"/>
<path d="M55.8365 29.5544C54.8027 29.2856 47.0935 28.6121 47.0149 28.6063C46.5959 28.5742 46.7038 30.5082 46.6974 41.7967C46.6974 42.6854 46.6924 42.7126 47.5626 42.6947C50.3024 42.6382 53.0416 42.5653 55.7851 42.4967C56.5215 42.4781 56.6309 42.4001 56.6366 41.6773C56.6648 37.9988 56.6862 34.3202 56.701 30.6412C56.701 29.8311 56.6245 29.7596 55.8365 29.5544ZM47.747 42.0777C47.747 39.114 47.4003 39.0225 49.1234 37.8377C49.2787 37.7443 49.4439 37.6685 49.616 37.6118C49.6453 37.5996 49.6779 37.598 49.7081 37.6072C49.7384 37.6165 49.7645 37.6361 49.7819 37.6625C49.9934 38.0349 50.1016 38.457 50.0952 38.8851C50.0888 39.3133 49.968 39.732 49.7455 40.0978C49.6125 40.2608 49.1899 40.3331 49.2757 40.3331C49.3029 40.1858 49.3358 40.0385 49.3629 39.8912C49.2199 39.9319 49.0054 39.9319 48.9489 40.0292C48.6465 40.5662 47.8807 41.9354 47.747 42.0777ZM49.3679 41.9676C49.0039 42.0073 48.6381 42.0288 48.2718 42.0319C48.4275 41.6824 48.6139 41.3474 48.8288 41.0309C48.8288 41.0309 49.3815 41.9397 49.3679 41.9683V41.9676ZM53.5528 41.5529C53.5056 41.6873 53.7287 41.5664 49.6575 41.8246C49.6289 41.8265 49.6004 41.8191 49.5763 41.8033C49.5523 41.7876 49.5341 41.7644 49.5245 41.7373C49.3815 41.3183 49.3222 41.259 49.423 41.1803C50.8065 40.0971 51.016 39.237 50.3668 37.1763C50.6528 37.1048 50.7958 36.9854 51.0389 37.1048C51.8383 37.4895 52.6963 37.6661 53.4148 37.0219C53.5207 37.2707 53.6136 37.4509 53.6772 37.6525C53.8202 38.0894 53.9053 38.542 54.0734 38.9696C54.2139 39.2697 54.2669 39.6034 54.2262 39.9322C54.1854 40.2611 54.0527 40.5718 53.8431 40.8286C53.7105 41.054 53.6127 41.2982 53.5528 41.5529ZM50.321 33.7901C50.3847 33.7596 50.4561 33.7491 50.5259 33.7598C50.5956 33.7705 50.6605 33.802 50.7121 33.8502C50.7749 33.9205 50.8529 33.9755 50.9402 34.0112C51.0275 34.0469 51.1217 34.0622 51.2158 34.056C51.3099 34.0498 51.4013 34.0222 51.4832 33.9754C51.565 33.9286 51.6351 33.8638 51.6881 33.7858C51.8554 33.4998 52.2601 33.3568 52.5461 33.1552C52.6984 33.3161 52.7949 33.5127 52.9379 33.5513C53.1026 33.5697 53.2542 33.6496 53.3625 33.775C53.4708 33.9004 53.5278 34.0621 53.5221 34.2277C53.5514 34.7525 53.6787 35.263 53.1646 35.554C52.7177 35.8064 52.5926 36.0052 52.7506 36.698C52.9651 37.6511 51.5759 37.0205 51.5759 37.0205C51.4615 37.0298 51.5115 36.1868 51.5115 36.1868C51.5254 36.142 51.5301 36.0948 51.5254 36.0482C51.5208 36.0015 51.5068 35.9563 51.4843 35.9151C51.2899 35.672 51.3635 35.7592 51.139 35.4825C50.9929 35.2078 50.8831 34.9153 50.8122 34.6123C50.7793 34.5408 50.3604 34.4929 50.2638 34.3406C50.1266 34.1226 50.1916 33.8044 50.321 33.7901ZM50.1323 33.4633C50.1141 33.2322 50.1079 33.0002 50.1137 32.7684C50.4011 32.8577 50.7061 32.8746 51.0016 32.8176C51.2971 32.7606 51.574 32.6314 51.8075 32.4416C51.9269 32.3332 52.0798 32.269 52.2408 32.2597C52.4017 32.2505 52.561 32.2968 52.692 32.3908C53.038 32.6053 53.4742 32.3551 53.7323 32.3908C54.0405 32.4337 53.8517 33.1645 53.8338 33.1502C53.5545 32.9829 53.2202 32.9333 52.9043 33.0122C52.7541 33.0802 52.5911 33.1158 52.4262 33.1167C52.2612 33.1176 52.0979 33.0837 51.9469 33.0172C51.9048 32.9936 50.1823 33.4912 50.1323 33.4633ZM55.1659 41.7788L54.3079 41.7001C54.2875 41.698 54.2679 41.6913 54.2505 41.6806C54.233 41.6698 54.2183 41.6553 54.2072 41.6381C54.1962 41.6208 54.1891 41.6013 54.1866 41.581C54.1841 41.5607 54.1862 41.5401 54.1928 41.5207L54.423 40.8808C54.4309 40.859 54.4443 40.8397 54.4618 40.8246C54.4793 40.8095 54.5005 40.7992 54.5231 40.7946C54.5458 40.79 54.5693 40.7913 54.5913 40.7984C54.6133 40.8054 54.6332 40.818 54.6489 40.835L55.2753 41.55C55.2941 41.5699 55.3065 41.5951 55.3108 41.6223C55.3151 41.6494 55.311 41.6772 55.2992 41.702C55.2873 41.7267 55.2682 41.7473 55.2444 41.7611C55.2206 41.7748 55.1933 41.781 55.1659 41.7788ZM55.6449 41.028C55.2395 40.6319 54.7683 40.4482 54.8255 39.7346C54.7671 39.1904 54.6144 38.6606 54.3744 38.1688C54.31 37.9614 54.25 37.7548 54.1599 37.4538C55.8694 38.1845 55.6478 39.124 55.6478 41.028H55.6449ZM55.8337 31.2855C55.8187 32.0055 55.7093 36.811 55.6356 37.8098C54.1692 36.2897 52.8421 36.6265 52.8636 36.2862C52.8765 36.1713 52.9328 36.0657 53.0209 35.9909C53.1452 35.8931 53.2761 35.804 53.4127 35.7242C53.5044 35.6709 53.5845 35.5999 53.6485 35.5153C53.7125 35.4307 53.7589 35.3343 53.7852 35.2315C53.8296 34.8614 53.813 34.4866 53.7359 34.1219C53.6701 33.7951 53.8217 33.9074 53.911 33.597C54.0329 33.1596 54.045 32.6988 53.9462 32.2556C53.8474 31.8123 53.6408 31.4003 53.3448 31.0559C53.1188 30.7978 52.8335 31.1989 52.7184 30.9844C52.6783 30.8896 52.6129 30.8076 52.5293 30.7474C52.4456 30.6872 52.3471 30.6513 52.2444 30.6434C51.5902 30.6963 51.7282 30.8772 51.4157 30.943C51.1576 30.9973 50.8988 30.7714 50.6928 30.9244C50.4476 31.1067 50.4733 31.5514 50.3289 31.7945C49.8162 32.6597 49.9843 32.7777 49.9793 33.0815C49.9823 33.3013 50.0326 33.5178 50.1266 33.7165C50.1745 33.823 49.7748 34.2842 50.5084 34.6746C50.7014 34.7768 50.685 35.2072 50.7944 35.3896C50.9446 35.5861 51.1077 35.7724 51.2827 35.9473C51.4336 36.1503 51.2691 36.4163 51.2319 36.5457C50.0157 36.7363 48.8718 37.2463 47.9172 38.0236C47.8293 38.1015 47.7792 29.6667 47.7792 29.6667C47.7786 29.6474 47.7823 29.6283 47.79 29.6106C47.7977 29.593 47.8092 29.5772 47.8237 29.5645C47.8382 29.5518 47.8553 29.5425 47.8738 29.5371C47.8923 29.5318 47.9118 29.5306 47.9308 29.5337C55.8094 30.7428 55.8701 29.6581 55.8365 31.2855H55.8337Z" fill="#C0C0C0"/>
<path d="M88.3047 45.9914C87.8163 46.5848 87.2737 47.1282 86.7396 47.6852C86.3106 48.1321 85.8816 47.7639 86.219 47.2848C86.7697 46.5514 87.3695 45.8563 88.0144 45.2042C88.2446 44.8817 89.5845 44.1131 88.3047 45.9914Z" fill="#C0C0C0"/>
<path d="M89.211 52.8682C88.6607 52.8429 88.1138 52.7689 87.5765 52.6473C87.259 52.5594 86.8772 51.9194 87.6644 51.9194C88.2536 51.9295 88.8406 51.9927 89.4183 52.1082C91.0299 52.2004 90.6195 52.9984 89.211 52.8682Z" fill="#C0C0C0"/>
<path d="M89.1433 49.5169C88.4626 49.6321 87.7949 49.8141 87.1499 50.0603C86.8782 50.2033 86.5529 49.878 86.846 49.5598C86.9257 49.4601 87.0306 49.3836 87.1499 49.3381C87.8177 49.1751 88.5041 49.0829 89.1662 48.887C90.3409 48.5452 90.0456 49.4339 89.1433 49.5169Z" fill="#C0C0C0"/>
<path d="M85.5203 115.563C85.3888 119.112 82.7511 120.466 80.9114 118.995C79.9907 118.149 79.4417 116.974 79.384 115.725C79.3262 114.476 79.7645 113.255 80.6033 112.328C82.5423 110.47 85.3881 112.15 85.5203 115.563ZM81.6665 115.568C81.63 115.554 81.5885 115.54 81.5514 115.527C81.5928 115.338 81.6114 114.992 81.6715 114.983C82.1309 114.907 82.5981 114.888 83.0622 114.927C83.4761 114.974 83.3846 115.356 83.3517 115.642C83.2552 116.485 84.036 116.207 84.4521 116.185C84.8296 116.166 84.9376 115.964 84.8346 115.628C84.5944 114.842 84.1811 114.19 83.301 114.082C82.685 114.006 82.0622 114.002 81.4455 114.072C81.1128 114.118 80.8057 114.276 80.5754 114.521C80.3452 114.765 80.2056 115.082 80.18 115.416C80.1342 115.652 80.2165 116.111 80.3316 116.144C80.684 116.232 81.0532 116.229 81.4041 116.135C81.5285 116.113 81.5792 115.77 81.6665 115.568Z" fill="#C0A183"/>
<path d="M60.809 122.392C59.4894 122.331 58.2442 121.763 57.334 120.806C56.4239 119.848 55.9193 118.576 55.9258 117.255C55.9324 115.934 56.4496 114.667 57.3692 113.718C58.2889 112.77 59.5396 112.214 60.8598 112.167C61.5226 112.189 62.1745 112.343 62.7778 112.618C63.3811 112.894 63.9239 113.286 64.375 113.772C64.8261 114.258 65.1765 114.829 65.4061 115.451C65.6356 116.073 65.7397 116.735 65.7125 117.397C65.7222 118.709 65.2116 119.971 64.2925 120.907C63.3734 121.844 62.1208 122.377 60.809 122.392ZM64.956 117.354C64.932 116.551 64.6721 115.772 64.2087 115.115C63.7454 114.459 63.099 113.953 62.3501 113.661C61.6012 113.368 60.7829 113.303 59.9972 113.473C59.2114 113.642 58.493 114.039 57.9313 114.615C57.3696 115.19 56.9895 115.917 56.8384 116.707C56.6873 117.496 56.7718 118.313 57.0814 119.054C57.391 119.796 57.912 120.431 58.5796 120.878C59.2471 121.326 60.0316 121.568 60.8355 121.573C61.383 121.567 61.9239 121.453 62.4272 121.237C62.9306 121.022 63.3866 120.709 63.769 120.318C64.1515 119.926 64.4529 119.462 64.6561 118.954C64.8593 118.445 64.9602 117.902 64.9531 117.354H64.956Z" fill="#C0C0C0"/>
<path d="M76.9189 116.332C76.7844 120.162 73.1208 121.932 70.7355 119.716C69.8411 118.827 69.3062 117.639 69.2332 116.38C69.1602 115.121 69.5544 113.879 70.3401 112.893C70.6979 112.449 71.1583 112.1 71.6815 111.875C72.2047 111.65 72.7748 111.556 73.3426 111.601C73.9104 111.646 74.4586 111.828 74.9399 112.133C75.4211 112.437 75.8209 112.855 76.1045 113.349C76.6688 114.239 76.9526 115.278 76.9189 116.332ZM76.339 116.369C76.3547 112.722 73.0607 111.221 71.0215 113.247C70.3359 114 69.9422 114.973 69.9118 115.991C69.8813 117.008 70.2162 118.003 70.8557 118.796C71.1297 119.155 71.4843 119.446 71.8911 119.643C72.2978 119.841 72.7453 119.94 73.1975 119.933C73.6496 119.926 74.0938 119.813 74.4943 119.603C74.8948 119.393 75.2404 119.092 75.5032 118.724C76.0283 118.05 76.3215 117.223 76.339 116.369Z" fill="#C0C0C0"/>
<path d="M163.357 38.7496C163.342 39.4996 163.245 40.2511 163.168 41.0004C163.14 41.2814 163.044 41.5102 162.68 41.5581C156.025 42.4261 156.616 42.5498 154.931 42.2481C154.821 42.2106 154.721 42.1466 154.64 42.0616C154.56 41.9766 154.502 41.8732 154.471 41.7605C153.705 34.253 153.885 36.4888 154.231 29.6655C154.223 29.4793 154.286 29.297 154.408 29.1557C154.529 29.0145 154.7 28.925 154.886 28.9055C157.179 28.4657 159.462 27.976 161.764 27.6027C163.205 27.3711 163.418 27.5841 163.453 29.0327C163.496 30.7459 163.387 37.2238 163.357 38.7496ZM161.988 35.497C162.093 33.2048 162.195 30.9346 162.301 28.6331C159.941 28.9834 157.637 29.3237 155.252 29.6741V36.626C155.468 36.4361 155.704 36.2708 155.957 36.1334C156.682 35.8331 156.606 36.4287 156.293 36.6489C155.588 37.1444 155.082 37.6299 155.27 38.6509C155.36 39.5522 155.371 40.4597 155.302 41.3629L162.057 40.3819C162.057 39.125 162.039 37.9738 162.066 36.8234C162.084 36.6517 162.046 36.4789 161.958 36.3304C161.87 36.182 161.737 36.0658 161.578 35.999C160.894 35.6293 160.863 35.3641 161.988 35.497Z" fill="#C0C0C0"/>
<path d="M145.935 117.446C145.972 116.544 146.273 115.673 146.802 114.941C147.331 114.209 148.063 113.649 148.909 113.331C149.754 113.013 150.674 112.951 151.554 113.153C152.434 113.355 153.235 113.812 153.857 114.467C154.479 115.122 154.895 115.945 155.051 116.835C155.208 117.724 155.099 118.64 154.738 119.467C154.377 120.295 153.78 120.998 153.022 121.489C152.264 121.979 151.378 122.236 150.475 122.226C149.863 122.21 149.26 122.075 148.7 121.826C148.141 121.578 147.636 121.221 147.214 120.777C146.792 120.333 146.462 119.811 146.243 119.239C146.024 118.668 145.919 118.058 145.935 117.446ZM153.882 117.575C153.737 117.105 153.463 116.686 153.091 116.365C152.719 116.044 152.263 115.835 151.777 115.761C150.872 115.628 149.958 115.552 149.043 115.535C148.633 115.521 148.229 115.63 147.883 115.85C147.537 116.069 147.265 116.388 147.104 116.765C146.63 117.766 147.013 117.865 147.979 117.994C148.9 118.118 148.958 118.081 148.946 117.147C148.94 116.682 149.144 116.475 149.559 116.516C150.171 116.577 150.779 116.685 151.386 116.807C151.705 116.87 151.75 117.101 151.677 117.405C151.462 118.289 151.524 118.381 152.422 118.459C153.566 118.559 154.284 118.573 153.882 117.575Z" fill="#C0A183"/>
<path d="M136.427 112.847C136.818 112.585 137.256 112.404 137.717 112.313C138.178 112.223 138.652 112.224 139.112 112.318C139.573 112.412 140.01 112.596 140.398 112.86C140.787 113.123 141.119 113.462 141.377 113.855C142.021 114.794 142.316 115.93 142.211 117.064C142.106 118.199 141.607 119.261 140.801 120.066C140.404 120.474 139.914 120.78 139.374 120.959C138.834 121.139 138.259 121.186 137.697 121.096C137.134 121.007 136.602 120.784 136.144 120.446C135.686 120.108 135.316 119.665 135.064 119.154C134.469 118.121 134.278 116.903 134.53 115.738C134.782 114.572 135.458 113.542 136.427 112.847ZM138.867 113.022C138.312 112.906 137.736 112.956 137.209 113.164C136.682 113.373 136.228 113.732 135.902 114.196C135.334 114.894 135.018 115.763 135.005 116.663C134.992 117.562 135.283 118.44 135.831 119.154C136.067 119.485 136.369 119.763 136.717 119.971C137.066 120.179 137.454 120.313 137.856 120.365C138.259 120.416 138.668 120.384 139.058 120.27C139.448 120.156 139.809 119.962 140.121 119.702C142.44 117.803 141.824 113.642 138.867 113.022Z" fill="#C0C0C0"/>
<path d="M130.918 113.616C131.41 114.505 131.61 115.527 131.488 116.536C131.367 117.545 130.931 118.49 130.243 119.238C128.598 120.868 126.063 120.218 125.266 117.934C123.603 113.177 128.609 109.859 130.918 113.616ZM130.545 114.246C130.404 113.869 130.172 113.532 129.869 113.267C129.565 113.002 129.2 112.818 128.807 112.73C128.414 112.642 128.005 112.654 127.618 112.764C127.231 112.875 126.877 113.08 126.59 113.363C125.964 114.003 125.572 114.835 125.475 115.725C125.379 116.615 125.585 117.511 126.06 118.27C128.187 121.305 132.249 118.101 130.545 114.246Z" fill="#C0C0C0"/>
<path d="M136.976 64.029C137.022 65.1699 136.943 66.3123 136.74 67.436C136.438 69.551 134.966 70.5062 136.732 71.1883C137.381 71.4393 137.648 72.0614 136.86 72.1736C136.572 72.192 136.282 72.1455 136.014 72.0375C135.745 71.9295 135.504 71.7628 135.309 71.5495C135.113 71.3363 134.968 71.0819 134.883 70.8051C134.799 70.5283 134.777 70.2361 134.821 69.95C134.861 69.6754 134.95 69.4103 135.083 69.167C135.869 67.88 135.743 66.4307 136.22 63.0802C136.254 62.845 136.742 61.0318 136.976 64.029Z" fill="#C0C0C0"/>
<path d="M141.146 73.0951C139.854 75.4353 136.028 74.706 136.57 73.6935C136.756 73.3446 139.025 75.0227 140.931 72.0591C141.146 71.7874 142.044 70.8807 141.146 73.0951Z" fill="#C0C0C0"/>
<path d="M142.966 62.0632C142.994 62.1434 142.989 62.2312 142.953 62.3083C142.918 62.3853 142.854 62.4456 142.775 62.4766C142.696 62.5075 142.608 62.5067 142.529 62.4743C142.451 62.4419 142.388 62.3804 142.354 62.3027C141.662 61.6835 140.948 60.6374 139.978 61.1101C139.389 61.3961 139.113 60.8062 139.711 60.5166C141.182 59.8023 142.658 61.0193 142.966 62.0632Z" fill="#C0C0C0"/>
<path d="M140.69 63.7992C140.944 63.8348 141.179 63.9558 141.356 64.1423C141.532 64.3289 141.64 64.57 141.662 64.8259C141.665 65.0857 141.565 65.3361 141.385 65.5234C141.205 65.7106 140.959 65.8196 140.699 65.8269C139.574 65.8148 139.531 63.8214 140.69 63.7992Z" fill="#C0C0C0"/>
<path d="M134.655 60.8796C133.991 60.934 133.373 61.2411 132.929 61.7375C132.578 62.4926 132.29 62.0278 132.418 61.4108C132.616 60.4534 134.245 59.8542 135.152 60.2368C135.747 60.2997 136.184 61.0869 134.655 60.8796Z" fill="#C0C0C0"/>
<path d="M134.461 64.9731C134.478 65.0857 134.47 65.2006 134.439 65.3101C134.407 65.4196 134.353 65.5212 134.279 65.6079C134.205 65.6946 134.114 65.7645 134.011 65.8129C133.908 65.8612 133.795 65.8869 133.682 65.8883C133.568 65.8896 133.455 65.8666 133.351 65.8206C133.246 65.7747 133.153 65.707 133.077 65.622C133.002 65.5371 132.945 65.4368 132.911 65.3281C132.877 65.2194 132.867 65.1047 132.881 64.9917C132.883 63.5753 134.467 63.7032 134.461 64.9731Z" fill="#C0C0C0"/>
<path d="M73.1592 72.2616C72.5609 72.3676 71.9446 72.2918 71.3898 72.044C70.835 71.7963 70.3672 71.3879 70.0468 70.8717C69.4787 70.1204 69.0983 69.2443 68.9371 68.3163C68.6582 66.4573 70.4386 67.5233 72.5235 68.0124C73.4344 68.2269 74.3561 68.3892 75.2813 68.5372C76.0871 68.6659 76.3738 69.0334 76.0828 69.7942C75.7948 70.3868 75.3858 70.9125 74.8822 71.3375C74.3787 71.7624 73.7917 72.0773 73.1592 72.2616ZM70.0604 68.5236C70.1414 69.0845 70.3833 69.6099 70.7568 70.0361C71.1302 70.4623 71.6192 70.7712 72.1646 70.9253C72.6035 70.9746 73.0473 70.8987 73.4448 70.7064C73.8424 70.514 74.1774 70.2132 74.4111 69.8385C72.9711 69.4031 71.5061 68.9605 70.0604 68.5236Z" fill="#C0C0C0"/>
<path d="M75.8571 66.3399C75.0606 66.8539 74.3906 66.5779 75.0706 65.6635C75.338 65.2722 75.5066 64.8219 75.5619 64.3512C75.6172 63.8805 75.5575 63.4034 75.388 62.9608C74.3927 59.6003 73.1715 56.0253 73.1093 55.6077C73.0864 55.4604 73.1687 55.198 73.2702 55.1565C73.3546 55.1385 73.4421 55.1426 73.5244 55.1684C73.6067 55.1942 73.681 55.2409 73.74 55.3038C74.8051 57.6871 75.736 60.1281 76.5285 62.6154C76.8164 63.2292 76.9065 63.9174 76.7862 64.5846C76.6659 65.2519 76.3412 65.8652 75.8571 66.3399Z" fill="#C0C0C0"/>
<path d="M79.1008 55.9311C79.1973 56.797 78.6832 56.5531 78.4744 56.2764C78.3579 56.122 76.9322 55.0795 76.195 55.3834C75.6845 55.6458 75.1683 55.1353 75.6795 54.5547C76.8478 53.2284 78.9806 54.8586 79.1008 55.9311Z" fill="#C0C0C0"/>
<path d="M69.992 61.0048C69.2813 61.0048 68.9238 60.2433 68.9238 59.7178C68.9238 59.1293 69.1212 58.2792 69.7239 58.2792C71.3577 58.282 71.5407 61.0048 69.992 61.0048Z" fill="#C0C0C0"/>
<path d="M77.5276 60.576C76.2642 60.5524 76.2099 58.2337 77.4175 58.1035C78.7224 57.9634 78.8533 60.6017 77.5276 60.576Z" fill="#C0C0C0"/>
<path d="M70.0956 55.2547C69.6608 55.2647 69.2358 55.3859 68.861 55.6066C68.4863 55.8274 68.1743 56.1405 67.9549 56.5159C67.5638 57.2617 67.3114 56.4237 67.3471 56.3272C67.3924 55.8896 67.585 55.4805 67.8934 55.1667C68.2199 54.8394 68.6299 54.6079 69.0788 54.4975C69.5278 54.387 69.9984 54.4019 70.4395 54.5404C71.2467 54.7156 71.2281 55.2497 70.0956 55.2547Z" fill="#C0C0C0"/>
<path d="M61.6942 118.837C60.7318 118.837 59.7637 118.844 58.7884 118.837C58.6636 118.849 58.5377 118.834 58.4189 118.794C58.3002 118.754 58.1912 118.689 58.0991 118.604C58.0071 118.519 57.934 118.415 57.8846 118.3C57.8352 118.184 57.8106 118.06 57.8124 117.935C57.7703 117.424 57.7667 116.904 57.7667 116.393C57.757 116.281 57.7708 116.168 57.8072 116.062C57.8437 115.957 57.902 115.859 57.9784 115.777C58.0547 115.695 58.1474 115.63 58.2505 115.586C58.3536 115.542 58.4647 115.521 58.5768 115.522C59.5856 115.483 60.5938 115.509 61.6942 115.509V118.837Z" fill="#C0C0C0"/>
<path d="M63.7748 118.505C63.4345 118.321 63.107 118.114 62.7574 117.966C62.5993 117.879 62.4656 117.754 62.3686 117.601C62.2715 117.449 62.2141 117.275 62.2018 117.095C62.1894 116.915 62.2224 116.735 62.2977 116.571C62.3731 116.407 62.4883 116.265 62.633 116.157C62.9905 115.947 63.3237 115.696 63.777 115.388L63.7748 118.505Z" fill="#C0C0C0"/>
<path d="M73.7382 117.87H74.318V118.615C73.6781 118.643 73.0432 118.671 72.3754 118.703V117.999L73.1533 117.911C72.9831 117.654 72.8723 117.473 72.7529 117.294C71.7212 115.747 71.8949 116.221 72.1809 115.595C72.3146 115.71 72.5262 115.798 72.5727 115.94C72.6957 116.319 72.8623 116.65 73.2956 116.655C73.756 116.665 73.8676 116.291 73.9813 115.923C74.027 115.78 74.1958 115.679 74.313 115.566C74.5876 116.071 74.7942 115.735 73.977 117.177C73.8669 117.37 73.7189 117.545 73.5902 117.729C73.6366 117.777 73.6853 117.824 73.7382 117.87Z" fill="#C0C0C0"/>
<path d="M73.7928 114.73C73.8211 115.076 73.8149 115.425 73.7742 115.77C73.7328 115.972 73.4982 116.138 73.3552 116.318C73.1665 116.157 72.8326 116.009 72.8126 115.83C72.7265 115.066 72.694 114.297 72.7153 113.528C72.7203 113.362 73.0728 113.058 73.208 113.086C73.3283 113.122 73.4385 113.186 73.5297 113.272C73.6208 113.358 73.6904 113.465 73.7328 113.583C73.7828 113.962 73.7907 114.346 73.7564 114.727L73.7928 114.73Z" fill="#C0C0C0"/>
<path d="M157.041 36.1143C156.555 35.8147 157.004 34.3654 157.082 33.0162C157.199 31.0049 159.633 30.6567 160.07 32.0581C160.387 33.0698 160.692 34.0851 160.959 35.1111C160.982 35.2423 160.978 35.3766 160.948 35.5063C160.918 35.636 160.863 35.7584 160.785 35.8662C160.573 36.1935 160.272 36.4535 159.917 36.6157C159.562 36.7779 159.169 36.8357 158.783 36.7821C158.174 36.6392 157.589 36.4145 157.041 36.1143ZM158.771 32.3148C157.996 32.2604 157.875 33.0219 157.997 33.8063C158.069 34.2531 158.283 34.6264 158.78 34.6721C159.138 34.7043 159.488 34.216 159.535 33.714C159.598 33.0047 159.486 32.3662 158.771 32.3148ZM158.569 35.9841C158.14 35.5787 157.799 35.252 157.404 34.8745C157.331 35.5852 157.741 35.9856 158.565 35.9856L158.569 35.9841ZM160.378 35.671C160.306 35.593 160.224 35.5101 160.15 35.4315C159.936 35.646 159.726 35.8554 159.52 36.0671C159.579 36.1314 159.639 36.2008 159.703 36.2651C159.921 36.0685 160.149 35.8705 160.374 35.6753L160.378 35.671Z" fill="#C0A183"/>
<path d="M139.134 119.242C138.435 119.182 137.785 119.127 137.132 119.067V118.368H137.943C137.786 118.091 137.686 117.907 137.585 117.719C136.758 116.193 136.921 116.634 137.208 116.061C137.327 116.19 137.516 116.301 137.565 116.452C137.775 117.143 138.188 117.398 138.647 117.046C138.79 116.936 138.839 116.705 138.964 116.558C139.094 116.432 139.236 116.32 139.388 116.222C139.607 116.847 139.921 116.416 138.338 118.386C138.716 118.446 138.914 118.478 139.181 118.519C139.162 118.74 139.148 118.966 139.134 119.242Z" fill="#C0C0C0"/>
<path d="M138.834 116.267C138.807 116.612 138.605 116.919 138.25 116.829C138.129 116.774 138.023 116.689 137.942 116.583C137.86 116.477 137.807 116.353 137.785 116.221C137.759 115.545 137.801 114.868 137.909 114.2C137.956 114.075 138.032 113.964 138.132 113.876C138.232 113.787 138.352 113.725 138.481 113.694C138.826 113.651 138.961 113.956 138.936 114.296C138.807 116.107 138.864 115.902 138.834 116.267Z" fill="#C0C0C0"/>
<path d="M128.722 114.612C128.657 115.555 128.602 116.389 128.547 117.257C127.875 117.207 127.253 117.165 126.636 117.114C126.553 117.114 126.47 117.097 126.393 117.063C126.317 117.029 126.249 116.979 126.193 116.917C126.137 116.855 126.094 116.782 126.068 116.702C126.042 116.623 126.033 116.539 126.042 116.456C126.004 114.313 126.031 114.612 128.722 114.612Z" fill="#C0C0C0"/>
<path d="M130.028 117.198C129.604 116.862 128.906 116.826 128.937 116.103C128.966 115.422 129.047 115.32 130.171 114.786C130.121 115.613 130.071 116.407 130.028 117.198Z" fill="#C0C0C0"/>
<path d="M158.565 35.9848C157.74 35.9848 157.331 35.5844 157.4 34.8751C157.796 35.2526 158.137 35.5751 158.565 35.9848Z" fill="#C0C0C0"/>
<path d="M160.374 35.6753C160.148 35.8734 159.925 36.0714 159.699 36.2695C159.639 36.2051 159.58 36.1358 159.516 36.0714C159.73 35.8569 159.939 35.6481 160.146 35.4358C160.224 35.5116 160.296 35.5895 160.374 35.6753Z" fill="#C0C0C0"/>
<path d="M77.9223 43.6518C77.6547 43.4107 77.3701 43.1892 77.0707 42.989C75.392 41.9893 73.4073 41.6335 71.4859 41.988C61.2478 43.7755 55.8195 55.7453 56.9185 65.5015C57.1437 67.5035 57.8222 64.8887 58.0239 62.2232C58.175 59.1496 58.8945 56.1306 60.146 53.3193C61.8491 49.7186 64.0177 46.5039 67.7057 44.6263C70.9675 42.9647 74.308 42.1467 77.9223 43.6518ZM85.8781 72.1009C85.7494 70.3627 85.0916 70.6924 84.9279 71.1228C84.6812 71.777 84.4939 72.4484 84.2737 73.1112C82.9631 77.0616 79.6919 82.9546 76.2213 85.8325C74.037 87.6436 71.8091 88.819 71.3157 89.5319C71.5252 89.6477 71.6332 89.9116 72.5312 89.622C75.0574 88.7792 77.3106 87.2728 79.0549 85.2605C81.405 82.5686 83.3135 79.5211 84.7091 76.2315C85.3964 74.9568 85.7955 73.5467 85.8781 72.1009ZM74.3995 92.359C74.4131 92.4005 74.4202 92.4398 74.4338 92.4856C75.7058 92.5156 76.9583 92.1696 78.0346 91.491C81.5156 89.4278 84.4124 86.5103 86.4508 83.0147C86.5848 82.7174 86.6186 82.3847 86.5474 82.0666C86.5174 81.9585 86.4622 81.8592 86.3862 81.7768C86.3102 81.6943 86.2157 81.6312 86.1105 81.5925C84.865 81.3065 85.1603 84.6434 77.0815 90.53C76.2085 91.1707 75.2933 91.7513 74.3995 92.359ZM84.5711 55.9219C84.0363 56.0556 84.6426 55.3163 83.6066 63.5652C83.3921 65.2412 82.9838 66.8893 82.7085 68.5602C82.5491 69.5276 82.1101 70.4528 82.2795 71.4796C82.3582 71.9536 82.5326 71.94 82.8551 71.742C83.1171 71.5534 83.3389 71.3145 83.5075 71.0393C83.6762 70.7641 83.7884 70.458 83.8375 70.139C85.2747 64.4969 85.1309 62.5092 84.9143 57.1324C84.8491 56.7165 84.7339 56.3101 84.5711 55.9219ZM71.8126 83.3121C71.8126 83.2478 71.8126 83.1784 71.8176 83.1141C70.4273 82.6739 69.066 82.1464 67.7421 81.5346C65.4071 80.3619 63.5218 78.4548 62.3761 76.1063C62.0822 75.48 61.9299 74.7857 61.6461 74.1494C61.3415 73.468 60.916 73.3936 60.6701 74.2209C60.5329 74.8353 60.6194 75.4785 60.9139 76.0348C61.9778 78.5607 63.8284 80.6758 66.1906 82.0659C68.5043 83.4823 70.2218 83.6303 71.8126 83.3121ZM62.0171 91.4288C61.7182 91.0576 61.3802 90.7196 61.009 90.4206C59.2955 89.4104 57.3678 88.8187 55.3827 88.6939C54.7619 88.6454 54.1431 88.8095 53.628 89.1594C52.77 89.6813 53.4135 90.1918 53.9276 90.1539C57.7672 89.8665 61.4466 92.4026 62.02 91.4288H62.0171Z" fill="#C0C0C0"/>
<path d="M84.5565 49.964C85.767 53.2229 85.491 55.1878 85.7262 55.7741C86.8531 58.5847 87.0283 63.3087 86.9117 66.0629C86.763 69.5113 88.1987 68.2944 88.6148 73.5997C88.7761 75.6744 88.5703 77.7612 88.0071 79.7644C87.8704 80.631 87.8464 81.5115 87.9356 82.3842C87.9356 82.7324 88.4997 83.052 90.1321 84.8109C90.7255 85.4544 91.043 85.8834 92.024 87.0138L92.1348 88.5196C91.9952 88.7326 91.8675 88.9532 91.7523 89.1803C91.1618 90.67 90.2915 92.0328 89.1883 93.195C87.7849 94.5488 86.2091 95.7114 84.5014 96.6527C79.899 99.2646 76.023 98.1392 74.8096 98.3795C72.5717 98.8221 69.3463 100.376 65.0813 99.0609C60.5683 97.668 59.0532 94.5085 57.5352 93.3051C56.0609 92.1368 54.2662 91.8923 52.438 91.8687C51.4849 91.6542 50.5254 91.434 49.5723 91.213C50.998 89.1517 52.3887 90.1448 53.4376 87.2326C55.0106 82.8711 53.0901 81.4869 52.2635 63.6827C52.0225 60.9289 52.1681 58.155 52.6961 55.4416C53.9631 50.0683 56.6829 45.6711 61.4942 42.7568C69.4021 37.967 81.2353 41.0222 84.5565 49.964ZM81.0208 62.3535C80.6941 58.9694 80.6104 56.4604 79.096 54.6186C77.6471 52.7643 76.0032 51.0711 74.1926 49.5678C73.5627 49.0673 72.3336 49.5736 71.6236 49.9454C68.7451 51.3392 66.2875 53.4713 64.5015 56.1244C63.6557 57.2447 63.0874 58.5495 62.8434 59.9318C62.6731 61.2812 62.613 62.6423 62.6639 64.0016C63.0393 69.9046 66.0709 73.0606 70.8964 76.1194C71.2423 76.33 71.6543 76.4039 72.0519 76.3267C72.8271 76.1627 73.5695 75.8703 74.2483 75.4616C78.9974 72.2376 80.9772 68.1271 81.0208 62.3535ZM77.922 43.6512C77.6544 43.4102 77.3698 43.1887 77.0705 42.9884C75.3918 41.9887 73.407 41.633 71.4856 41.9874C61.2475 43.7749 55.8192 55.7447 56.9182 65.5009C57.1434 67.5029 57.8219 64.8882 58.0236 62.2226C58.1747 59.149 58.8942 56.1301 60.1457 53.3187C61.8488 49.718 64.0174 46.5034 67.7054 44.6258C70.9672 42.9641 74.3077 42.1461 77.922 43.6512ZM85.8778 72.1004C85.7491 70.3622 85.0913 70.6918 84.9276 71.1222C84.6809 71.7765 84.4936 72.4478 84.2734 73.1107C82.9628 77.061 79.6916 82.9541 76.221 85.8319C74.0367 87.643 71.8088 88.8185 71.3154 89.5313C71.5249 89.6472 71.6329 89.911 72.5309 89.6214C75.0571 88.7787 77.3103 87.2723 79.0546 85.2599C81.4047 82.5681 83.3132 79.5205 84.7088 76.2309C85.3961 74.9562 85.7952 73.5462 85.8778 72.1004ZM74.3992 92.3585C74.4128 92.3999 74.4199 92.4392 74.4335 92.485C75.7055 92.515 76.958 92.1691 78.0343 91.4904C81.5153 89.4272 84.4121 86.5097 86.4505 83.0141C86.5845 82.7169 86.6183 82.3842 86.5471 82.066C86.5171 81.958 86.4619 81.8586 86.3859 81.7762C86.3099 81.6938 86.2154 81.6306 86.1102 81.592C84.8647 81.306 85.16 84.6429 77.0812 90.5295C76.2082 91.1701 75.293 91.7507 74.3992 92.3585ZM84.5708 55.9213C84.036 56.055 84.6423 55.3157 83.6063 63.5647C83.3918 65.2407 82.9835 66.8887 82.7082 68.5597C82.5488 69.5271 82.1098 70.4523 82.2792 71.479C82.3579 71.9531 82.5323 71.9395 82.8548 71.7414C83.1168 71.5528 83.3386 71.314 83.5072 71.0387C83.6759 70.7635 83.7881 70.4574 83.8372 70.1384C85.2744 64.4963 85.1306 62.5086 84.914 57.1318C84.8488 56.716 84.7336 56.3095 84.5708 55.9213ZM71.8123 83.3116C71.8123 83.2472 71.8123 83.1779 71.8173 83.1135C70.427 82.6733 69.0658 82.1458 67.7418 81.5341C65.4068 80.3614 63.5215 78.4542 62.3758 76.1058C62.0819 75.4795 61.9296 74.7852 61.6458 74.1488C61.3412 73.4674 60.9157 73.3931 60.6698 74.2203C60.5326 74.8347 60.6191 75.4779 60.9136 76.0343C61.9775 78.5602 63.8281 80.6753 66.1903 82.0653C68.504 83.4817 70.2215 83.6297 71.8123 83.3116ZM62.0168 91.4282C61.7179 91.057 61.3799 90.7191 61.0087 90.4201C59.2952 89.4098 57.3675 88.8182 55.3824 88.6934C54.7616 88.6448 54.1428 88.809 53.6277 89.1588C52.7697 89.6808 53.4132 90.1913 53.9273 90.1534C57.7669 89.866 61.4463 92.4021 62.0197 91.4282H62.0168Z" fill="#C0A183"/>
</g>
<defs>
<filter id="filter0_b_552_2825" x="-20.4" y="-20.4" width="249.8" height="191.8" filterUnits="userSpaceOnUse" color-interpolation-filters="sRGB">
<feFlood flood-opacity="0" result="BackgroundImageFix"/>
<feGaussianBlur in="BackgroundImageFix" stdDeviation="10.2"/>
<feComposite in2="SourceAlpha" operator="in" result="effect1_backgroundBlur_552_2825"/>
<feBlend mode="normal" in="SourceGraphic" in2="effect1_backgroundBlur_552_2825" result="shape"/>
</filter>
</defs>
</svg>
