<svg width="300" height="233" viewBox="0 0 300 233" fill="none" xmlns="http://www.w3.org/2000/svg">
<g filter="url(#filter0_b_552_2789)">
<rect y="3" width="300" height="227" rx="25" fill="#9772FF" fill-opacity="0.1"/>
<rect x="0.5" y="3.5" width="299" height="226" rx="24.5" stroke="#424242"/>
<path d="M169.5 145.486C188.563 144.519 206.027 144.081 208.843 145.659C210.294 146.475 212.55 157.193 213.587 164.361C219.442 163.662 226.801 163.019 234.152 162.518C233.06 157.003 232.387 153.548 229.91 148.219C229.535 147.412 230.562 147.085 230.981 147.823C233.462 152.366 235.129 157.309 235.905 162.427C245.858 161.774 255.677 161.379 261.832 161.379C261.133 155.356 257.262 141.476 250.322 134.359C244.972 128.873 234.594 123.99 225.41 122.835C225.266 124.108 224.775 125.317 223.99 126.329C223.205 127.341 222.157 128.117 220.959 128.572C216.052 130.5 207.096 131.007 199.106 126.619C190.677 129.023 175.231 138.196 169.5 145.486Z" fill="#C0A183"/>
<path d="M272.251 188.357C221.989 189.302 171.955 189.116 121.72 189.173C120.704 189.173 120.475 190.761 121.526 190.779C171.647 191.705 222.367 190.615 272.481 190.001C273.551 189.992 273.316 188.337 272.251 188.357Z" fill="#C0A183"/>
<path d="M148.497 89.0489C153.656 89.1456 178.803 88.6773 181.477 88.5619C182.283 88.527 182.262 87.136 181.477 87.136C177.887 87.136 154.273 87.5915 148.497 87.8944C148.357 87.9133 148.229 87.9822 148.136 88.0883C148.043 88.1945 147.992 88.3307 147.992 88.4717C147.992 88.6126 148.043 88.7488 148.136 88.855C148.229 88.9611 148.357 89.03 148.497 89.0489Z" fill="#C0A183"/>
<path d="M127.901 82.6083C127.525 82.804 121.038 90.6025 124.027 89.6752C124.451 89.5435 128.687 84.1764 128.895 83.2141C128.921 83.0894 128.907 82.96 128.855 82.8435C128.804 82.727 128.719 82.629 128.61 82.5628C128.502 82.4967 128.375 82.4655 128.248 82.4737C128.121 82.4818 128 82.5288 127.901 82.6083Z" fill="#C0A183"/>
<path d="M113.763 64.8904C115.85 64.9883 158.336 64.8823 160.869 64.633C161.229 64.5853 161.558 64.4058 161.793 64.1292C162.028 63.8527 162.151 63.4988 162.14 63.1362C162.129 62.7735 161.984 62.4279 161.732 62.1664C161.481 61.9048 161.141 61.7459 160.779 61.7205C148.956 61.8672 124.377 61.9278 113.83 62.1585C112.248 62.1946 112.115 64.8159 113.763 64.8904Z" fill="#C0A183"/>
<path d="M173.235 109.725C170.501 109.725 149.712 109.492 148.239 109.912C147.738 110.057 147.54 110.868 148.141 111.039C149.712 111.49 170.393 111.261 173.248 111.261C176.104 111.261 178.875 111.364 181.671 111.261C182.526 111.23 182.463 109.797 181.615 109.76C178.833 109.636 176.023 109.725 173.235 109.725Z" fill="#C0A183"/>
<path d="M147.912 120.611C147.736 120.663 147.587 120.783 147.498 120.945C147.41 121.106 147.388 121.296 147.439 121.473C147.679 122.288 146.601 122.009 182.033 122.599C182.228 122.58 182.409 122.488 182.541 122.342C182.673 122.196 182.746 122.007 182.746 121.81C182.746 121.614 182.673 121.424 182.541 121.278C182.409 121.133 182.228 121.041 182.033 121.021C148.042 120.472 150.152 120.437 147.912 120.611Z" fill="#C0A183"/>
<path d="M181.274 100.411C181.464 100.399 181.642 100.316 181.774 100.179C181.906 100.042 181.982 99.8615 181.988 99.6716C181.994 99.4817 181.929 99.2964 181.806 99.1517C181.683 99.007 181.511 98.9132 181.322 98.8886C176.266 98.7488 152.738 98.5531 148.469 99.4035C147.77 99.5422 147.926 100.56 148.594 100.62C152.204 100.945 157.724 99.7321 181.274 100.411Z" fill="#C0A183"/>
<path d="M212.349 79.7147C212.412 69.6794 212.878 57.1603 212.036 47.4233C212.012 47.2771 211.936 47.1446 211.821 47.0515C211.706 46.9583 211.56 46.9111 211.412 46.9189C211.265 46.9267 211.125 46.989 211.02 47.0938C210.916 47.1986 210.854 47.3383 210.846 47.4862C210.572 52.1578 210.83 73.8641 210.846 79.8266C210.848 80.8063 212.343 80.6957 212.349 79.7147Z" fill="#C7C7C7"/>
<path d="M124.433 126.207C125.877 127.789 127.412 129.284 129.03 130.687C129.729 131.345 130.806 130.295 130.102 129.638C128.594 128.121 127.008 126.682 125.351 125.328C124.847 125.005 124.044 125.665 124.433 126.207Z" fill="#C0A183"/>
<path d="M59.8638 47.4245C59.8638 46.5484 58.4844 46.3888 58.4727 47.2858C58.0137 84.3981 58.6265 127.565 60.3997 164.485C60.4486 165.508 62.0307 165.257 61.9782 164.241C60.1049 125.187 59.8102 86.5114 59.8638 47.4245Z" fill="#C7C7C7"/>
<path d="M77.3886 130.235C76.9971 130.817 77.9047 131.558 78.3625 131.014C78.9532 130.315 82.3783 126.346 82.207 125.492C81.7352 123.23 78.0573 129.246 77.3886 130.235Z" fill="#C0A183"/>
<path d="M103.019 111.409C102.422 111.299 98.6309 114.663 97.8654 115.394C90.7089 110.714 91.4207 111.866 91.5092 114.695C91.5362 116.629 91.6707 118.561 91.9123 120.481C91.9997 121.088 92.9223 120.982 92.9608 120.391C93.1064 118.228 92.828 116.072 92.793 113.909C99.0945 117.754 97.1466 117.637 103.031 112.817C103.73 113.589 107.058 116.828 108.066 116.705C108.882 116.604 111.628 112.914 112.281 112.128C112.281 113.797 112.335 118.562 112.83 119.911C113.086 120.61 113.762 120.363 113.797 119.668C113.883 118.186 113.704 114.674 113.707 112.963C113.707 111.015 113.701 110.517 112.886 109.352C111.115 106.821 106.63 100.622 103.893 97.258C101.483 94.293 101.377 94.229 99.6852 96.8479C97.0791 100.889 92.7045 108.731 92.0358 110.222C91.7527 110.85 92.7208 111.146 93.0575 110.681C94.1782 109.133 96.7156 104.581 97.8841 102.579C100.511 102.683 103.142 102.639 105.764 102.446C107.928 105.009 109.972 107.656 111.939 110.368L107.926 115.236C107.38 114.803 103.624 111.521 103.019 111.409Z" fill="#C0A183"/>
<path d="M123.089 163.567C116.83 163.218 65.8577 163.492 63.869 163.8C63.722 163.848 63.5948 163.943 63.5074 164.07C63.4199 164.197 63.3772 164.35 63.3859 164.505C63.3945 164.659 63.4541 164.806 63.5552 164.923C63.6563 165.04 63.7933 165.12 63.9448 165.15C83.2173 165.205 103.671 165.053 122.978 165.074C123.917 165.074 124.077 163.625 123.089 163.567Z" fill="#C7C7C7"/>
<path d="M79.8455 91.4335C80.5352 92.2035 81.593 91.2389 81.0198 90.5853C79.6288 89.0068 76.6488 85.4221 75.2752 84.2151C74.7312 83.7363 73.9937 84.4854 74.3782 85.0562C75.3661 86.53 78.4836 89.9143 79.8455 91.4335Z" fill="#C0A183"/>
<path d="M102.27 84.579C102.358 81.5553 102.179 78.5297 101.736 75.5374C101.674 75.4298 101.583 75.3423 101.473 75.2855C101.363 75.2286 101.239 75.205 101.115 75.2173C100.992 75.2296 100.875 75.2774 100.778 75.3549C100.682 75.4324 100.61 75.5363 100.571 75.6539C100.476 78.6742 100.623 81.6973 101.009 84.6943C101.044 84.8446 101.132 84.9772 101.257 85.0675C101.382 85.1578 101.536 85.1998 101.69 85.1858C101.843 85.1717 101.987 85.1025 102.094 84.991C102.2 84.8795 102.263 84.7332 102.27 84.579Z" fill="#C0A183"/>
<path d="M103.291 129.685C103.291 130.652 103.034 137.071 103.381 137.914C103.442 138.02 103.53 138.108 103.637 138.169C103.743 138.231 103.863 138.263 103.986 138.263C104.109 138.263 104.229 138.231 104.335 138.169C104.442 138.108 104.53 138.02 104.591 137.914C104.954 136.989 104.542 130.959 104.495 129.685C104.432 129.004 103.291 128.99 103.291 129.685Z" fill="#C0A183"/>
<path d="M74.1414 108.626C88.2904 82.0162 120.542 84.8122 132.403 106.47C118.39 127.855 90.9384 131.093 74.0774 110.531C73.5508 109.89 72.8995 110.709 73.3784 111.38C88.2018 132 119.875 129.309 132.953 108.467C133.379 107.938 133.628 107.287 133.664 106.609C133.7 105.93 133.522 105.257 133.155 104.685C118.773 80.0543 82.7531 84.4848 73.1675 107.996C72.8821 108.695 73.8001 109.269 74.1414 108.626Z" fill="#C0A183"/>
<path fill-rule="evenodd" clip-rule="evenodd" d="M203.105 81.5987C199.461 82.2977 196.247 90.2582 200.267 93.985C202.729 96.2672 214.066 96.3639 220.938 96.0715C220.987 96.9126 221.168 97.7408 221.473 98.5262C221.747 99.2252 222.567 99.4465 222.363 98.186C222.251 97.4681 222.2 96.7421 222.21 96.0156C223.601 95.9469 224.7 95.863 225.409 95.7826C225.224 97.3349 224.957 98.8764 224.61 100.401C224.418 101.236 225.356 101.392 225.674 100.595C226.649 98.0749 227.044 95.3671 226.828 92.6732C226.414 86.7352 209.762 80.3196 203.105 81.5987ZM204.253 84.7349C202.577 85.1182 202.18 87.6649 202.028 89.0268C201.766 91.3568 200.28 89.7258 200.637 87.6765C200.909 86.1317 202.229 83.6153 204.155 83.8658C204.267 83.8598 204.376 83.8967 204.462 83.9689C204.547 84.0411 204.601 84.1432 204.614 84.2542C204.626 84.3653 204.596 84.4769 204.529 84.5662C204.462 84.6556 204.363 84.7159 204.253 84.7349Z" fill="#C7C7C7"/>
<path fill-rule="evenodd" clip-rule="evenodd" d="M216.732 105.574C217.66 104.001 218.299 102.274 218.617 100.476C220.182 100.759 221.674 101.354 223.005 102.223C223.798 102.565 224.098 101.524 223.704 101.202C222.275 100.036 220.527 99.3289 218.689 99.1711C217.841 97.5645 211.394 97.1906 210.399 98.8856C210.155 98.749 209.886 98.6654 209.608 98.6403C209.33 98.6152 209.049 98.6492 208.785 98.74C208.279 97.349 202.561 97.0007 201.136 98.6072C199.495 98.4266 198.813 99.9423 200.982 99.9283C201.063 101.434 201.341 102.922 201.811 104.355C202.372 105.504 206.41 105.487 207.214 104.905C208.17 104.214 208.605 101.198 208.876 100.037C209.27 99.913 209.696 99.9378 210.073 100.107C210.064 101.664 210.241 103.216 210.601 104.732C211.218 105.96 215.836 106.632 216.732 105.574ZM206.772 103.57C206.582 104.028 206.411 104.137 204.88 104.077C202.294 103.976 202.836 104.536 202.044 99.3272C203.865 98.7086 205.841 98.7086 207.662 99.3272C207.637 100.785 207.335 102.225 206.772 103.57ZM211.641 104.098C211.352 102.666 211.249 101.203 211.334 99.7443C213.332 99.031 215.526 99.098 217.476 99.9318C217.367 101.077 217.073 102.198 216.606 103.25C215.944 104.698 215.835 104.888 213.748 104.718C212.746 104.636 211.782 104.414 211.641 104.099V104.098Z" fill="#C7C7C7"/>
<path fill-rule="evenodd" clip-rule="evenodd" d="M212.629 103.166C212.847 103.951 214.377 104.043 214.02 101.775C213.816 100.484 211.996 100.89 212.629 103.166Z" fill="#C7C7C7"/>
<path fill-rule="evenodd" clip-rule="evenodd" d="M225.84 102.227C221.848 102.561 219.878 109.872 217.758 110.573C216.276 111.063 212.952 108.931 209.594 108.702C206.235 108.472 204.322 109.891 203.695 109.592C203.069 109.292 203.501 106.671 203.501 106.059C203.501 105.448 203.168 105.113 202.576 106.462C201.984 107.812 196.213 120.762 198.723 124.246C202.311 129.225 216.954 130.28 221.5 126.855C227.199 122.56 222.349 108.769 223.753 105.176C224.017 104.663 224.438 104.247 224.955 103.989C225.471 103.731 226.057 103.645 226.626 103.743C228.546 104.575 228.018 110.267 224.95 109.376C224.178 109.154 224.004 110.123 224.717 110.497C226.801 111.593 228.847 109.884 229.119 107.019C229.323 104.85 228.587 101.997 225.84 102.227ZM209.948 115.158C207.055 115.158 206.47 114.01 206.227 112.129C208.731 112.667 211.325 112.622 213.809 111.997C213.544 113.717 213.177 115.163 209.948 115.163V115.158Z" fill="#C7C7C7"/>
<path fill-rule="evenodd" clip-rule="evenodd" d="M208.565 102.937C208.03 104.171 207.629 105.46 207.369 106.781C207.081 108.348 209.165 108.353 210.34 108.172C211.039 108.065 211.167 107.268 210.401 107.212C209.839 107.17 208.733 107.142 208.628 106.948C208.724 105.648 208.974 104.364 209.373 103.123C209.534 102.61 208.787 102.41 208.565 102.937Z" fill="#C7C7C7"/>
<path fill-rule="evenodd" clip-rule="evenodd" d="M205.255 103.218C205.903 102.971 205.954 101.227 205.4 100.902C204.004 100.073 203.809 103.763 205.255 103.218Z" fill="#C7C7C7"/>
<path fill-rule="evenodd" clip-rule="evenodd" d="M216.654 41.8593C162.775 41.9012 105.578 41.7765 52.5194 42.2286C51.6153 42.2355 51.5944 44.5586 52.4634 44.5644C106.176 44.9011 162.747 44.4817 216.598 44.4397C217.565 44.4386 217.586 41.8593 216.654 41.8593Z" fill="#C7C7C7"/>
<path fill-rule="evenodd" clip-rule="evenodd" d="M155.271 165.878C146.067 165.331 131.811 163.53 123.223 159.843C122.119 159.367 116.663 160.258 110.469 157.396C109.821 157.098 109.563 158.01 110.169 158.384C113.334 160.334 117.333 160.854 120.984 160.971C121.965 160.946 122.938 161.163 123.815 161.604C133.934 165.233 144.591 167.137 155.341 167.237C156.224 167.25 156.196 165.934 155.271 165.878Z" fill="#C7C7C7"/>
<path fill-rule="evenodd" clip-rule="evenodd" d="M259.906 163.235C259.727 162.254 258.405 162.6 258.57 163.576C259.139 167.076 258.913 170.659 257.909 174.061C255.532 182.347 248.535 181.018 241.531 180.695C234.18 180.357 224.056 179.653 217.704 179.36C217.564 179.341 217.422 179.378 217.308 179.463C217.195 179.547 217.119 179.673 217.097 179.813C217.074 179.952 217.107 180.095 217.189 180.211C217.27 180.327 217.394 180.406 217.533 180.432C223.643 181.402 236.696 181.977 241.781 182.218C248.736 182.549 256.495 183.476 259.085 175.424C260.359 171.491 260.641 167.304 259.906 163.235Z" fill="#C7C7C7"/>
<path fill-rule="evenodd" clip-rule="evenodd" d="M214.318 167.388C223.319 165.957 232.386 164.98 241.485 164.46C241.632 164.447 241.768 164.377 241.865 164.266C241.962 164.155 242.012 164.01 242.004 163.863C241.997 163.715 241.933 163.576 241.826 163.475C241.719 163.373 241.576 163.317 241.429 163.319C232.268 163.695 223.137 164.624 214.088 166.101C213.918 166.132 213.766 166.229 213.667 166.372C213.569 166.514 213.53 166.69 213.561 166.861C213.592 167.032 213.69 167.183 213.832 167.282C213.975 167.381 214.151 167.419 214.321 167.388H214.318Z" fill="#C7C7C7"/>
<path fill-rule="evenodd" clip-rule="evenodd" d="M118.494 157.312C118.59 157.311 118.686 157.291 118.775 157.252C118.864 157.214 118.944 157.158 119.011 157.087C119.078 157.017 119.13 156.934 119.164 156.843C119.198 156.753 119.213 156.656 119.209 156.559C119.205 156.462 119.181 156.367 119.139 156.28C119.097 156.192 119.038 156.114 118.966 156.05C118.893 155.986 118.808 155.937 118.716 155.906C118.624 155.876 118.527 155.864 118.431 155.872C114.106 156.01 111.924 154.782 109.07 152.755C108.618 152.435 108.138 153 108.487 153.454C110.519 156.14 115.259 157.437 118.494 157.312Z" fill="#C7C7C7"/>
<path fill-rule="evenodd" clip-rule="evenodd" d="M125.688 149.936C126.214 150.849 127.319 150.973 128.302 151.195C134.109 152.515 147.399 152.075 153.563 152.003C154.439 151.992 154.262 150.86 153.361 150.868C148.861 150.913 135.278 151.041 128.538 149.797C127.294 149.564 127.358 149.748 126.723 148.749C125.523 146.854 123.734 144.537 121.564 144.499C120.916 144.487 120.865 145.112 121.417 145.389C123.334 146.351 124.848 147.962 125.688 149.936Z" fill="#C7C7C7"/>
<path fill-rule="evenodd" clip-rule="evenodd" d="M121.845 150.196C118.836 149.312 114.585 147.896 112.247 144.875C111.548 143.969 110.954 144.673 111.301 145.404C112.758 148.47 118.089 151.229 121.149 151.345C122.842 151.416 122.371 150.349 121.845 150.196Z" fill="#C7C7C7"/>
<path fill-rule="evenodd" clip-rule="evenodd" d="M109.66 147.817C109.564 147.7 109.427 147.625 109.277 147.606C109.127 147.587 108.975 147.626 108.853 147.716C108.731 147.805 108.648 147.938 108.621 148.087C108.594 148.236 108.625 148.389 108.707 148.516C109.818 150.109 111.26 151.443 112.935 152.426C114.609 153.41 116.477 154.019 118.41 154.212C118.562 154.217 118.712 154.173 118.836 154.085C118.961 153.997 119.053 153.871 119.1 153.726C119.146 153.581 119.144 153.425 119.093 153.281C119.043 153.138 118.947 153.014 118.82 152.93C117.798 152.49 113.455 152.207 109.66 147.817Z" fill="#C7C7C7"/>
<path fill-rule="evenodd" clip-rule="evenodd" d="M243.777 183.46C241.691 183.189 217.488 183.725 216.367 183.266C215.246 182.807 209.449 149.792 207.935 147.622C206.42 145.453 158.715 146.829 156.546 148.081C154.376 149.334 161.54 187.045 163.396 187.808C165.051 188.487 241.29 187.543 243.781 187.412C246.272 187.28 245.864 183.732 243.777 183.46ZM183.673 172.61C177.164 173.152 175.124 162.475 181.628 161.414C184.715 160.909 187.436 163.647 188.012 167.018C188.132 167.676 188.112 168.351 187.954 168.999C187.795 169.648 187.501 170.256 187.092 170.784C186.682 171.312 186.166 171.747 185.577 172.062C184.988 172.377 184.339 172.563 183.673 172.61Z" fill="#C7C7C7"/>
</g>
<defs>
<filter id="filter0_b_552_2789" x="-20" y="-20" width="340" height="273" filterUnits="userSpaceOnUse" color-interpolation-filters="sRGB">
<feFlood flood-opacity="0" result="BackgroundImageFix"/>
<feGaussianBlur in="BackgroundImageFix" stdDeviation="10"/>
<feComposite in2="SourceAlpha" operator="in" result="effect1_backgroundBlur_552_2789"/>
<feBlend mode="normal" in="SourceGraphic" in2="effect1_backgroundBlur_552_2789" result="shape"/>
</filter>
</defs>
</svg>
