<svg width="26" height="30" viewBox="0 0 26 30" fill="none" xmlns="http://www.w3.org/2000/svg">
<path id="Vector" d="M7.84229 29.5983C4.91991 28.8969 2.2775 27.3069 0.267558 25.0403L3.75001 21.8526C5.12181 23.3996 6.92528 24.4848 8.91983 24.9634C10.9144 25.4421 13.0052 25.2915 14.9133 24.5316C16.6542 23.8384 18.1676 22.668 19.2877 21.1556L15.8209 18.6364C14.7564 20.0198 13.0985 20.9091 11.2362 20.9091C8.0241 20.9091 5.42017 18.2635 5.42017 15C5.42017 11.7365 8.0241 9.09091 11.2362 9.09091C13.2377 9.09091 15.0031 10.1181 16.0494 11.6819L19.4416 9.05783C18.252 7.36225 16.5819 6.0755 14.6539 5.36925C12.726 4.663 10.6319 4.57082 8.65108 5.10502C6.67024 5.63922 4.89682 6.77439 3.5674 8.3591L0 5.26987C1.94784 2.94798 4.54623 1.28475 7.44852 0.502047C10.3508 -0.280653 13.419 -0.145601 16.2438 0.889188C19.0686 1.92398 21.5157 3.8093 23.2586 6.29364C25.0015 8.77798 25.9573 11.7432 25.9986 14.7938C26.0399 17.8443 25.1646 20.8351 23.4896 23.3672C21.8146 25.8993 19.4195 27.8523 16.6238 28.9656C13.8281 30.0789 10.7647 30.2996 7.84229 29.5983Z" fill="white"/>
</svg>
