<svg width="42" height="42" viewBox="0 0 42 42" fill="none" xmlns="http://www.w3.org/2000/svg">
<path d="M23.1942 20.9965C23.2187 19.7006 23.2353 17.5227 23.9405 17.08C24.6379 16.6372 26.0152 17.0476 26.7204 16.9899C27.4178 16.9321 27.4423 16.4237 27.4668 15.9075M33.8718 21.2782C33.8718 21.2782 33.835 17.4317 33.1665 16.9321C32.4858 16.4246 31.1243 16.9566 30.4278 16.9321C29.7217 16.9076 29.6814 16.3336 29.6403 15.7509M24.0552 11.76L22.3743 15.3169M32.0045 11.9796L33.7572 15.12M28.0574 5.71375C30.3289 5.71375 32.1655 7.91175 32.1655 10.6181C32.1655 13.3245 30.328 15.5137 28.0574 15.5137C25.7772 15.5137 23.9405 13.3245 23.9405 10.6181C23.9405 7.91175 25.778 5.71375 28.0574 5.71375ZM12.7712 22.1725C15.0427 22.1725 16.888 24.4606 16.888 27.2737C16.888 30.0869 15.0427 32.3662 12.7712 32.3662C10.4997 32.3662 8.6543 30.086 8.6543 27.2737C8.6543 24.4615 10.4997 22.1725 12.7712 22.1725Z" stroke="#15B7A5" stroke-width="1.04167" stroke-linecap="round" stroke-linejoin="round"/>
<path d="M8.82617 26.117C10.2612 26.3139 11.6962 26.5195 12.5738 26.0925C13.4514 25.6742 13.7795 24.633 14.14 24.5262C14.5005 24.4195 14.8943 25.256 15.3125 25.6987C15.7395 26.1502 16.1823 26.2071 16.6338 26.2727M24.0547 9.63375C25.0557 9.78162 26.0637 9.93737 26.6797 9.63375C27.3027 9.33887 27.5319 8.58375 27.86 8.46125C28.1794 8.33875 28.5898 8.8375 29.2863 9.142C29.9828 9.4465 30.9602 9.54362 31.9358 9.6495M14.665 31.899C14.8619 32.4651 15.0675 33.0304 15.7063 33.145C16.3538 33.2684 17.4283 32.9481 18.06 33.9325C18.6918 34.9169 18.8642 37.2129 19.0357 39.5089M11.7863 32.3662C11.6227 32.8912 11.4503 33.4075 11.0075 33.5387C10.556 33.67 9.83505 33.4075 9.4413 33.5387C9.0388 33.6787 8.9653 34.2116 8.8918 34.7524M23.9812 27.216H32.6087V31.9891H23.9812V27.216Z" stroke="#15B7A5" stroke-width="1.04167" stroke-linecap="round" stroke-linejoin="round"/>
<path d="M14.5329 13.0454C15.552 13.0454 16.3782 12.2192 16.3782 11.2C16.3782 10.1808 15.552 9.35463 14.5329 9.35463C13.5137 9.35463 12.6875 10.1808 12.6875 11.2C12.6875 12.2192 13.5137 13.0454 14.5329 13.0454Z" stroke="#15B7A5" stroke-width="1.04167" stroke-linecap="round" stroke-linejoin="round"/>
<path d="M14.1406 9.24L12.5744 7.67375L7.48186 12.7663V18.6462H16.1006M20.4144 2.1875L21.1931 39.8125M2.19336 20.594L39.8079 21.406M28.2946 27.2694L28.2211 23.9601H29.7961" stroke="#15B7A5" stroke-width="1.04167" stroke-linecap="round" stroke-linejoin="round"/>
<path d="M39.8125 21C39.8125 31.3897 31.3897 39.8125 21 39.8125C10.6103 39.8125 2.1875 31.3897 2.1875 21M39.8125 21C39.8125 10.6103 31.3897 2.1875 21 2.1875C10.6103 2.1875 2.1875 10.6103 2.1875 21" stroke="#15B7A5" stroke-width="1.04167" stroke-linecap="round" stroke-linejoin="round"/>
</svg>
