<svg width="329" height="76" viewBox="0 0 329 76" fill="none" xmlns="http://www.w3.org/2000/svg">
<path d="M94.6973 42.5911L93.2609 38.1784H83.7189L82.2824 42.5911H77.1866L85.5657 18.0764H91.414L99.8274 42.5911H94.6973ZM85.2237 33.6607H91.7902L88.507 23.6447L85.2237 33.6607Z" fill="white"/>
<path d="M118.835 42.5911L117.399 38.1784H107.857L106.421 42.5911H101.325L109.704 18.0764H115.552L123.966 42.5911H118.835ZM109.362 33.6607H115.928L112.645 23.6447L109.362 33.6607Z" fill="white"/>
<path d="M141.167 18.0764H145.887V42.5911H142.296L132.036 27.6021V42.5911H127.316V18.0764H130.907L141.167 33.0303V18.0764Z" fill="white"/>
<path d="M170.301 18.0764L162.093 33.0303V42.5911H157.408V33.0303L149.234 18.0764H154.569L159.767 28.3025L164.966 18.0764H170.301Z" fill="white"/>
<path d="M185.906 42.5911L184.47 38.1784H174.928L173.491 42.5911H168.395L176.775 18.0764H182.623L191.036 42.5911H185.906ZM176.433 33.6607H182.999L179.716 23.6447L176.433 33.6607Z" fill="white"/>
<path d="M212.137 43.0814C209.766 43.0814 207.771 42.5444 206.152 41.4704C204.533 40.3731 203.393 38.8905 202.732 37.0227L206.767 34.6063C207.702 37.1045 209.538 38.3535 212.274 38.3535C213.596 38.3535 214.565 38.1084 215.181 37.6181C215.796 37.1278 216.104 36.5091 216.104 35.762C216.104 34.8981 215.728 34.2327 214.976 33.7658C214.223 33.2755 212.878 32.7502 210.94 32.1898C209.868 31.863 208.956 31.5361 208.204 31.2093C207.474 30.8824 206.733 30.4505 205.981 29.9135C205.251 29.3531 204.693 28.6527 204.305 27.8122C203.917 26.9717 203.724 25.9911 203.724 24.8705C203.724 22.6525 204.487 20.8897 206.015 19.5823C207.565 18.2515 209.424 17.5861 211.59 17.5861C213.528 17.5861 215.226 18.0764 216.686 19.057C218.168 20.0142 219.319 21.3567 220.14 23.0844L216.173 25.4308C215.215 23.3295 213.687 22.2789 211.59 22.2789C210.609 22.2789 209.834 22.5124 209.264 22.9793C208.717 23.4229 208.443 24.0066 208.443 24.7304C208.443 25.5008 208.751 26.1312 209.367 26.6215C210.005 27.0885 211.214 27.6021 212.992 28.1624C213.722 28.3959 214.269 28.5827 214.634 28.7228C215.021 28.8395 215.534 29.038 216.173 29.3181C216.834 29.5749 217.335 29.8201 217.677 30.0536C218.042 30.287 218.453 30.6022 218.909 30.9991C219.365 31.396 219.707 31.8046 219.935 32.2249C220.186 32.6451 220.391 33.1588 220.55 33.7658C220.733 34.3495 220.824 34.9915 220.824 35.6919C220.824 37.9566 220.014 39.7544 218.396 41.0852C216.8 42.416 214.713 43.0814 212.137 43.0814Z" fill="white"/>
<path d="M244.905 39.4042C242.489 41.8556 239.547 43.0814 236.082 43.0814C232.616 43.0814 229.675 41.8556 227.258 39.4042C224.864 36.9294 223.667 33.9059 223.667 30.3337C223.667 26.7616 224.864 23.7498 227.258 21.2983C229.675 18.8235 232.616 17.5861 236.082 17.5861C239.547 17.5861 242.489 18.8235 244.905 21.2983C247.322 23.7498 248.531 26.7616 248.531 30.3337C248.531 33.9059 247.322 36.9294 244.905 39.4042ZM230.575 36.1122C232.057 37.6064 233.893 38.3535 236.082 38.3535C238.271 38.3535 240.106 37.6064 241.588 36.1122C243.07 34.5946 243.811 32.6685 243.811 30.3337C243.811 27.999 243.07 26.0728 241.588 24.5553C240.106 23.0377 238.271 22.2789 236.082 22.2789C233.893 22.2789 232.057 23.0377 230.575 24.5553C229.093 26.0728 228.352 27.999 228.352 30.3337C228.352 32.6685 229.093 34.5946 230.575 36.1122Z" fill="white"/>
<path d="M267.17 22.6992H257.594V28.5126H266.896V33.1354H257.594V42.5911H252.874V18.0764H267.17V22.6992Z" fill="white"/>
<path d="M287.47 18.0764V22.6992H281.006V42.5911H276.286V22.6992H269.856V18.0764H287.47Z" fill="white"/>
<path d="M295.85 37.9683H305.939V42.5911H291.131V18.0764H305.768V22.6992H295.85V27.9173H304.913V32.47H295.85V37.9683Z" fill="white"/>
<path d="M329 42.5911H323.562L315.012 31.1042V42.5911H310.292V18.0764H315.012V28.8979L323.22 18.0764H328.658L319.8 29.9835L329 42.5911Z" fill="white"/>
<path d="M87.1372 51.0654V52.372H82.9806V64.9233H81.6273V52.372H77.4706V51.0654H87.1372Z" fill="white"/>
<path d="M91.6843 54.7872C93.115 54.7872 94.2686 55.3085 95.145 56.3512C96.0343 57.3806 96.479 58.6014 96.479 60.0136C96.479 60.1588 96.4661 60.3634 96.4403 60.6273H87.953C88.0819 61.6304 88.4943 62.4289 89.1903 63.0228C89.8992 63.6035 90.7692 63.8938 91.8003 63.8938C92.535 63.8938 93.1665 63.7421 93.695 63.4385C94.2363 63.1217 94.6423 62.7126 94.913 62.2111L96.0343 62.8842C95.609 63.5837 95.029 64.138 94.2943 64.5471C93.5597 64.9563 92.7219 65.1608 91.781 65.1608C90.2601 65.1608 89.0228 64.6725 88.069 63.6959C87.1152 62.7192 86.6384 61.4786 86.6384 59.974C86.6384 58.4958 87.1088 57.2618 88.0497 56.272C88.9906 55.2821 90.2021 54.7872 91.6843 54.7872ZM91.6843 56.0542C90.679 56.0542 89.8348 56.3644 89.1517 56.9847C88.4815 57.5918 88.0819 58.3837 87.953 59.3603H95.1643C95.0354 58.3177 94.6423 57.506 93.985 56.9253C93.3277 56.3446 92.5608 56.0542 91.6843 56.0542Z" fill="white"/>
<path d="M103.091 65.1608C101.634 65.1608 100.423 64.6659 99.456 63.6761C98.4893 62.673 98.006 61.439 98.006 59.974C98.006 58.509 98.4893 57.2816 99.456 56.2918C100.423 55.2887 101.634 54.7872 103.091 54.7872C104.044 54.7872 104.902 55.0248 105.662 55.4999C106.422 55.9618 106.977 56.5887 107.325 57.3806L106.281 57.9943C106.023 57.4004 105.604 56.9319 105.024 56.5887C104.457 56.2324 103.812 56.0542 103.091 56.0542C102.021 56.0542 101.119 56.437 100.384 57.2025C99.6494 57.9547 99.282 58.8786 99.282 59.974C99.282 61.0695 99.6494 61.9999 100.384 62.7654C101.119 63.5177 102.021 63.8938 103.091 63.8938C103.812 63.8938 104.457 63.7223 105.024 63.3791C105.591 63.0228 106.036 62.5476 106.358 61.9537L107.421 62.5872C107.022 63.3791 106.435 64.006 105.662 64.4679C104.889 64.9299 104.032 65.1608 103.091 65.1608Z" fill="white"/>
<path d="M113.855 54.7872C115.028 54.7872 115.949 55.1568 116.619 55.8958C117.302 56.6217 117.644 57.605 117.644 58.8456V64.9233H116.368V58.8456C116.368 57.9613 116.136 57.275 115.672 56.7867C115.221 56.2984 114.576 56.0542 113.739 56.0542C112.811 56.0542 112.057 56.3578 111.477 56.9649C110.897 57.5588 110.607 58.4827 110.607 59.7365V64.9233H109.331V51.0654H110.607V56.5689C111.328 55.3811 112.411 54.7872 113.855 54.7872Z" fill="white"/>
<path d="M124.713 54.7872C125.885 54.7872 126.807 55.1568 127.477 55.8958C128.16 56.6217 128.502 57.605 128.502 58.8456V64.9233H127.226V58.8456C127.226 57.9613 126.994 57.275 126.53 56.7867C126.079 56.2984 125.434 56.0542 124.597 56.0542C123.669 56.0542 122.915 56.3578 122.335 56.9649C121.755 57.5588 121.465 58.4827 121.465 59.7365V64.9233H120.189V55.0248H121.465V56.5689C122.186 55.3811 123.269 54.7872 124.713 54.7872Z" fill="white"/>
<path d="M139.147 63.6761C138.168 64.6659 136.969 65.1608 135.551 65.1608C134.133 65.1608 132.928 64.6659 131.936 63.6761C130.956 62.673 130.466 61.439 130.466 59.974C130.466 58.509 130.956 57.2816 131.936 56.2918C132.928 55.2887 134.133 54.7872 135.551 54.7872C136.969 54.7872 138.168 55.2887 139.147 56.2918C140.14 57.2816 140.636 58.509 140.636 59.974C140.636 61.439 140.14 62.673 139.147 63.6761ZM132.844 62.7654C133.579 63.5177 134.481 63.8938 135.551 63.8938C136.621 63.8938 137.523 63.5177 138.258 62.7654C138.992 61.9999 139.36 61.0695 139.36 59.974C139.36 58.8786 138.992 57.9547 138.258 57.2025C137.523 56.437 136.621 56.0542 135.551 56.0542C134.481 56.0542 133.579 56.437 132.844 57.2025C132.11 57.9547 131.742 58.8786 131.742 59.974C131.742 61.0695 132.11 61.9999 132.844 62.7654Z" fill="white"/>
<path d="M142.848 64.9233V50.4715H144.124V64.9233H142.848Z" fill="white"/>
<path d="M155.01 63.6761C154.03 64.6659 152.832 65.1608 151.414 65.1608C149.996 65.1608 148.791 64.6659 147.799 63.6761C146.819 62.673 146.329 61.439 146.329 59.974C146.329 58.509 146.819 57.2816 147.799 56.2918C148.791 55.2887 149.996 54.7872 151.414 54.7872C152.832 54.7872 154.03 55.2887 155.01 56.2918C156.002 57.2816 156.499 58.509 156.499 59.974C156.499 61.439 156.002 62.673 155.01 63.6761ZM148.707 62.7654C149.442 63.5177 150.344 63.8938 151.414 63.8938C152.484 63.8938 153.386 63.5177 154.121 62.7654C154.855 61.9999 155.223 61.0695 155.223 59.974C155.223 58.8786 154.855 57.9547 154.121 57.2025C153.386 56.437 152.484 56.0542 151.414 56.0542C150.344 56.0542 149.442 56.437 148.707 57.2025C147.973 57.9547 147.605 58.8786 147.605 59.974C147.605 61.0695 147.973 61.9999 148.707 62.7654Z" fill="white"/>
<path d="M167.025 55.0248H168.301V64.5273C168.301 65.9527 167.824 67.0745 166.87 67.8928C165.916 68.7111 164.776 69.1202 163.448 69.1202C161.18 69.1202 159.652 68.3152 158.866 66.705L159.987 66.0517C160.567 67.2527 161.721 67.8532 163.448 67.8532C164.556 67.8532 165.426 67.5497 166.058 66.9426C166.702 66.3487 167.025 65.5436 167.025 64.5273V62.9832C166.135 64.435 164.834 65.1608 163.119 65.1608C161.74 65.1608 160.561 64.6593 159.581 63.6563C158.615 62.6532 158.131 61.4258 158.131 59.974C158.131 58.5222 158.615 57.2948 159.581 56.2918C160.561 55.2887 161.74 54.7872 163.119 54.7872C164.834 54.7872 166.135 55.5131 167.025 56.9649V55.0248ZM160.509 62.7654C161.244 63.5177 162.146 63.8938 163.216 63.8938C164.286 63.8938 165.188 63.5177 165.923 62.7654C166.657 61.9999 167.025 61.0695 167.025 59.974C167.025 58.8786 166.657 57.9547 165.923 57.2025C165.188 56.437 164.286 56.0542 163.216 56.0542C162.146 56.0542 161.244 56.437 160.509 57.2025C159.775 57.9547 159.407 58.8786 159.407 59.974C159.407 61.0695 159.775 61.9999 160.509 62.7654Z" fill="white"/>
<path d="M172.375 52.6491C172.194 52.8339 171.975 52.9263 171.718 52.9263C171.46 52.9263 171.241 52.8339 171.06 52.6491C170.88 52.4644 170.79 52.24 170.79 51.976C170.79 51.7121 170.88 51.4877 171.06 51.3029C171.241 51.1182 171.46 51.0258 171.718 51.0258C171.975 51.0258 172.194 51.1182 172.375 51.3029C172.555 51.4877 172.646 51.7121 172.646 51.976C172.646 52.24 172.555 52.4644 172.375 52.6491ZM171.08 64.9233V55.0248H172.356V64.9233H171.08Z" fill="white"/>
<path d="M179.607 54.7872C181.037 54.7872 182.191 55.3085 183.067 56.3512C183.957 57.3806 184.401 58.6014 184.401 60.0136C184.401 60.1588 184.388 60.3634 184.363 60.6273H175.875C176.004 61.6304 176.417 62.4289 177.113 63.0228C177.822 63.6035 178.692 63.8938 179.723 63.8938C180.457 63.8938 181.089 63.7421 181.617 63.4385C182.159 63.1217 182.565 62.7126 182.835 62.2111L183.957 62.8842C183.531 63.5837 182.951 64.138 182.217 64.5471C181.482 64.9563 180.644 65.1608 179.703 65.1608C178.182 65.1608 176.945 64.6725 175.991 63.6959C175.038 62.7192 174.561 61.4786 174.561 59.974C174.561 58.4958 175.031 57.2618 175.972 56.272C176.913 55.2821 178.124 54.7872 179.607 54.7872ZM179.607 56.0542C178.601 56.0542 177.757 56.3644 177.074 56.9847C176.404 57.5918 176.004 58.3837 175.875 59.3603H183.087C182.958 58.3177 182.565 57.506 181.907 56.9253C181.25 56.3446 180.483 56.0542 179.607 56.0542Z" fill="white"/>
<path d="M187.136 57.6182C187.136 58.0669 187.329 58.4233 187.716 58.6872C188.103 58.9512 188.573 59.1558 189.127 59.3009C189.682 59.4461 190.236 59.6111 190.79 59.7959C191.344 59.9674 191.815 60.2644 192.201 60.6867C192.588 61.0959 192.781 61.637 192.781 62.3101C192.781 63.1547 192.453 63.841 191.795 64.369C191.151 64.8969 190.313 65.1608 189.282 65.1608C188.354 65.1608 187.561 64.9497 186.904 64.5273C186.26 64.105 185.808 63.5573 185.551 62.8842L186.633 62.2309C186.814 62.7456 187.136 63.1547 187.6 63.4583C188.077 63.7487 188.638 63.8938 189.282 63.8938C189.914 63.8938 190.442 63.7685 190.867 63.5177C191.293 63.2537 191.505 62.8512 191.505 62.3101C191.505 61.8613 191.312 61.505 190.925 61.241C190.539 60.9771 190.068 60.7725 189.514 60.6273C188.96 60.4822 188.406 60.3238 187.851 60.1522C187.297 59.9674 186.827 59.6705 186.44 59.2613C186.053 58.839 185.86 58.2913 185.86 57.6182C185.86 56.8131 186.169 56.14 186.788 55.5989C187.42 55.0578 188.212 54.7872 189.166 54.7872C189.952 54.7872 190.642 54.972 191.235 55.3415C191.828 55.6979 192.266 56.1862 192.549 56.8065L191.486 57.44C191.112 56.5161 190.339 56.0542 189.166 56.0542C188.612 56.0542 188.135 56.1928 187.735 56.47C187.336 56.7339 187.136 57.1167 187.136 57.6182Z" fill="white"/>
<path d="M204.925 51.0654C206.136 51.0654 207.148 51.4811 207.96 52.3126C208.772 53.1441 209.178 54.1801 209.178 55.4207C209.178 56.6613 208.772 57.6974 207.96 58.5289C207.148 59.3603 206.136 59.7761 204.925 59.7761H201.445V64.9233H200.091V51.0654H204.925ZM204.925 58.4694C205.762 58.4694 206.452 58.1857 206.993 57.6182C207.548 57.0375 207.825 56.305 207.825 55.4207C207.825 54.5364 207.548 53.8106 206.993 53.243C206.452 52.6623 205.762 52.372 204.925 52.372H201.445V58.4694H204.925Z" fill="white"/>
<path d="M212.466 56.6679C213.059 55.4669 214.077 54.8664 215.521 54.8664V56.1334C214.644 56.1334 213.916 56.3974 213.336 56.9253C212.756 57.4532 212.466 58.2847 212.466 59.4197V64.9233H211.19V55.0248H212.466V56.6679Z" fill="white"/>
<path d="M218.642 52.6491C218.462 52.8339 218.243 52.9263 217.985 52.9263C217.727 52.9263 217.508 52.8339 217.328 52.6491C217.147 52.4644 217.057 52.24 217.057 51.976C217.057 51.7121 217.147 51.4877 217.328 51.3029C217.508 51.1182 217.727 51.0258 217.985 51.0258C218.243 51.0258 218.462 51.1182 218.642 51.3029C218.823 51.4877 218.913 51.7121 218.913 51.976C218.913 52.24 218.823 52.4644 218.642 52.6491ZM217.347 64.9233V55.0248H218.623V64.9233H217.347Z" fill="white"/>
<path d="M228.368 55.0248H229.721L225.758 64.9233H224.211L220.248 55.0248H221.601L224.985 63.5573L228.368 55.0248Z" fill="white"/>
<path d="M239.276 55.0248H240.552V64.9233H239.276V62.9832C238.387 64.435 237.085 65.1608 235.371 65.1608C233.992 65.1608 232.813 64.6593 231.833 63.6563C230.866 62.6532 230.383 61.4258 230.383 59.974C230.383 58.5222 230.866 57.2948 231.833 56.2918C232.813 55.2887 233.992 54.7872 235.371 54.7872C237.085 54.7872 238.387 55.5131 239.276 56.9649V55.0248ZM232.761 62.7654C233.496 63.5177 234.398 63.8938 235.468 63.8938C236.538 63.8938 237.44 63.5177 238.174 62.7654C238.909 61.9999 239.276 61.0695 239.276 59.974C239.276 58.8786 238.909 57.9547 238.174 57.2025C237.44 56.437 236.538 56.0542 235.468 56.0542C234.398 56.0542 233.496 56.437 232.761 57.2025C232.026 57.9547 231.659 58.8786 231.659 59.974C231.659 61.0695 232.026 61.9999 232.761 62.7654Z" fill="white"/>
<path d="M248.455 56.2918H245.671V62.2903C245.671 62.8314 245.774 63.2207 245.98 63.4583C246.186 63.6827 246.496 63.8014 246.908 63.8146C247.32 63.8146 247.836 63.8014 248.455 63.775V64.9233C247.101 65.1344 246.083 65.0355 245.4 64.6263C244.73 64.2172 244.395 63.4385 244.395 62.2903V56.2918H242.365V55.0248H244.395V52.6491L245.671 52.2532V55.0248H248.455V56.2918Z" fill="white"/>
<path d="M254.539 54.7872C255.97 54.7872 257.124 55.3085 258 56.3512C258.889 57.3806 259.334 58.6014 259.334 60.0136C259.334 60.1588 259.321 60.3634 259.295 60.6273H250.808C250.937 61.6304 251.349 62.4289 252.045 63.0228C252.754 63.6035 253.624 63.8938 254.655 63.8938C255.39 63.8938 256.022 63.7421 256.55 63.4385C257.091 63.1217 257.497 62.7126 257.768 62.2111L258.889 62.8842C258.464 63.5837 257.884 64.138 257.149 64.5471C256.415 64.9563 255.577 65.1608 254.636 65.1608C253.115 65.1608 251.878 64.6725 250.924 63.6959C249.97 62.7192 249.493 61.4786 249.493 59.974C249.493 58.4958 249.964 57.2618 250.905 56.272C251.846 55.2821 253.057 54.7872 254.539 54.7872ZM254.539 56.0542C253.534 56.0542 252.69 56.3644 252.007 56.9847C251.337 57.5918 250.937 58.3837 250.808 59.3603H258.019C257.891 58.3177 257.497 57.506 256.84 56.9253C256.183 56.3446 255.416 56.0542 254.539 56.0542Z" fill="white"/>
<path d="M267.898 63.6167H274.085V64.9233H266.545V51.0654H267.898V63.6167Z" fill="white"/>
<path d="M277.202 52.6491C277.022 52.8339 276.803 52.9263 276.545 52.9263C276.287 52.9263 276.068 52.8339 275.888 52.6491C275.707 52.4644 275.617 52.24 275.617 51.976C275.617 51.7121 275.707 51.4877 275.888 51.3029C276.068 51.1182 276.287 51.0258 276.545 51.0258C276.803 51.0258 277.022 51.1182 277.202 51.3029C277.383 51.4877 277.473 51.7121 277.473 51.976C277.473 52.24 277.383 52.4644 277.202 52.6491ZM275.907 64.9233V55.0248H277.183V64.9233H275.907Z" fill="white"/>
<path d="M290.273 54.7872C291.355 54.7872 292.225 55.1436 292.883 55.8563C293.553 56.5689 293.888 57.5324 293.888 58.7466V64.9233H292.612V58.7466C292.612 57.8887 292.393 57.2288 291.955 56.7669C291.529 56.2918 290.962 56.0542 290.253 56.0542C289.454 56.0542 288.803 56.3314 288.301 56.8857C287.811 57.4268 287.566 58.2781 287.566 59.4395V64.9233H286.29V58.7466C286.29 57.8755 286.084 57.209 285.671 56.7471C285.272 56.2852 284.724 56.0542 284.028 56.0542C283.255 56.0542 282.597 56.3314 282.056 56.8857C281.515 57.44 281.244 58.2913 281.244 59.4395V64.9233H279.968V55.0248H281.244V56.47C281.94 55.3481 282.926 54.7872 284.202 54.7872C285.594 54.7872 286.573 55.3877 287.141 56.5887C287.837 55.3877 288.881 54.7872 290.273 54.7872Z" fill="white"/>
<path d="M297.729 52.6491C297.548 52.8339 297.329 52.9263 297.071 52.9263C296.813 52.9263 296.594 52.8339 296.414 52.6491C296.233 52.4644 296.143 52.24 296.143 51.976C296.143 51.7121 296.233 51.4877 296.414 51.3029C296.594 51.1182 296.813 51.0258 297.071 51.0258C297.329 51.0258 297.548 51.1182 297.729 51.3029C297.909 51.4877 297.999 51.7121 297.999 51.976C297.999 52.24 297.909 52.4644 297.729 52.6491ZM296.433 64.9233V55.0248H297.709V64.9233H296.433Z" fill="white"/>
<path d="M305.618 56.2918H302.834V62.2903C302.834 62.8314 302.937 63.2207 303.143 63.4583C303.349 63.6827 303.659 63.8014 304.071 63.8146C304.483 63.8146 304.999 63.8014 305.618 63.775V64.9233C304.264 65.1344 303.246 65.0355 302.563 64.6263C301.893 64.2172 301.558 63.4385 301.558 62.2903V56.2918H299.528V55.0248H301.558V52.6491L302.834 52.2532V55.0248H305.618V56.2918Z" fill="white"/>
<path d="M311.702 54.7872C313.133 54.7872 314.287 55.3085 315.163 56.3512C316.052 57.3806 316.497 58.6014 316.497 60.0136C316.497 60.1588 316.484 60.3634 316.458 60.6273H307.971C308.1 61.6304 308.512 62.4289 309.208 63.0228C309.917 63.6035 310.787 63.8938 311.818 63.8938C312.553 63.8938 313.185 63.7421 313.713 63.4385C314.254 63.1217 314.66 62.7126 314.931 62.2111L316.052 62.8842C315.627 63.5837 315.047 64.138 314.312 64.5471C313.578 64.9563 312.74 65.1608 311.799 65.1608C310.278 65.1608 309.041 64.6725 308.087 63.6959C307.133 62.7192 306.656 61.4786 306.656 59.974C306.656 58.4958 307.127 57.2618 308.068 56.272C309.009 55.2821 310.22 54.7872 311.702 54.7872ZM311.702 56.0542C310.697 56.0542 309.853 56.3644 309.17 56.9847C308.499 57.5918 308.1 58.3837 307.971 59.3603H315.182C315.053 58.3177 314.66 57.506 314.003 56.9253C313.346 56.3446 312.579 56.0542 311.702 56.0542Z" fill="white"/>
<path d="M326.917 51.0654H328.193V64.9233H326.917V62.9832C326.028 64.435 324.726 65.1608 323.012 65.1608C321.633 65.1608 320.454 64.6593 319.474 63.6563C318.507 62.6532 318.024 61.4258 318.024 59.974C318.024 58.5222 318.507 57.2948 319.474 56.2918C320.454 55.2887 321.633 54.7872 323.012 54.7872C324.726 54.7872 326.028 55.5131 326.917 56.9649V51.0654ZM320.402 62.7654C321.137 63.5177 322.039 63.8938 323.109 63.8938C324.178 63.8938 325.081 63.5177 325.815 62.7654C326.55 61.9999 326.917 61.0695 326.917 59.974C326.917 58.8786 326.55 57.9547 325.815 57.2025C325.081 56.437 324.178 56.0542 323.109 56.0542C322.039 56.0542 321.137 56.437 320.402 57.2025C319.667 57.9547 319.3 58.8786 319.3 59.974C319.3 61.0695 319.667 61.9999 320.402 62.7654Z" fill="white"/>
<path d="M16.2398 74.4244L26.2876 61.1339C26.8307 60.4155 26.8416 59.415 26.3143 58.6844L14.6274 42.492C14.1219 41.7916 14.1089 40.839 14.5952 40.1245L16.9848 36.6135C17.7577 35.4779 19.3894 35.4499 20.199 36.5582L47.7281 74.2424C49.5835 76.7823 53.4391 76.2606 54.5865 73.3143L63.8125 49.6245C64.0532 49.0065 63.9828 48.3069 63.6242 47.752L33.3491 0.909731C32.5612 -0.309429 30.811 -0.301816 30.0332 0.924152L0.320072 47.7563C-0.0306926 48.3091 -0.0974481 49.002 0.141046 49.6144L9.42105 73.4429C10.5576 76.3612 14.3615 76.9088 16.2398 74.4244Z" fill="url(#paint0_linear_552_3039)"/>
<defs>
<linearGradient id="paint0_linear_552_3039" x1="73.3923" y1="38" x2="-33.7436" y2="38" gradientUnits="userSpaceOnUse">
<stop stop-color="#9772FF"/>
<stop offset="1" stop-color="#BD2FA9"/>
</linearGradient>
</defs>
</svg>
