<svg width="195" height="44" viewBox="0 0 195 44" fill="none" xmlns="http://www.w3.org/2000/svg">
<path d="M56.1276 24.658L55.2762 22.1033H49.6206L48.7692 24.658H45.7489L50.7152 10.4653H54.1816L59.1682 24.658H56.1276ZM50.5125 19.4878H54.4045L52.4585 13.6891L50.5125 19.4878Z" fill="white"/>
<path d="M70.4344 24.658L69.583 22.1033H63.9274L63.0761 24.658H60.0557L65.0221 10.4653H68.4884L73.475 24.658H70.4344ZM64.8194 19.4878H68.7114L66.7654 13.6891L64.8194 19.4878Z" fill="white"/>
<path d="M83.6707 10.4653H86.468V24.658H84.3396L78.2583 15.9802V24.658H75.4609V10.4653H77.5894L83.6707 19.1228V10.4653Z" fill="white"/>
<path d="M100.938 10.4653L96.0734 19.1228V24.658H93.2963V19.1228L88.4516 10.4653H91.6138L94.695 16.3857L97.7762 10.4653H100.938Z" fill="white"/>
<path d="M110.188 24.658L109.336 22.1033H103.681L102.829 24.658H99.8088L104.775 10.4653H108.242L113.228 24.658H110.188ZM104.572 19.4878H108.465L106.518 13.6891L104.572 19.4878Z" fill="white"/>
<path d="M125.735 24.9418C124.329 24.9418 123.147 24.631 122.187 24.0092C121.228 23.3739 120.552 22.5156 120.16 21.4342L122.552 20.0352C123.106 21.4815 124.194 22.2047 125.816 22.2047C126.6 22.2047 127.174 22.0628 127.539 21.7789C127.904 21.495 128.086 21.1368 128.086 20.7043C128.086 20.2042 127.863 19.819 127.417 19.5486C126.971 19.2648 126.174 18.9606 125.025 18.6362C124.39 18.447 123.849 18.2578 123.404 18.0685C122.971 17.8793 122.532 17.6292 122.086 17.3183C121.653 16.9939 121.322 16.5884 121.093 16.1018C120.863 15.6152 120.748 15.0475 120.748 14.3987C120.748 13.1146 121.201 12.0941 122.106 11.3371C123.025 10.5667 124.127 10.1814 125.41 10.1814C126.559 10.1814 127.566 10.4653 128.431 11.033C129.309 11.5872 129.992 12.3644 130.478 13.3646L128.127 14.7231C127.559 13.5066 126.654 12.8983 125.41 12.8983C124.829 12.8983 124.37 13.0335 124.032 13.3038C123.708 13.5606 123.545 13.8986 123.545 14.3176C123.545 14.7636 123.728 15.1286 124.093 15.4125C124.471 15.6828 125.187 15.9802 126.241 16.3046C126.674 16.4397 126.998 16.5479 127.214 16.629C127.444 16.6966 127.748 16.8114 128.127 16.9737C128.519 17.1223 128.816 17.2643 129.019 17.3994C129.235 17.5346 129.478 17.7171 129.748 17.9469C130.019 18.1767 130.221 18.4132 130.356 18.6565C130.505 18.8998 130.627 19.1972 130.721 19.5486C130.829 19.8865 130.883 20.2583 130.883 20.6638C130.883 21.9749 130.404 23.0157 129.444 23.7862C128.498 24.5566 127.262 24.9418 125.735 24.9418Z" fill="white"/>
<path d="M145.157 22.8129C143.724 24.2322 141.981 24.9418 139.927 24.9418C137.873 24.9418 136.129 24.2322 134.697 22.8129C133.278 21.3802 132.568 19.6297 132.568 17.5616C132.568 15.4936 133.278 13.7499 134.697 12.3306C136.129 10.8978 137.873 10.1814 139.927 10.1814C141.981 10.1814 143.724 10.8978 145.157 12.3306C146.589 13.7499 147.305 15.4936 147.305 17.5616C147.305 19.6297 146.589 21.3802 145.157 22.8129ZM136.663 20.9071C137.542 21.7721 138.63 22.2047 139.927 22.2047C141.224 22.2047 142.312 21.7721 143.19 20.9071C144.069 20.0285 144.508 18.9133 144.508 17.5616C144.508 16.2099 144.069 15.0948 143.19 14.2162C142.312 13.3376 141.224 12.8983 139.927 12.8983C138.63 12.8983 137.542 13.3376 136.663 14.2162C135.785 15.0948 135.346 16.2099 135.346 17.5616C135.346 18.9133 135.785 20.0285 136.663 20.9071Z" fill="white"/>
<path d="M158.353 13.1416H152.677V16.5073H158.191V19.1837H152.677V24.658H149.88V10.4653H158.353V13.1416Z" fill="white"/>
<path d="M170.385 10.4653V13.1416H166.554V24.658H163.756V13.1416H159.945V10.4653H170.385Z" fill="white"/>
<path d="M175.352 21.9817H181.332V24.658H172.555V10.4653H181.231V13.1416H175.352V16.1626H180.724V18.7984H175.352V21.9817Z" fill="white"/>
<path d="M195 24.658H191.777L186.709 18.0077V24.658H183.912V10.4653H186.709V16.7303L191.574 10.4653H194.797L189.547 17.3589L195 24.658Z" fill="white"/>
<path d="M51.6467 29.5642V30.3206H49.183V37.5872H48.3809V30.3206H45.9172V29.5642H51.6467Z" fill="white"/>
<path d="M54.3418 31.7189C55.1897 31.7189 55.8735 32.0207 56.3929 32.6244C56.92 33.2204 57.1836 33.9271 57.1836 34.7447C57.1836 34.8288 57.176 34.9472 57.1607 35.1H52.1302C52.2066 35.6807 52.4511 36.143 52.8636 36.4869C53.2837 36.8231 53.7994 36.9912 54.4105 36.9912C54.846 36.9912 55.2203 36.9033 55.5335 36.7276C55.8544 36.5442 56.095 36.3073 56.2554 36.0169L56.92 36.4066C56.6679 36.8116 56.3242 37.1325 55.8887 37.3694C55.4533 37.6063 54.9567 37.7247 54.3991 37.7247C53.4976 37.7247 52.7643 37.442 52.199 36.8766C51.6337 36.3111 51.351 35.5929 51.351 34.7218C51.351 33.866 51.6298 33.1516 52.1875 32.5785C52.7452 32.0055 53.4633 31.7189 54.3418 31.7189ZM54.3418 32.4524C53.7459 32.4524 53.2455 32.632 52.8407 32.9911C52.4434 33.3426 52.2066 33.8011 52.1302 34.3665H56.4044C56.328 33.7629 56.095 33.2929 55.7054 32.9567C55.3158 32.6205 54.8612 32.4524 54.3418 32.4524Z" fill="white"/>
<path d="M61.1024 37.7247C60.2391 37.7247 59.521 37.4382 58.9481 36.8651C58.3751 36.2844 58.0887 35.57 58.0887 34.7218C58.0887 33.8737 58.3751 33.1631 58.9481 32.59C59.521 32.0093 60.2391 31.7189 61.1024 31.7189C61.6677 31.7189 62.1757 31.8565 62.6264 32.1315C63.0771 32.399 63.4056 32.7619 63.6119 33.2204L62.9931 33.5757C62.8403 33.2318 62.592 32.9606 62.2483 32.7619C61.9121 32.5556 61.5302 32.4524 61.1024 32.4524C60.4683 32.4524 59.9336 32.674 59.4981 33.1172C59.0627 33.5527 58.845 34.0876 58.845 34.7218C58.845 35.356 59.0627 35.8947 59.4981 36.3379C59.9336 36.7734 60.4683 36.9912 61.1024 36.9912C61.5302 36.9912 61.9121 36.8918 62.2483 36.6932C62.5844 36.4869 62.8479 36.2118 63.0389 35.868L63.6692 36.2347C63.4324 36.6932 63.0848 37.0561 62.6264 37.3236C62.1681 37.591 61.66 37.7247 61.1024 37.7247Z" fill="white"/>
<path d="M67.4822 31.7189C68.1774 31.7189 68.7236 31.9329 69.1208 32.3608C69.5257 32.781 69.7282 33.3503 69.7282 34.0685V37.5872H68.9719V34.0685C68.9719 33.5566 68.8344 33.1592 68.5594 32.8765C68.292 32.5938 67.91 32.4524 67.4135 32.4524C66.8634 32.4524 66.4165 32.6282 66.0728 32.9797C65.729 33.3235 65.5571 33.8584 65.5571 34.5843V37.5872H64.8008V29.5642H65.5571V32.7504C65.9849 32.0628 66.6266 31.7189 67.4822 31.7189Z" fill="white"/>
<path d="M73.9178 31.7189C74.6129 31.7189 75.1591 31.9329 75.5564 32.3608C75.9613 32.781 76.1637 33.3503 76.1637 34.0685V37.5872H75.4074V34.0685C75.4074 33.5566 75.2699 33.1592 74.9949 32.8765C74.7275 32.5938 74.3456 32.4524 73.849 32.4524C73.299 32.4524 72.8521 32.6282 72.5083 32.9797C72.1645 33.3235 71.9927 33.8584 71.9927 34.5843V37.5872H71.2364V31.8564H71.9927V32.7504C72.4205 32.0628 73.0622 31.7189 73.9178 31.7189Z" fill="white"/>
<path d="M82.4732 36.8651C81.8926 37.4382 81.1822 37.7247 80.3418 37.7247C79.5015 37.7247 78.7872 37.4382 78.199 36.8651C77.6184 36.2844 77.3281 35.57 77.3281 34.7218C77.3281 33.8737 77.6184 33.1631 78.199 32.59C78.7872 32.0093 79.5015 31.7189 80.3418 31.7189C81.1822 31.7189 81.8926 32.0093 82.4732 32.59C83.0614 33.1631 83.3555 33.8737 83.3555 34.7218C83.3555 35.57 83.0614 36.2844 82.4732 36.8651ZM78.7376 36.3379C79.173 36.7734 79.7078 36.9912 80.3418 36.9912C80.9759 36.9912 81.5106 36.7734 81.9461 36.3379C82.3815 35.8947 82.5992 35.356 82.5992 34.7218C82.5992 34.0876 82.3815 33.5527 81.9461 33.1172C81.5106 32.674 80.9759 32.4524 80.3418 32.4524C79.7078 32.4524 79.173 32.674 78.7376 33.1172C78.3021 33.5527 78.0844 34.0876 78.0844 34.7218C78.0844 35.356 78.3021 35.8947 78.7376 36.3379Z" fill="white"/>
<path d="M84.667 37.5872V29.2203H85.4232V37.5872H84.667Z" fill="white"/>
<path d="M91.8753 36.8651C91.2947 37.4382 90.5842 37.7247 89.7439 37.7247C88.9036 37.7247 88.1893 37.4382 87.6011 36.8651C87.0205 36.2844 86.7302 35.57 86.7302 34.7218C86.7302 33.8737 87.0205 33.1631 87.6011 32.59C88.1893 32.0093 88.9036 31.7189 89.7439 31.7189C90.5842 31.7189 91.2947 32.0093 91.8753 32.59C92.4635 33.1631 92.7576 33.8737 92.7576 34.7218C92.7576 35.57 92.4635 36.2844 91.8753 36.8651ZM88.1396 36.3379C88.5751 36.7734 89.1098 36.9912 89.7439 36.9912C90.3779 36.9912 90.9127 36.7734 91.3481 36.3379C91.7836 35.8947 92.0013 35.356 92.0013 34.7218C92.0013 34.0876 91.7836 33.5527 91.3481 33.1172C90.9127 32.674 90.3779 32.4524 89.7439 32.4524C89.1098 32.4524 88.5751 32.674 88.1396 33.1172C87.7042 33.5527 87.4865 34.0876 87.4865 34.7218C87.4865 35.356 87.7042 35.8947 88.1396 36.3379Z" fill="white"/>
<path d="M98.9963 31.8564H99.7526V37.3579C99.7526 38.1832 99.47 38.8326 98.9047 39.3064C98.3394 39.7801 97.6633 40.017 96.8764 40.017C95.5319 40.017 94.6267 39.5509 94.1607 38.6187L94.8253 38.2405C95.1691 38.9358 95.8528 39.2835 96.8764 39.2835C97.5334 39.2835 98.0491 39.1077 98.4234 38.7562C98.8054 38.4124 98.9963 37.9463 98.9963 37.3579V36.4639C98.4692 37.3044 97.6977 37.7247 96.6816 37.7247C95.8642 37.7247 95.1652 37.4343 94.5847 36.8536C94.0117 36.2729 93.7252 35.5623 93.7252 34.7218C93.7252 33.8813 94.0117 33.1707 94.5847 32.59C95.1652 32.0093 95.8642 31.7189 96.6816 31.7189C97.6977 31.7189 98.4692 32.1392 98.9963 32.9797V31.8564ZM95.1347 36.3379C95.5701 36.7734 96.1049 36.9912 96.7389 36.9912C97.373 36.9912 97.9077 36.7734 98.3432 36.3379C98.7786 35.8947 98.9963 35.356 98.9963 34.7218C98.9963 34.0876 98.7786 33.5527 98.3432 33.1172C97.9077 32.674 97.373 32.4524 96.7389 32.4524C96.1049 32.4524 95.5701 32.674 95.1347 33.1172C94.6992 33.5527 94.4815 34.0876 94.4815 34.7218C94.4815 35.356 94.6992 35.8947 95.1347 36.3379Z" fill="white"/>
<path d="M102.168 30.4811C102.061 30.5881 101.931 30.6415 101.778 30.6415C101.625 30.6415 101.495 30.5881 101.388 30.4811C101.281 30.3741 101.228 30.2442 101.228 30.0914C101.228 29.9386 101.281 29.8087 101.388 29.7017C101.495 29.5947 101.625 29.5412 101.778 29.5412C101.931 29.5412 102.061 29.5947 102.168 29.7017C102.274 29.8087 102.328 29.9386 102.328 30.0914C102.328 30.2442 102.274 30.3741 102.168 30.4811ZM101.4 37.5872V31.8564H102.156V37.5872H101.4Z" fill="white"/>
<path d="M106.454 31.7189C107.302 31.7189 107.985 32.0207 108.505 32.6244C109.032 33.2204 109.296 33.9271 109.296 34.7447C109.296 34.8288 109.288 34.9472 109.273 35.1H104.242C104.319 35.6807 104.563 36.143 104.976 36.4869C105.396 36.8231 105.911 36.9912 106.523 36.9912C106.958 36.9912 107.332 36.9033 107.646 36.7276C107.966 36.5442 108.207 36.3073 108.367 36.0169L109.032 36.4066C108.78 36.8116 108.436 37.1325 108.001 37.3694C107.565 37.6063 107.069 37.7247 106.511 37.7247C105.61 37.7247 104.876 37.442 104.311 36.8766C103.746 36.3111 103.463 35.5929 103.463 34.7218C103.463 33.866 103.742 33.1516 104.3 32.5785C104.857 32.0055 105.575 31.7189 106.454 31.7189ZM106.454 32.4524C105.858 32.4524 105.358 32.632 104.953 32.9911C104.555 33.3426 104.319 33.8011 104.242 34.3665H108.516C108.44 33.7629 108.207 33.2929 107.817 32.9567C107.428 32.6205 106.973 32.4524 106.454 32.4524Z" fill="white"/>
<path d="M110.917 33.3579C110.917 33.6177 111.031 33.824 111.26 33.9768C111.489 34.1296 111.768 34.2481 112.097 34.3321C112.425 34.4162 112.754 34.5117 113.082 34.6187C113.411 34.718 113.69 34.8899 113.919 35.1344C114.148 35.3713 114.263 35.6846 114.263 36.0743C114.263 36.5633 114.068 36.9606 113.678 37.2662C113.296 37.5719 112.8 37.7247 112.188 37.7247C111.638 37.7247 111.169 37.6024 110.779 37.3579C110.397 37.1134 110.13 36.7963 109.977 36.4066L110.619 36.0284C110.726 36.3264 110.916 36.5633 111.192 36.739C111.474 36.9071 111.806 36.9912 112.188 36.9912C112.563 36.9912 112.876 36.9186 113.128 36.7734C113.38 36.6206 113.506 36.3875 113.506 36.0743C113.506 35.8145 113.392 35.6082 113.162 35.4553C112.933 35.3025 112.654 35.1841 112.326 35.1C111.997 35.016 111.669 34.9243 111.34 34.825C111.012 34.718 110.733 34.5461 110.504 34.3092C110.275 34.0647 110.16 33.7476 110.16 33.3579C110.16 32.8918 110.344 32.5021 110.71 32.1888C111.085 31.8756 111.554 31.7189 112.12 31.7189C112.586 31.7189 112.994 31.8259 113.346 32.0398C113.697 32.2461 113.957 32.5289 114.125 32.888L113.495 33.2547C113.273 32.7199 112.815 32.4524 112.12 32.4524C111.791 32.4524 111.509 32.5327 111.272 32.6931C111.035 32.846 110.917 33.0675 110.917 33.3579Z" fill="white"/>
<path d="M121.46 29.5642C122.178 29.5642 122.778 29.8049 123.259 30.2862C123.74 30.7676 123.981 31.3674 123.981 32.0857C123.981 32.8039 123.74 33.4037 123.259 33.8851C122.778 34.3665 122.178 34.6072 121.46 34.6072H119.397V37.5872H118.595V29.5642H121.46ZM121.46 33.8507C121.956 33.8507 122.365 33.6865 122.686 33.3579C123.014 33.0217 123.179 32.5976 123.179 32.0857C123.179 31.5737 123.014 31.1535 122.686 30.8249C122.365 30.4887 121.956 30.3206 121.46 30.3206H119.397V33.8507H121.46Z" fill="white"/>
<path d="M125.93 32.8078C126.281 32.1124 126.885 31.7648 127.74 31.7648V32.4983C127.221 32.4983 126.789 32.6511 126.445 32.9567C126.102 33.2624 125.93 33.7438 125.93 34.4009V37.5872H125.173V31.8564H125.93V32.8078Z" fill="white"/>
<path d="M129.59 30.4811C129.483 30.5881 129.354 30.6415 129.201 30.6415C129.048 30.6415 128.918 30.5881 128.811 30.4811C128.704 30.3741 128.651 30.2442 128.651 30.0914C128.651 29.9386 128.704 29.8087 128.811 29.7017C128.918 29.5947 129.048 29.5412 129.201 29.5412C129.354 29.5412 129.483 29.5947 129.59 29.7017C129.697 29.8087 129.751 29.9386 129.751 30.0914C129.751 30.2442 129.697 30.3741 129.59 30.4811ZM128.823 37.5872V31.8564H129.579V37.5872H128.823Z" fill="white"/>
<path d="M135.355 31.8564H136.157L133.808 37.5872H132.891L130.542 31.8564H131.344L133.35 36.7963L135.355 31.8564Z" fill="white"/>
<path d="M141.82 31.8564H142.577V37.5872H141.82V36.4639C141.293 37.3044 140.522 37.7247 139.506 37.7247C138.688 37.7247 137.989 37.4343 137.409 36.8536C136.836 36.2729 136.549 35.5623 136.549 34.7218C136.549 33.8813 136.836 33.1707 137.409 32.59C137.989 32.0093 138.688 31.7189 139.506 31.7189C140.522 31.7189 141.293 32.1392 141.82 32.9797V31.8564ZM137.959 36.3379C138.394 36.7734 138.929 36.9912 139.563 36.9912C140.197 36.9912 140.732 36.7734 141.167 36.3379C141.603 35.8947 141.82 35.356 141.82 34.7218C141.82 34.0876 141.603 33.5527 141.167 33.1172C140.732 32.674 140.197 32.4524 139.563 32.4524C138.929 32.4524 138.394 32.674 137.959 33.1172C137.523 33.5527 137.306 34.0876 137.306 34.7218C137.306 35.356 137.523 35.8947 137.959 36.3379Z" fill="white"/>
<path d="M147.26 32.59H145.61V36.0628C145.61 36.3761 145.671 36.6015 145.794 36.739C145.916 36.8689 146.099 36.9377 146.344 36.9453C146.588 36.9453 146.894 36.9377 147.26 36.9224V37.5872C146.458 37.7094 145.855 37.6521 145.45 37.4152C145.053 37.1784 144.854 36.7276 144.854 36.0628V32.59H143.651V31.8564H144.854V30.4811L145.61 30.2519V31.8564H147.26V32.59Z" fill="white"/>
<path d="M150.867 31.7189C151.715 31.7189 152.398 32.0207 152.918 32.6244C153.445 33.2204 153.709 33.9271 153.709 34.7447C153.709 34.8288 153.701 34.9472 153.686 35.1H148.655C148.732 35.6807 148.976 36.143 149.389 36.4869C149.809 36.8231 150.324 36.9912 150.936 36.9912C151.371 36.9912 151.745 36.9033 152.059 36.7276C152.379 36.5442 152.62 36.3073 152.78 36.0169L153.445 36.4066C153.193 36.8116 152.849 37.1325 152.414 37.3694C151.978 37.6063 151.482 37.7247 150.924 37.7247C150.023 37.7247 149.289 37.442 148.724 36.8766C148.159 36.3111 147.876 35.5929 147.876 34.7218C147.876 33.866 148.155 33.1516 148.713 32.5785C149.27 32.0055 149.988 31.7189 150.867 31.7189ZM150.867 32.4524C150.271 32.4524 149.771 32.632 149.366 32.9911C148.968 33.3426 148.732 33.8011 148.655 34.3665H152.929C152.853 33.7629 152.62 33.2929 152.23 32.9567C151.841 32.6205 151.386 32.4524 150.867 32.4524Z" fill="white"/>
<path d="M158.785 36.8307H162.452V37.5872H157.983V29.5642H158.785V36.8307Z" fill="white"/>
<path d="M164.299 30.4811C164.192 30.5881 164.062 30.6415 163.91 30.6415C163.757 30.6415 163.627 30.5881 163.52 30.4811C163.413 30.3741 163.36 30.2442 163.36 30.0914C163.36 29.9386 163.413 29.8087 163.52 29.7017C163.627 29.5947 163.757 29.5412 163.91 29.5412C164.062 29.5412 164.192 29.5947 164.299 29.7017C164.406 29.8087 164.46 29.9386 164.46 30.0914C164.46 30.2442 164.406 30.3741 164.299 30.4811ZM163.531 37.5872V31.8564H164.288V37.5872H163.531Z" fill="white"/>
<path d="M172.046 31.7189C172.688 31.7189 173.203 31.9252 173.593 32.3378C173.99 32.7504 174.189 33.3082 174.189 34.0112V37.5872H173.433V34.0112C173.433 33.5145 173.303 33.1325 173.043 32.8651C172.791 32.59 172.455 32.4524 172.035 32.4524C171.561 32.4524 171.175 32.6129 170.877 32.9338C170.587 33.2471 170.442 33.7399 170.442 34.4123V37.5872H169.686V34.0112C169.686 33.5069 169.563 33.121 169.319 32.8536C169.082 32.5862 168.757 32.4524 168.345 32.4524C167.886 32.4524 167.497 32.6129 167.176 32.9338C166.855 33.2547 166.695 33.7476 166.695 34.4123V37.5872H165.938V31.8564H166.695V32.6931C167.107 32.0437 167.692 31.7189 168.448 31.7189C169.273 31.7189 169.854 32.0666 170.19 32.7619C170.602 32.0666 171.221 31.7189 172.046 31.7189Z" fill="white"/>
<path d="M176.465 30.4811C176.358 30.5881 176.228 30.6415 176.076 30.6415C175.923 30.6415 175.793 30.5881 175.686 30.4811C175.579 30.3741 175.526 30.2442 175.526 30.0914C175.526 29.9386 175.579 29.8087 175.686 29.7017C175.793 29.5947 175.923 29.5412 176.076 29.5412C176.228 29.5412 176.358 29.5947 176.465 29.7017C176.572 29.8087 176.626 29.9386 176.626 30.0914C176.626 30.2442 176.572 30.3741 176.465 30.4811ZM175.698 37.5872V31.8564H176.454V37.5872H175.698Z" fill="white"/>
<path d="M181.141 32.59H179.491V36.0628C179.491 36.3761 179.552 36.6015 179.674 36.739C179.797 36.8689 179.98 36.9377 180.224 36.9453C180.469 36.9453 180.774 36.9377 181.141 36.9224V37.5872C180.339 37.7094 179.736 37.6521 179.331 37.4152C178.933 37.1784 178.735 36.7276 178.735 36.0628V32.59H177.532V31.8564H178.735V30.4811L179.491 30.2519V31.8564H181.141V32.59Z" fill="white"/>
<path d="M184.748 31.7189C185.596 31.7189 186.279 32.0207 186.799 32.6244C187.326 33.2204 187.589 33.9271 187.589 34.7447C187.589 34.8288 187.582 34.9472 187.566 35.1H182.536C182.612 35.6807 182.857 36.143 183.269 36.4869C183.69 36.8231 184.205 36.9912 184.816 36.9912C185.252 36.9912 185.626 36.9033 185.939 36.7276C186.26 36.5442 186.501 36.3073 186.661 36.0169L187.326 36.4066C187.074 36.8116 186.73 37.1325 186.295 37.3694C185.859 37.6063 185.363 37.7247 184.805 37.7247C183.903 37.7247 183.17 37.442 182.605 36.8766C182.039 36.3111 181.757 35.5929 181.757 34.7218C181.757 33.866 182.036 33.1516 182.593 32.5785C183.151 32.0055 183.869 31.7189 184.748 31.7189ZM184.748 32.4524C184.152 32.4524 183.651 32.632 183.246 32.9911C182.849 33.3426 182.612 33.8011 182.536 34.3665H186.81C186.734 33.7629 186.501 33.2929 186.111 32.9567C185.722 32.6205 185.267 32.4524 184.748 32.4524Z" fill="white"/>
<path d="M193.766 29.5642H194.522V37.5872H193.766V36.4639C193.238 37.3044 192.467 37.7247 191.451 37.7247C190.633 37.7247 189.934 37.4343 189.354 36.8536C188.781 36.2729 188.494 35.5623 188.494 34.7218C188.494 33.8813 188.781 33.1707 189.354 32.59C189.934 32.0093 190.633 31.7189 191.451 31.7189C192.467 31.7189 193.238 32.1392 193.766 32.9797V29.5642ZM189.904 36.3379C190.339 36.7734 190.874 36.9912 191.508 36.9912C192.142 36.9912 192.677 36.7734 193.112 36.3379C193.548 35.8947 193.766 35.356 193.766 34.7218C193.766 34.0876 193.548 33.5527 193.112 33.1172C192.677 32.674 192.142 32.4524 191.508 32.4524C190.874 32.4524 190.339 32.674 189.904 33.1172C189.468 33.5527 189.251 34.0876 189.251 34.7218C189.251 35.356 189.468 35.8947 189.904 36.3379Z" fill="white"/>
<path d="M9.6254 43.0878L15.5808 35.3933C15.9027 34.9774 15.9092 34.3982 15.5966 33.9752L8.66972 24.6006C8.3701 24.1951 8.36244 23.6436 8.65067 23.23L10.067 21.1973C10.5251 20.5399 11.4922 20.5236 11.9721 21.1653L28.2887 42.9825C29.3884 44.4529 31.6736 44.1509 32.3537 42.4451L37.822 28.73C37.9646 28.3722 37.923 27.9671 37.7104 27.6459L19.7662 0.526686C19.2992 -0.179143 18.2619 -0.174735 17.8008 0.535036L0.189708 27.6484C-0.0181916 27.9684 -0.057758 28.3696 0.0835985 28.7241L5.5839 42.5195C6.25755 44.2091 8.51215 44.5261 9.6254 43.0878Z" fill="url(#paint0_linear_552_2665)"/>
<defs>
<linearGradient id="paint0_linear_552_2665" x1="43.5" y1="22" x2="-20" y2="22" gradientUnits="userSpaceOnUse">
<stop stop-color="#9772FF"/>
<stop offset="1" stop-color="#BD2FA9"/>
</linearGradient>
</defs>
</svg>
